<svg width="20" height="20" viewBox="0 0 20 20" fill="none" xmlns="http://www.w3.org/2000/svg">
<g clip-path="url(#clip0)">
<path d="M0.625 15.625H6.875" stroke="#153549" stroke-width="1.25" stroke-linecap="round" stroke-linejoin="round"/>
<path d="M16.875 15.625H19.375" stroke="#153549" stroke-width="1.25" stroke-linecap="round" stroke-linejoin="round"/>
<path d="M0.625 11.875H6.875" stroke="#153549" stroke-width="1.25" stroke-linecap="round" stroke-linejoin="round"/>
<path d="M0.625 8.125H9.375" stroke="#153549" stroke-width="1.25" stroke-linecap="round" stroke-linejoin="round"/>
<path d="M10.625 4.375H1.875C1.54348 4.375 1.22554 4.5067 0.991117 4.74112C0.756696 4.97554 0.625 5.29348 0.625 5.625V18.125C0.625 18.4565 0.756696 18.7745 0.991117 19.0089C1.22554 19.2433 1.54348 19.375 1.875 19.375H19.375" stroke="#153549" stroke-width="1.25" stroke-linecap="round" stroke-linejoin="round"/>
<path d="M15.7441 6.0238L13.9764 4.25604L17.9538 0.278561L19.7216 2.04633L15.7441 6.0238Z" stroke="#153549" stroke-width="1.25" stroke-linecap="round" stroke-linejoin="round"/>
<path d="M14.4165 10.885L16.6265 8.67582C16.7427 8.55973 16.8348 8.4219 16.8977 8.27019C16.9605 8.11848 16.9929 7.95587 16.9929 7.79165C16.9929 7.62743 16.9605 7.46482 16.8977 7.31311C16.8348 7.1614 16.7427 7.02357 16.6265 6.90748L14.8598 5.13998" stroke="#153549" stroke-width="1.25" stroke-linecap="round" stroke-linejoin="round"/>
<path d="M9.65016 14.8417C9.60506 14.9551 9.59418 15.0793 9.61886 15.1989C9.64353 15.3184 9.70269 15.4281 9.78902 15.5145C9.87534 15.6008 9.98507 15.66 10.1046 15.6846C10.2242 15.7093 10.3484 15.6984 10.4618 15.6533L16.2793 13.3408C16.4603 13.255 16.618 13.127 16.7391 12.9675C16.8603 12.8081 16.9413 12.6218 16.9755 12.4245C17.0096 12.2271 16.9958 12.0245 16.9353 11.8336C16.8748 11.6427 16.7693 11.4691 16.6277 11.3275L13.976 8.67583C13.8344 8.53422 13.6608 8.42871 13.4699 8.36818C13.279 8.30765 13.0764 8.29388 12.879 8.32802C12.6817 8.36216 12.4954 8.44322 12.336 8.56437C12.1765 8.68552 12.0485 8.84321 11.9627 9.02416L9.65016 14.8417Z" stroke="#153549" stroke-width="1.25" stroke-linecap="round" stroke-linejoin="round"/>
<path d="M4.375 11.875V15.625" stroke="#153549" stroke-width="1.25" stroke-linecap="round" stroke-linejoin="round"/>
<path d="M5.625 8.125V11.875" stroke="#153549" stroke-width="1.25" stroke-linecap="round" stroke-linejoin="round"/>
<path d="M8.125 4.375V8.125" stroke="#153549" stroke-width="1.25" stroke-linecap="round" stroke-linejoin="round"/>
<path d="M5.625 15.625V19.375" stroke="#153549" stroke-width="1.25" stroke-linecap="round" stroke-linejoin="round"/>
<path d="M14.375 16.875V19.375" stroke="#153549" stroke-width="1.25" stroke-linecap="round" stroke-linejoin="round"/>
</g>
<defs>
<clipPath id="clip0">
<rect width="20" height="20" fill="white"/>
</clipPath>
</defs>
</svg>
