<svg width="20" height="20" viewBox="0 0 20 20" fill="none" xmlns="http://www.w3.org/2000/svg">
<path d="M12.5 16.5625C12.5 17.2255 12.2366 17.8614 11.7678 18.3303C11.2989 18.7991 10.663 19.0625 10 19.0625C9.33696 19.0625 8.70107 18.7991 8.23223 18.3303C7.76339 17.8614 7.5 17.2255 7.5 16.5625V15.3125H12.5V16.5625Z" stroke="#153549" stroke-width="1.25" stroke-linecap="round" stroke-linejoin="round"/>
<path d="M5.625 12.8125C6.12228 12.8125 6.59919 13.01 6.95083 13.3617C7.30246 13.7133 7.5 14.1902 7.5 14.6875V15.3125" stroke="#153549" stroke-width="1.25" stroke-linecap="round" stroke-linejoin="round"/>
<path d="M5.625 12.8125L14.375 10.3125" stroke="#153549" stroke-width="1.25" stroke-linecap="round" stroke-linejoin="round"/>
<path d="M5.625 9.6875L14.375 7.1875" stroke="#153549" stroke-width="1.25" stroke-linecap="round" stroke-linejoin="round"/>
<path d="M5.625 6.5625L14.375 4.0625" stroke="#153549" stroke-width="1.25" stroke-linecap="round" stroke-linejoin="round"/>
<path d="M5.625 4.0625L8.1975 3.3275C8.7168 3.17903 9.17362 2.86546 9.49884 2.43424C9.82406 2.00302 9.99999 1.47761 10 0.9375V0.9375" stroke="#153549" stroke-width="1.25" stroke-linecap="round" stroke-linejoin="round"/>
</svg>
