<svg width="20" height="20" viewBox="0 0 20 20" fill="none" xmlns="http://www.w3.org/2000/svg">
<path d="M3.125 15C3.125 15.663 3.38839 16.2989 3.85723 16.7678C4.32607 17.2366 4.96196 17.5 5.625 17.5C6.28804 17.5 6.92393 17.2366 7.39277 16.7678C7.86161 16.2989 8.125 15.663 8.125 15C8.125 14.337 7.86161 13.7011 7.39277 13.2322C6.92393 12.7634 6.28804 12.5 5.625 12.5C4.96196 12.5 4.32607 12.7634 3.85723 13.2322C3.38839 13.7011 3.125 14.337 3.125 15V15Z" stroke="#153549" stroke-width="1.25" stroke-linecap="round" stroke-linejoin="round"/>
<path d="M3.76488 13.3333L0.794882 9.38C0.684031 9.19003 0.625266 8.97418 0.624519 8.75424C0.623772 8.5343 0.681071 8.31806 0.79063 8.12734C0.900188 7.93663 1.05813 7.7782 1.2485 7.66805C1.43887 7.5579 1.65494 7.49993 1.87488 7.5H14.9999C15.2261 7.50002 15.4481 7.56143 15.6422 7.6777C15.8363 7.79397 15.9951 7.96073 16.1019 8.1602C16.2086 8.35966 16.2593 8.58437 16.2483 8.81034C16.2374 9.03631 16.1654 9.25509 16.0399 9.44333L10.9932 14.6225C10.8767 14.7421 10.7374 14.8371 10.5835 14.9019C10.4296 14.9667 10.2643 15.0001 10.0974 15H8.12488" stroke="#153549" stroke-width="1.25" stroke-linecap="round" stroke-linejoin="round"/>
<path d="M15.6251 9.86917V15C15.6252 15.2473 15.5519 15.4891 15.4146 15.6948C15.2772 15.9004 15.082 16.0607 14.8535 16.1554C14.625 16.25 14.3736 16.2748 14.131 16.2265C13.8885 16.1782 13.6657 16.0591 13.4909 15.8842L11.3242 14.2783" stroke="#153549" stroke-width="1.25" stroke-linecap="round" stroke-linejoin="round"/>
<path d="M16.1392 8.23583L19.375 5" stroke="#153549" stroke-width="1.25" stroke-linecap="round" stroke-linejoin="round"/>
<path d="M14.0272 7.49999C14.0766 7.31941 14.1015 7.13303 14.1014 6.94583C14.106 6.62152 14.0385 6.30025 13.9039 6.00517C13.7693 5.71009 13.5709 5.44856 13.323 5.23945C13.075 5.03035 12.7838 4.87888 12.4702 4.79597C12.1567 4.71305 11.8286 4.70077 11.5097 4.75999C11.2006 4.08577 10.7044 3.51445 10.0802 3.11391C9.4559 2.71337 8.72978 2.50046 7.98806 2.50046C7.24635 2.50046 6.52023 2.71337 5.89596 3.11391C5.27169 3.51445 4.77552 4.08577 4.4664 4.75999C4.14752 4.70077 3.81946 4.71305 3.50591 4.79597C3.19235 4.87888 2.9011 5.03035 2.65317 5.23945C2.40524 5.44856 2.20681 5.71009 2.0722 6.00517C1.93759 6.30025 1.87014 6.62152 1.87473 6.94583C1.87472 7.1324 1.89625 7.31836 1.9389 7.49999" stroke="#153549" stroke-width="1.25" stroke-linecap="round" stroke-linejoin="round"/>
</svg>
