<?xml version="1.0" encoding="utf-8"?>
<!-- Generator: Adobe Illustrator 24.1.0, SVG Export Plug-In . SVG Version: 6.00 Build 0)  -->
<svg version="1.1" id="Layer_1" xmlns="http://www.w3.org/2000/svg" xmlns:xlink="http://www.w3.org/1999/xlink" x="0px" y="0px"
	 viewBox="0 0 335 242" style="enable-background:new 0 0 335 242;" xml:space="preserve">
<style type="text/css">
	.st0{fill:url(#SVGID_1_);}
	.st1{opacity:0.1;fill:#E56B70;enable-background:new    ;}
	.st2{fill:url(#SVGID_2_);}
	.st3{fill:#153549;}
	.st4{fill:#789BB6;}
	.st5{fill:url(#SVGID_3_);}
	.st6{fill:#FFFFFF;}
	.st7{fill:#E53D43;}
	.st8{fill:#E53D43;stroke:#FFFFFF;stroke-width:0.3517;stroke-miterlimit:10;}
	.st9{fill:#0F2028;}
</style>
<g>
	<g>
		
			<linearGradient id="SVGID_1_" gradientUnits="userSpaceOnUse" x1="294.3932" y1="77.4989" x2="46.8384" y2="186.5381" gradientTransform="matrix(1 0 0 -1 0 242)">
			<stop  offset="0" style="stop-color:#EBEBEB;stop-opacity:0.99"/>
			<stop  offset="1" style="stop-color:#FFFFFF"/>
		</linearGradient>
		<path class="st0" d="M290,190.5H45.4c-3.5,0-6.4-3-6.4-6.8V33.7c0-3.7,2.9-6.8,6.4-6.8H290c3.5,0,6.4,3,6.4,6.8v150
			C296.4,187.4,293.5,190.5,290,190.5z"/>
		<path class="st1" d="M173,152.2c0.1-0.2,0-0.4,0-0.5v0.4C173,152,173,152.1,173,152.2z M170.5,151.6c-0.1,0.1-0.1,0.4-0.1,0.5h0.1
			c0-0.1,0-0.1,0-0.2V151.6z"/>
		<path class="st1" d="M138.2,96.4c-0.7,0-1.1,0.4-1.3,1.2c0,0-0.1,1.2-0.4,3.3c-0.1,1.9-0.4,4.9-0.4,8.5c0,8,1.1,19.5,6,28.2
			c3.8,6.7,9.1,10.4,15.1,10.6c-2.4-1.8-5.1-4.8-6.6-9.5c-1.4-4.4-2.1-9.6-2.1-15.5c0-8.1,1.4-15,1.8-17c0-0.1,0-0.1,0-0.1
			c0.2-1.2,0.9-2,1.7-2.5c-6.1-4-11.3-6.3-12.3-6.7c-0.6-0.3-0.9-0.4-0.9-0.4C138.7,96.5,138.4,96.4,138.2,96.4z"/>
		<path class="st1" d="M190.1,105.8c-0.1,0-0.4,0.1-0.5,0.2c0,0-0.2,0.1-0.5,0.4c-0.4,0.3-0.9,0.7-1.5,1.3c-0.9,0.8-2.8,2.6-4.9,5
			c-3.4,3.9-8,10-10.1,17.1c-1.2,4.1-1.9,7.7-1.9,10.6c0,2.2,0.3,4.1,1,5.5c0.6,1.4,1.6,2.5,3.1,3.1c0.6,0.3,1.4,0.4,2.3,0.4h0.1
			c4.1,0,11.1-3.5,13.5-11.4c1.3-4.2,1.9-9.2,1.9-14.8c0-6.9-1-13-1.4-15.3c-0.1-0.9-0.3-1.3-0.3-1.3
			C190.7,106.3,190.5,105.8,190.1,105.8z"/>
		<path class="st1" d="M153.4,105.8c-0.4,0-0.6,0.5-0.7,0.9c0,0.1-0.1,0.5-0.3,1.3c-0.1,0.6-0.4,1.8-0.6,3.6
			c-0.4,2.7-0.9,7-0.9,11.7c0,5.7,0.6,10.6,2,14.8c2.4,7.9,9.6,11.4,13.8,11.4h0.1c0.9,0,1.7-0.1,2.4-0.4c0.4-0.1,0.7-0.4,1.1-0.6
			c-0.3-0.4-0.6-0.9-0.9-1.4c-0.9-1.7-1.3-3.9-1.3-6.5c0-3.3,0.7-7.1,2-11.4c0.1-0.4,0.2-0.8,0.4-1.2c0.1-0.1,0.1-0.3,0.1-0.4
			c-4.6-11.4-15-20-16.1-21c-0.4-0.3-0.6-0.4-0.6-0.4C153.8,105.9,153.6,105.8,153.4,105.8z"/>
		<path class="st1" d="M171.8,87.1c-0.3,0-0.5,0.2-0.8,0.6c0,0-0.2,0.3-0.6,0.9c-0.5,0.9-1,1.7-1.5,2.6c-1.1,2-2.9,5.3-4.6,9.3
			c-1.2,2.7-2.3,5.6-3.3,8.6c3.4,3.4,7.9,8.8,10.9,15.3c2.4-5.1,5.9-10.1,10.6-15c-3.2-9.8-7.6-17.8-9.4-20.8
			c-0.4-0.6-0.6-0.9-0.6-0.9C172.1,87.1,171.8,87.1,171.8,87.1z"/>
		<path class="st1" d="M205.2,96.4c-0.1,0-0.4,0-0.6,0.1c0,0-0.4,0.1-0.9,0.4c-0.6,0.2-1.4,0.6-2.4,1.1l-0.4,0.1
			c-3,1.4-5.9,3.1-8.7,4.9c-0.3,0.2-0.6,0.4-0.9,0.6c0.9,0.4,1.5,1.4,1.8,2.5c0,0,0,0.1,0,0.1c0.4,2,1.7,8.9,1.7,17
			c0,5.9-0.7,11.1-2.1,15.5c-1.4,4.7-4.1,7.7-6.4,9.5c5.9-0.3,11.1-4,14.9-10.6c4.9-8.8,6-20.2,6-28.2c0-2.8-0.1-5.7-0.4-8.5
			c-0.2-2-0.4-3.3-0.4-3.3C206.4,96.8,205.9,96.4,205.2,96.4z"/>
		<path class="st1" d="M188.9,89.6c-0.1,0-0.1,0-0.2,0c-0.2,0-0.4,0.1-0.6,0.2c0,0-1.3,0.8-3.3,2.2c-1.1,0.8-2.9,2.1-5,3.9
			c1.6,3.3,2.9,6.7,4.1,10c2.6-2,5.4-4,8.6-5.9c-0.9-4.6-1.9-8.1-2.4-9.4c0-0.1,0-0.1,0-0.1C189.8,90,189.5,89.6,188.9,89.6z"/>
		<path class="st1" d="M154.6,89.6c-0.6,0-1,0.4-1.2,1v0.1c-0.4,1.3-1.4,4.7-2.4,9.4c3.2,2,6,3.9,8.6,5.9c1.1-3.3,2.6-6.6,4.1-10
			c-1.7-1.4-3.4-2.7-5-3.9c-2-1.4-3.3-2.2-3.3-2.2c-0.2-0.1-0.4-0.2-0.6-0.2C154.7,89.6,154.6,89.6,154.6,89.6z"/>
		<path class="st1" d="M125.8,111.3c-1.7,0-2.7,0.1-2.7,0.1c-0.7,0.1-1.3,0.4-1.7,1c-0.2,0.4-0.4,0.8-0.4,1.3
			c0.1,1.2,0.9,5.6,6.1,12.1c2.6-1.3,5.3-2.5,7.8-3.5c-0.5-3.3-0.9-6.9-0.9-10.6c-3.1-0.3-5.6-0.4-7.2-0.4
			C126.4,111.3,126.1,111.3,125.8,111.3z"/>
		<path class="st1" d="M217.6,111.3c-0.3,0-0.6,0-0.9,0c-1.6,0-4,0.1-7.2,0.4c-0.1,3.7-0.4,7.2-0.9,10.6c2.6,1,5.1,2.2,7.8,3.5
			c5.1-6.6,5.9-11,6.1-12.1c0.1-0.4-0.2-1-0.4-1.3c-0.4-0.7-1.1-1-1.7-1C220.4,111.4,219.4,111.3,217.6,111.3z"/>
		<path class="st1" d="M208.2,124.8c-1.1,5.4-2.7,10.1-4.9,14c-2.3,4.1-5.1,7.2-8.6,9.3c24.5-1.4,31.4-9.3,32.1-10.3
			c0.2-0.4,0.4-0.8,0.4-1.2c0-0.7-0.4-1.4-0.9-1.8c0,0-0.3-0.2-0.8-0.6c-0.4-0.3-0.9-0.7-1.6-1.2c-0.2-0.1-0.4-0.3-0.6-0.4
			c-1.8-1.2-4.6-2.9-8.1-4.6C212.9,126.8,210.5,125.7,208.2,124.8z"/>
		<path class="st1" d="M135.2,124.8c-8.3,3.2-14.9,7.6-17.4,9.3c-0.5,0.4-0.8,0.6-0.8,0.6c-0.5,0.4-0.9,1.1-0.9,1.8
			c0,0.4,0.1,0.9,0.4,1.2c0,0,0,0.1,0.1,0.1c0.1,0.1,0.1,0.1,0.1,0.2c0,0,0.1,0.1,0.1,0.1c0.1,0.2,0.6,0.6,1.1,1.1
			c1,0.9,2.9,2.2,5.9,3.6c6.1,2.8,14.7,4.6,24.8,5.2c-3.4-2-6.3-5.2-8.6-9.3C137.9,134.9,136.3,130.2,135.2,124.8z"/>
		<path class="st1" d="M205.1,149.8c-1.3,0-3.1,0.3-5.9,0.7c-0.4,0.1-0.9,0.1-1.3,0.2c-1.2,0.1-2.7,0.3-4.7,0.3
			c-1.2,0-2.5,0-3.8-0.1h-0.1c-1.3,0-2.7-0.1-4.1-0.1c-3,0-6.8,0.1-10.3,1.1c-0.1,0.1-0.3,0.2-0.3,0.4c0,0.1,0.2,0.1,0.4,0.1
			c0.1,0,0.1,0,0.1,0c1.4-0.1,2.6-0.2,3.9-0.2c4.5,0,7.5,0.8,10.5,1.5c2.8,0.7,5.4,1.4,9.1,1.4c3.9,0,6.9-0.9,8.2-2.2
			c0.4-0.5,0.6-1,0.6-1.5C207.1,150.3,206.9,149.8,205.1,149.8z"/>
		<path class="st1" d="M138.3,149.8c-1.7,0-2,0.5-2.1,1.5c-0.1,0.5,0.1,1.1,0.6,1.5c1.2,1.4,4.4,2.2,8.2,2.2c3.6,0,6.3-0.7,9.1-1.4
			c2.9-0.7,6-1.5,10.5-1.5c1.2,0,2.6,0.1,3.9,0.2c0.1,0,0.1,0,0.1,0c0.2,0,0.4-0.1,0.4-0.1c0-0.1-0.1-0.3-0.3-0.4
			c-3.4-0.9-7.3-1.1-10.3-1.1c-1.4,0-2.9,0-4.1,0.1h-0.1c-1.4,0-2.6,0.1-3.8,0.1c-2,0-3.5-0.1-4.7-0.3c-0.5-0.1-0.9-0.1-1.4-0.2
			C141.4,150.1,139.6,149.8,138.3,149.8z"/>
		<g>
			
				<linearGradient id="SVGID_2_" gradientUnits="userSpaceOnUse" x1="233.4853" y1="235.6917" x2="112.7933" y2="166.7392" gradientTransform="matrix(1 0 0 -1 0 242)">
				<stop  offset="0" style="stop-color:#FDD811"/>
				<stop  offset="1" style="stop-color:#FFD628"/>
			</linearGradient>
			<path class="st2" d="M296.4,58.9H39V32.6c0-3.6,2.9-6.5,6.4-6.5H290c3.5,0,6.4,2.9,6.4,6.5V58.9z"/>
		</g>
		<path class="st3" d="M108.5,41.6c-0.3-0.3-0.6-0.6-1-0.8c-0.4-0.2-0.7-0.3-1.1-0.3c-0.4,0-0.8,0.1-1.2,0.3
			c-0.4,0.2-0.7,0.5-0.9,0.9c-0.2,0.4-0.3,0.8-0.3,1.2c0,0.5,0.1,0.9,0.3,1.3c0.2,0.4,0.5,0.7,0.9,0.9c0.4,0.2,0.8,0.3,1.2,0.3
			c0.4,0,0.7-0.1,1.1-0.2c0.4-0.2,0.7-0.4,1-0.7l1,1.1c-0.4,0.4-0.9,0.8-1.5,1c-0.6,0.3-1.1,0.4-1.7,0.4c-0.8,0-1.5-0.2-2.1-0.5
			c-0.6-0.4-1.1-0.9-1.5-1.5c-0.4-0.6-0.5-1.3-0.5-2.1c0-0.8,0.2-1.4,0.6-2.1c0.4-0.6,0.9-1.1,1.5-1.5c0.6-0.4,1.4-0.5,2.1-0.5
			c0.6,0,1.1,0.1,1.7,0.4c0.6,0.2,1,0.6,1.4,1L108.5,41.6z M114.1,39c0.8,0,1.5,0.2,2.1,0.5c0.6,0.4,1.2,0.8,1.5,1.5
			c0.4,0.6,0.6,1.3,0.6,2.1c0,0.8-0.2,1.4-0.6,2.1c-0.4,0.6-0.9,1.1-1.5,1.5c-0.6,0.4-1.4,0.5-2.1,0.5s-1.5-0.2-2.2-0.5
			c-0.6-0.4-1.2-0.8-1.5-1.5c-0.4-0.6-0.6-1.3-0.6-2.1c0-0.8,0.2-1.4,0.6-2.1c0.4-0.6,0.9-1.1,1.5-1.5C112.6,39.2,113.3,39,114.1,39
			z M114.2,40.6c-0.4,0-0.8,0.1-1.2,0.3c-0.4,0.2-0.7,0.5-0.9,0.9c-0.2,0.4-0.3,0.8-0.3,1.3c0,0.5,0.1,0.9,0.3,1.3
			c0.2,0.4,0.5,0.7,0.9,0.9c0.4,0.2,0.8,0.3,1.2,0.3c0.4,0,0.8-0.1,1.2-0.3c0.4-0.2,0.7-0.5,0.9-0.9c0.2-0.4,0.3-0.8,0.3-1.3
			c0-0.5-0.1-0.9-0.3-1.3c-0.2-0.4-0.5-0.7-0.9-0.9C115,40.7,114.6,40.6,114.2,40.6z M125,39.2h1.7v7.9h-1.6l-3.8-5.1v5.1h-1.7v-7.9
			h1.6l3.8,5.1V39.2z M127.6,39.2h6.6v1.5h-2.4v6.4H130v-6.4h-2.4V39.2z M140,47.1l-1.2-2.3h-0.2h-1.6v2.3h-1.8v-7.9h3.4
			c1,0,1.8,0.2,2.4,0.7c0.6,0.5,0.8,1.1,0.8,2c0,0.6-0.1,1.1-0.4,1.6c-0.2,0.4-0.6,0.8-1.1,1l1.7,2.6H140z M136.9,43.3h1.6
			c0.5,0,0.9-0.1,1.1-0.3c0.3-0.2,0.4-0.6,0.4-1c0-0.4-0.1-0.8-0.4-1c-0.3-0.2-0.6-0.3-1.1-0.3h-1.6V43.3z M149.1,47.1l-0.6-1.5
			h-3.6l-0.6,1.5h-1.8l3.4-7.9h1.8l3.4,7.9H149.1z M145.4,44.1h2.5l-1.2-3.1L145.4,44.1z M157.3,41.6c-0.3-0.3-0.6-0.6-1-0.8
			c-0.4-0.2-0.7-0.3-1.1-0.3c-0.4,0-0.8,0.1-1.2,0.3c-0.4,0.2-0.7,0.5-0.9,0.9c-0.2,0.4-0.3,0.8-0.3,1.2c0,0.5,0.1,0.9,0.3,1.3
			c0.2,0.4,0.5,0.7,0.9,0.9c0.4,0.2,0.8,0.3,1.2,0.3c0.4,0,0.7-0.1,1.1-0.2c0.4-0.2,0.7-0.4,1-0.7l1,1.1c-0.4,0.4-0.9,0.8-1.5,1
			c-0.6,0.3-1.1,0.4-1.7,0.4c-0.8,0-1.5-0.2-2.1-0.5c-0.6-0.4-1.1-0.9-1.5-1.5c-0.4-0.6-0.5-1.3-0.5-2.1c0-0.8,0.2-1.4,0.6-2.1
			c0.4-0.6,0.9-1.1,1.5-1.5c0.6-0.4,1.4-0.5,2.1-0.5c0.6,0,1.1,0.1,1.7,0.4c0.6,0.2,1,0.6,1.4,1L157.3,41.6z M158.7,39.2h6.6v1.5
			h-2.4v6.4h-1.8v-6.4h-2.4V39.2z M169.5,39c0.8,0,1.5,0.2,2.1,0.5c0.6,0.4,1.2,0.8,1.5,1.5c0.4,0.6,0.6,1.3,0.6,2.1
			c0,0.8-0.2,1.4-0.6,2.1c-0.4,0.6-0.9,1.1-1.5,1.5c-0.6,0.4-1.4,0.5-2.1,0.5s-1.5-0.2-2.1-0.5c-0.6-0.4-1.2-0.8-1.5-1.5
			c-0.4-0.6-0.6-1.3-0.6-2.1c0-0.8,0.2-1.4,0.6-2.1c0.4-0.6,0.9-1.1,1.5-1.5C167.9,39.2,168.7,39,169.5,39z M169.5,40.6
			c-0.4,0-0.8,0.1-1.2,0.3c-0.4,0.2-0.7,0.5-0.9,0.9c-0.2,0.4-0.3,0.8-0.3,1.3c0,0.5,0.1,0.9,0.3,1.3c0.2,0.4,0.5,0.7,0.9,0.9
			c0.4,0.2,0.8,0.3,1.2,0.3s0.8-0.1,1.2-0.3c0.4-0.2,0.7-0.5,0.9-0.9c0.2-0.4,0.3-0.8,0.3-1.3c0-0.5-0.1-0.9-0.3-1.3
			c-0.2-0.4-0.5-0.7-0.9-0.9C170.3,40.7,169.9,40.6,169.5,40.6z M179.7,47.1l-1.2-2.3h-0.2h-1.6v2.3h-1.8v-7.9h3.4
			c1,0,1.8,0.2,2.4,0.7c0.6,0.5,0.8,1.1,0.8,2c0,0.6-0.1,1.1-0.4,1.6c-0.2,0.4-0.6,0.8-1.1,1l1.7,2.6H179.7z M176.6,43.3h1.6
			c0.5,0,0.9-0.1,1.1-0.3c0.3-0.2,0.4-0.6,0.4-1c0-0.4-0.1-0.8-0.4-1c-0.3-0.2-0.6-0.3-1.1-0.3h-1.6V43.3z M185.6,39.2h1.8v6.3h3.4
			v1.6h-5.2V39.2z M191.8,39.2h1.8v7.9h-1.8V39.2z M201.1,41.6c-0.3-0.3-0.6-0.6-1-0.8c-0.4-0.2-0.7-0.3-1.1-0.3
			c-0.4,0-0.8,0.1-1.2,0.3c-0.4,0.2-0.7,0.5-0.9,0.9c-0.2,0.4-0.3,0.8-0.3,1.2c0,0.5,0.1,0.9,0.3,1.3c0.2,0.4,0.5,0.7,0.9,0.9
			c0.4,0.2,0.8,0.3,1.2,0.3c0.4,0,0.7-0.1,1.1-0.2c0.4-0.2,0.7-0.4,1-0.7l1,1.1c-0.4,0.4-0.9,0.8-1.5,1c-0.6,0.3-1.1,0.4-1.7,0.4
			c-0.8,0-1.5-0.2-2.1-0.5c-0.6-0.4-1.1-0.9-1.5-1.5c-0.4-0.6-0.5-1.3-0.5-2.1c0-0.8,0.2-1.4,0.6-2.1c0.4-0.6,0.9-1.1,1.5-1.5
			c0.6-0.4,1.4-0.5,2.1-0.5c0.6,0,1.1,0.1,1.7,0.4c0.6,0.2,1,0.6,1.4,1L201.1,41.6z M203.2,39.2h6v1.5H205v1.7h3.8v1.5H205v1.7h4.3
			v1.5h-6.1V39.2z M216.2,39.2h1.7v7.9h-1.6l-3.8-5.1v5.1h-1.7v-7.9h1.6l3.8,5.1V39.2z M225.3,41.6c-0.3-0.3-0.6-0.6-1-0.8
			c-0.4-0.2-0.7-0.3-1.1-0.3c-0.4,0-0.8,0.1-1.2,0.3c-0.4,0.2-0.7,0.5-0.9,0.9c-0.2,0.4-0.3,0.8-0.3,1.2c0,0.5,0.1,0.9,0.3,1.3
			c0.2,0.4,0.5,0.7,0.9,0.9c0.4,0.2,0.8,0.3,1.2,0.3c0.4,0,0.7-0.1,1.1-0.2c0.4-0.2,0.7-0.4,1-0.7l1,1.1c-0.4,0.4-0.9,0.8-1.5,1
			c-0.6,0.3-1.1,0.4-1.7,0.4c-0.8,0-1.5-0.2-2.1-0.5c-0.6-0.4-1.1-0.9-1.5-1.5c-0.4-0.6-0.5-1.3-0.5-2.1c0-0.8,0.2-1.4,0.6-2.1
			c0.4-0.6,0.9-1.1,1.5-1.5c0.6-0.4,1.4-0.5,2.1-0.5c0.6,0,1.1,0.1,1.7,0.4c0.6,0.2,1,0.6,1.4,1L225.3,41.6z M227.4,39.2h6v1.5h-4.2
			v1.7h3.8v1.5h-3.8v1.7h4.3v1.5h-6.1V39.2z"/>
		<path class="st4" d="M60.6,75.2c0.7,0,1.2,0.2,1.5,0.5c0.4,0.3,0.5,0.8,0.5,1.3c0,0.6-0.2,1.1-0.5,1.4c-0.4,0.3-0.9,0.5-1.5,0.5
			h-1.1v1.5h-1v-5.3H60.6z M60.6,78c0.4,0,0.7-0.1,0.9-0.2c0.2-0.2,0.3-0.4,0.3-0.7c0-0.3-0.1-0.6-0.3-0.7c-0.2-0.2-0.5-0.2-0.9-0.2
			h-1.1V78H60.6z M65.9,80.4v-0.5c-0.1,0.2-0.3,0.3-0.5,0.4c-0.2,0.1-0.5,0.1-0.8,0.1c-0.3,0-0.5-0.1-0.7-0.2
			c-0.2-0.1-0.4-0.3-0.5-0.5c-0.1-0.2-0.2-0.4-0.2-0.6c0-0.4,0.1-0.7,0.4-0.9c0.3-0.2,0.6-0.3,1.1-0.3h1.2v-0.1
			c0-0.2-0.1-0.4-0.2-0.5c-0.2-0.1-0.4-0.2-0.7-0.2c-0.4,0-0.8,0.1-1.2,0.4l-0.4-0.7c0.3-0.2,0.6-0.3,0.9-0.4
			c0.3-0.1,0.6-0.1,0.9-0.1c0.5,0,0.9,0.1,1.2,0.4c0.3,0.3,0.4,0.6,0.4,1.1l0,2.6H65.9z M64.8,79.7c0.3,0,0.5-0.1,0.7-0.2
			c0.2-0.1,0.3-0.3,0.3-0.5v-0.4h-1c-0.3,0-0.5,0-0.6,0.1c-0.1,0.1-0.2,0.2-0.2,0.4c0,0.2,0.1,0.3,0.2,0.4
			C64.4,79.7,64.6,79.7,64.8,79.7z M67.9,76.4h1v4h-1V76.4z M68.4,74.7c0.2,0,0.3,0.1,0.4,0.2c0.1,0.1,0.2,0.3,0.2,0.4
			c0,0.2-0.1,0.3-0.2,0.4c-0.1,0.1-0.2,0.2-0.4,0.2c-0.2,0-0.3-0.1-0.4-0.2c-0.1-0.1-0.2-0.2-0.2-0.4c0-0.2,0.1-0.3,0.2-0.4
			C68.1,74.8,68.2,74.7,68.4,74.7z M72.5,76.4c0.5,0,0.8,0.1,1.1,0.4c0.3,0.3,0.4,0.7,0.4,1.1v2.5h-1v-2.2c0-0.3-0.1-0.5-0.2-0.7
			c-0.2-0.2-0.4-0.2-0.7-0.2c-0.3,0-0.6,0.1-0.8,0.3c-0.2,0.2-0.3,0.5-0.3,0.8v2h-1v-4h1v0.8C71.3,76.7,71.8,76.4,72.5,76.4z
			 M77.4,80.2c-0.3,0.2-0.7,0.3-1,0.3c-0.3,0-0.6-0.1-0.8-0.3c-0.2-0.2-0.3-0.5-0.3-0.9v-2h-0.6l0-0.7h0.6v-1.1h1v1.1h1.1v0.7h-1.1
			v1.8c0,0.2,0,0.3,0.1,0.4c0.1,0.1,0.2,0.1,0.3,0.1c0.2,0,0.3-0.1,0.6-0.2L77.4,80.2z M79.8,76.4c0.6,0,1.1,0.2,1.4,0.5
			c0.3,0.4,0.5,0.9,0.5,1.5c0,0.1,0,0.2,0,0.3h-3c0.1,0.3,0.2,0.5,0.4,0.7c0.2,0.2,0.5,0.2,0.8,0.2c0.2,0,0.4,0,0.6-0.1
			c0.2-0.1,0.4-0.2,0.5-0.3l0.5,0.5c-0.2,0.2-0.4,0.4-0.7,0.5c-0.3,0.1-0.6,0.2-1,0.2c-0.4,0-0.8-0.1-1.1-0.3
			c-0.3-0.2-0.6-0.4-0.7-0.7c-0.2-0.3-0.3-0.7-0.3-1.1s0.1-0.8,0.3-1.1c0.2-0.3,0.4-0.6,0.7-0.7C79.1,76.5,79.4,76.4,79.8,76.4z
			 M80.9,78.1c0-0.3-0.1-0.5-0.3-0.7c-0.2-0.2-0.4-0.3-0.7-0.3c-0.3,0-0.5,0.1-0.7,0.3c-0.2,0.2-0.3,0.4-0.4,0.7H80.9z M83.6,77.2
			c0.1-0.3,0.3-0.5,0.5-0.6c0.2-0.1,0.5-0.2,0.8-0.2v0.9c-0.4,0-0.7,0.1-1,0.3c-0.2,0.2-0.4,0.5-0.4,0.9v1.9h-1v-4h1V77.2z
			 M85.9,79.4c0.1,0,0.3,0,0.4,0.1c0.1,0.1,0.2,0.2,0.2,0.4c0,0.1,0,0.1,0,0.2c0,0.1-0.1,0.1-0.1,0.2l-0.5,0.9h-0.5l0.3-0.9
			c-0.2-0.1-0.2-0.2-0.2-0.4c0-0.2,0-0.3,0.1-0.4C85.6,79.5,85.7,79.4,85.9,79.4z M93,74.9v5.6h-1v-0.6c-0.1,0.2-0.3,0.4-0.6,0.5
			c-0.2,0.1-0.5,0.2-0.8,0.2c-0.4,0-0.7-0.1-1-0.3c-0.3-0.2-0.5-0.4-0.7-0.7c-0.2-0.3-0.2-0.7-0.2-1.1c0-0.4,0.1-0.8,0.2-1.1
			c0.2-0.3,0.4-0.6,0.7-0.7c0.3-0.2,0.6-0.3,1-0.3c0.3,0,0.6,0.1,0.8,0.2c0.2,0.1,0.4,0.3,0.6,0.5v-2.2H93z M90.9,79.7
			c0.3,0,0.6-0.1,0.8-0.3c0.2-0.2,0.3-0.5,0.3-0.9c0-0.4-0.1-0.7-0.3-0.9c-0.2-0.2-0.5-0.3-0.8-0.3c-0.3,0-0.6,0.1-0.8,0.3
			c-0.2,0.2-0.3,0.5-0.3,0.9c0,0.4,0.1,0.7,0.3,0.9C90.3,79.6,90.5,79.7,90.9,79.7z M95.9,76.4c0.6,0,1.1,0.2,1.4,0.5
			c0.3,0.4,0.5,0.9,0.5,1.5c0,0.1,0,0.2,0,0.3h-3c0.1,0.3,0.2,0.5,0.4,0.7c0.2,0.2,0.5,0.2,0.8,0.2c0.2,0,0.4,0,0.6-0.1
			c0.2-0.1,0.4-0.2,0.5-0.3l0.5,0.5c-0.2,0.2-0.4,0.4-0.7,0.5c-0.3,0.1-0.6,0.2-1,0.2c-0.4,0-0.8-0.1-1.1-0.3
			c-0.3-0.2-0.6-0.4-0.7-0.7c-0.2-0.3-0.3-0.7-0.3-1.1s0.1-0.8,0.3-1.1c0.2-0.3,0.4-0.6,0.7-0.7C95.2,76.5,95.5,76.4,95.9,76.4z
			 M97,78.1c0-0.3-0.1-0.5-0.3-0.7c-0.2-0.2-0.4-0.3-0.7-0.3c-0.3,0-0.5,0.1-0.7,0.3c-0.2,0.2-0.3,0.4-0.4,0.7H97z M101.4,77.7
			c-0.3-0.3-0.6-0.4-1-0.4c-0.3,0-0.6,0.1-0.8,0.3c-0.2,0.2-0.3,0.5-0.3,0.9c0,0.4,0.1,0.7,0.3,0.9c0.2,0.2,0.5,0.3,0.8,0.3
			c0.5,0,0.8-0.2,1.1-0.5l0.6,0.5c-0.2,0.3-0.4,0.5-0.7,0.6c-0.3,0.1-0.6,0.2-1,0.2c-0.4,0-0.7-0.1-1.1-0.3
			c-0.3-0.2-0.5-0.4-0.7-0.7c-0.2-0.3-0.3-0.7-0.3-1.1c0-0.4,0.1-0.8,0.3-1.1c0.2-0.3,0.4-0.6,0.7-0.7c0.3-0.2,0.7-0.3,1.1-0.3
			c0.4,0,0.7,0.1,1,0.2c0.3,0.1,0.5,0.3,0.7,0.5L101.4,77.7z M104.5,76.4c0.4,0,0.8,0.1,1.1,0.3c0.3,0.2,0.6,0.4,0.7,0.7
			c0.2,0.3,0.3,0.7,0.3,1.1c0,0.4-0.1,0.8-0.3,1.1c-0.2,0.3-0.4,0.6-0.7,0.7c-0.3,0.2-0.7,0.3-1.1,0.3c-0.4,0-0.8-0.1-1.1-0.3
			c-0.3-0.2-0.6-0.4-0.8-0.7c-0.2-0.3-0.3-0.7-0.3-1.1c0-0.4,0.1-0.8,0.3-1.1c0.2-0.3,0.4-0.6,0.8-0.7
			C103.7,76.5,104.1,76.4,104.5,76.4z M104.5,77.2c-0.3,0-0.6,0.1-0.8,0.3c-0.2,0.2-0.3,0.5-0.3,0.9c0,0.4,0.1,0.7,0.3,0.9
			c0.2,0.2,0.5,0.3,0.8,0.3c0.3,0,0.6-0.1,0.8-0.3c0.2-0.2,0.3-0.5,0.3-0.9c0-0.4-0.1-0.7-0.3-0.9C105.1,77.3,104.9,77.2,104.5,77.2
			z M108.5,77.2c0.1-0.3,0.3-0.5,0.5-0.6c0.2-0.1,0.5-0.2,0.8-0.2v0.9c-0.4,0-0.7,0.1-1,0.3c-0.2,0.2-0.4,0.5-0.4,0.9v1.9h-1v-4h1
			V77.2z M112.8,80.4v-0.5c-0.1,0.2-0.3,0.3-0.5,0.4c-0.2,0.1-0.5,0.1-0.8,0.1c-0.3,0-0.5-0.1-0.7-0.2c-0.2-0.1-0.4-0.3-0.5-0.5
			s-0.2-0.4-0.2-0.6c0-0.4,0.1-0.7,0.4-0.9c0.3-0.2,0.6-0.3,1.1-0.3h1.2v-0.1c0-0.2-0.1-0.4-0.2-0.5c-0.2-0.1-0.4-0.2-0.7-0.2
			c-0.4,0-0.8,0.1-1.2,0.4l-0.4-0.7c0.3-0.2,0.6-0.3,0.9-0.4c0.3-0.1,0.6-0.1,0.9-0.1c0.5,0,0.9,0.1,1.2,0.4
			c0.3,0.3,0.4,0.6,0.4,1.1l0,2.6H112.8z M111.7,79.7c0.3,0,0.5-0.1,0.7-0.2c0.2-0.1,0.3-0.3,0.3-0.5v-0.4h-1c-0.3,0-0.5,0-0.6,0.1
			c-0.1,0.1-0.2,0.2-0.2,0.4c0,0.2,0.1,0.3,0.2,0.4C111.3,79.7,111.5,79.7,111.7,79.7z M117.2,80.2c-0.3,0.2-0.7,0.3-1,0.3
			c-0.3,0-0.6-0.1-0.8-0.3c-0.2-0.2-0.3-0.5-0.3-0.9v-2h-0.6l0-0.7h0.6v-1.1h1v1.1h1.1v0.7h-1.1v1.8c0,0.2,0,0.3,0.1,0.4
			c0.1,0.1,0.2,0.1,0.3,0.1c0.2,0,0.3-0.1,0.6-0.2L117.2,80.2z M119.6,76.4c0.4,0,0.8,0.1,1.1,0.3c0.3,0.2,0.6,0.4,0.7,0.7
			c0.2,0.3,0.3,0.7,0.3,1.1c0,0.4-0.1,0.8-0.3,1.1c-0.2,0.3-0.4,0.6-0.7,0.7c-0.3,0.2-0.7,0.3-1.1,0.3c-0.4,0-0.8-0.1-1.1-0.3
			c-0.3-0.2-0.6-0.4-0.8-0.7c-0.2-0.3-0.3-0.7-0.3-1.1c0-0.4,0.1-0.8,0.3-1.1c0.2-0.3,0.4-0.6,0.8-0.7
			C118.8,76.5,119.2,76.4,119.6,76.4z M119.6,77.2c-0.3,0-0.6,0.1-0.8,0.3c-0.2,0.2-0.3,0.5-0.3,0.9c0,0.4,0.1,0.7,0.3,0.9
			c0.2,0.2,0.5,0.3,0.8,0.3c0.3,0,0.6-0.1,0.8-0.3c0.2-0.2,0.3-0.5,0.3-0.9c0-0.4-0.1-0.7-0.3-0.9C120.2,77.3,120,77.2,119.6,77.2z
			 M123.6,77.2c0.1-0.3,0.3-0.5,0.5-0.6c0.2-0.1,0.5-0.2,0.8-0.2v0.9c-0.4,0-0.7,0.1-1,0.3c-0.2,0.2-0.4,0.5-0.4,0.9v1.9h-1v-4h1
			V77.2z M125.9,79.4c0.1,0,0.3,0,0.4,0.1c0.1,0.1,0.2,0.2,0.2,0.4c0,0.1,0,0.1,0,0.2c0,0.1-0.1,0.1-0.1,0.2l-0.5,0.9h-0.5l0.3-0.9
			c-0.2-0.1-0.2-0.2-0.2-0.4c0-0.2,0-0.3,0.1-0.4C125.6,79.5,125.7,79.4,125.9,79.4z M135.5,75.2h1l-1.8,5.3h-1l-1.2-4l-1.2,4h-1
			l-1.8-5.3h1.1l1.2,4.2l1.2-4.2h1l1.2,4.2L135.5,75.2z M139.2,80.4v-0.5c-0.1,0.2-0.3,0.3-0.5,0.4c-0.2,0.1-0.5,0.1-0.8,0.1
			c-0.3,0-0.5-0.1-0.7-0.2c-0.2-0.1-0.4-0.3-0.5-0.5c-0.1-0.2-0.2-0.4-0.2-0.6c0-0.4,0.1-0.7,0.4-0.9c0.3-0.2,0.6-0.3,1.1-0.3h1.2
			v-0.1c0-0.2-0.1-0.4-0.2-0.5c-0.2-0.1-0.4-0.2-0.7-0.2c-0.4,0-0.8,0.1-1.2,0.4l-0.4-0.7c0.3-0.2,0.6-0.3,0.9-0.4
			c0.3-0.1,0.6-0.1,0.9-0.1c0.5,0,0.9,0.1,1.2,0.4c0.3,0.3,0.4,0.6,0.4,1.1l0,2.6H139.2z M138.1,79.7c0.3,0,0.5-0.1,0.7-0.2
			c0.2-0.1,0.3-0.3,0.3-0.5v-0.4h-1c-0.3,0-0.5,0-0.6,0.1c-0.1,0.1-0.2,0.2-0.2,0.4c0,0.2,0.1,0.3,0.2,0.4
			C137.7,79.7,137.9,79.7,138.1,79.7z M143.6,80.2c-0.3,0.2-0.7,0.3-1,0.3c-0.3,0-0.6-0.1-0.8-0.3c-0.2-0.2-0.3-0.5-0.3-0.9v-2h-0.6
			l0-0.7h0.6v-1.1h1v1.1h1.1v0.7h-1.1v1.8c0,0.2,0,0.3,0.1,0.4c0.1,0.1,0.2,0.1,0.3,0.1c0.2,0,0.3-0.1,0.6-0.2L143.6,80.2z
			 M146,76.4c0.6,0,1.1,0.2,1.4,0.5c0.3,0.4,0.5,0.9,0.5,1.5c0,0.1,0,0.2,0,0.3h-3c0.1,0.3,0.2,0.5,0.4,0.7c0.2,0.2,0.5,0.2,0.8,0.2
			c0.2,0,0.4,0,0.6-0.1c0.2-0.1,0.4-0.2,0.5-0.3l0.5,0.5c-0.2,0.2-0.4,0.4-0.7,0.5c-0.3,0.1-0.6,0.2-1,0.2c-0.4,0-0.8-0.1-1.1-0.3
			c-0.3-0.2-0.6-0.4-0.7-0.7c-0.2-0.3-0.3-0.7-0.3-1.1s0.1-0.8,0.3-1.1c0.2-0.3,0.4-0.6,0.7-0.7C145.2,76.5,145.6,76.4,146,76.4z
			 M147,78.1c0-0.3-0.1-0.5-0.3-0.7c-0.2-0.2-0.4-0.3-0.7-0.3c-0.3,0-0.5,0.1-0.7,0.3c-0.2,0.2-0.3,0.4-0.4,0.7H147z M149.7,77.2
			c0.1-0.3,0.3-0.5,0.5-0.6c0.2-0.1,0.5-0.2,0.8-0.2v0.9c-0.4,0-0.7,0.1-1,0.3c-0.2,0.2-0.4,0.5-0.4,0.9v1.9h-1v-4h1V77.2z
			 M154.2,76.4c0.4,0,0.7,0.1,1,0.3c0.3,0.2,0.5,0.4,0.7,0.7c0.2,0.3,0.2,0.7,0.2,1.1c0,0.4-0.1,0.8-0.2,1.1
			c-0.2,0.3-0.4,0.5-0.7,0.7c-0.3,0.2-0.6,0.3-1,0.3c-0.3,0-0.6-0.1-0.8-0.2c-0.2-0.1-0.4-0.3-0.6-0.5v2.1h-1v-5.5h1v0.7
			c0.1-0.2,0.3-0.4,0.6-0.5C153.6,76.5,153.9,76.4,154.2,76.4z M153.9,79.6c0.3,0,0.6-0.1,0.8-0.3c0.2-0.2,0.3-0.5,0.3-0.9
			c0-0.4-0.1-0.6-0.3-0.9c-0.2-0.2-0.5-0.3-0.8-0.3c-0.3,0-0.6,0.1-0.8,0.3c-0.2,0.2-0.3,0.5-0.3,0.9c0,0.4,0.1,0.7,0.3,0.9
			C153.3,79.5,153.6,79.6,153.9,79.6z M157.9,77.2c0.1-0.3,0.3-0.5,0.5-0.6c0.2-0.1,0.5-0.2,0.8-0.2v0.9c-0.4,0-0.7,0.1-1,0.3
			c-0.2,0.2-0.4,0.5-0.4,0.9v1.9h-1v-4h1V77.2z M161.7,76.4c0.4,0,0.8,0.1,1.1,0.3c0.3,0.2,0.6,0.4,0.7,0.7c0.2,0.3,0.3,0.7,0.3,1.1
			c0,0.4-0.1,0.8-0.3,1.1c-0.2,0.3-0.4,0.6-0.7,0.7c-0.3,0.2-0.7,0.3-1.1,0.3c-0.4,0-0.8-0.1-1.1-0.3c-0.3-0.2-0.6-0.4-0.8-0.7
			c-0.2-0.3-0.3-0.7-0.3-1.1c0-0.4,0.1-0.8,0.3-1.1c0.2-0.3,0.4-0.6,0.8-0.7C160.9,76.5,161.3,76.4,161.7,76.4z M161.7,77.2
			c-0.3,0-0.6,0.1-0.8,0.3c-0.2,0.2-0.3,0.5-0.3,0.9c0,0.4,0.1,0.7,0.3,0.9c0.2,0.2,0.5,0.3,0.8,0.3c0.3,0,0.6-0.1,0.8-0.3
			c0.2-0.2,0.3-0.5,0.3-0.9c0-0.4-0.1-0.7-0.3-0.9C162.3,77.3,162,77.2,161.7,77.2z M166.4,76.4c0.4,0,0.8,0.1,1.1,0.3
			c0.3,0.2,0.6,0.4,0.7,0.7c0.2,0.3,0.3,0.7,0.3,1.1c0,0.4-0.1,0.8-0.3,1.1c-0.2,0.3-0.4,0.6-0.7,0.7c-0.3,0.2-0.7,0.3-1.1,0.3
			c-0.4,0-0.8-0.1-1.1-0.3c-0.3-0.2-0.6-0.4-0.8-0.7c-0.2-0.3-0.3-0.7-0.3-1.1c0-0.4,0.1-0.8,0.3-1.1c0.2-0.3,0.4-0.6,0.8-0.7
			C165.6,76.5,166,76.4,166.4,76.4z M166.4,77.2c-0.3,0-0.6,0.1-0.8,0.3c-0.2,0.2-0.3,0.5-0.3,0.9c0,0.4,0.1,0.7,0.3,0.9
			c0.2,0.2,0.5,0.3,0.8,0.3c0.3,0,0.6-0.1,0.8-0.3c0.2-0.2,0.3-0.5,0.3-0.9c0-0.4-0.1-0.7-0.3-0.9C167,77.3,166.7,77.2,166.4,77.2z
			 M171,75.7c-0.2,0-0.3,0-0.4,0.1c-0.1,0.1-0.1,0.2-0.1,0.4v0.4h1v0.7h-1v3.1h-1v-3.1H169v-0.7h0.5v-0.4c0-0.3,0.1-0.5,0.2-0.8
			c0.1-0.2,0.3-0.4,0.5-0.5c0.2-0.1,0.5-0.2,0.7-0.2c0.2,0,0.5,0.1,0.7,0.2l-0.2,0.8C171.3,75.7,171.1,75.7,171,75.7z M172,76.4h1v4
			h-1V76.4z M172.5,74.7c0.2,0,0.3,0.1,0.4,0.2c0.1,0.1,0.2,0.3,0.2,0.4c0,0.2-0.1,0.3-0.2,0.4c-0.1,0.1-0.2,0.2-0.4,0.2
			c-0.2,0-0.3-0.1-0.4-0.2c-0.1-0.1-0.2-0.2-0.2-0.4c0-0.2,0.1-0.3,0.2-0.4C172.2,74.8,172.4,74.7,172.5,74.7z M176.6,76.4
			c0.5,0,0.8,0.1,1.1,0.4c0.3,0.3,0.4,0.7,0.4,1.1v2.5h-1v-2.2c0-0.3-0.1-0.5-0.2-0.7c-0.2-0.2-0.4-0.2-0.7-0.2
			c-0.3,0-0.6,0.1-0.8,0.3c-0.2,0.2-0.3,0.5-0.3,0.8v2h-1v-4h1v0.8C175.5,76.7,176,76.4,176.6,76.4z M182.9,76.4v3.6
			c0,0.4-0.1,0.7-0.3,1c-0.2,0.3-0.4,0.5-0.7,0.7c-0.3,0.2-0.7,0.2-1.1,0.2c-0.6,0-1.2-0.2-1.7-0.5l0.4-0.7c0.4,0.3,0.8,0.4,1.3,0.4
			c0.4,0,0.6-0.1,0.9-0.3c0.2-0.2,0.3-0.4,0.3-0.8v-0.5c-0.1,0.2-0.3,0.4-0.5,0.5c-0.2,0.1-0.5,0.2-0.8,0.2c-0.4,0-0.7-0.1-0.9-0.2
			c-0.3-0.2-0.5-0.4-0.6-0.7c-0.2-0.3-0.2-0.6-0.2-1c0-0.4,0.1-0.7,0.2-1c0.1-0.3,0.4-0.5,0.6-0.7c0.3-0.2,0.6-0.2,0.9-0.2
			c0.3,0,0.5,0.1,0.7,0.2c0.2,0.1,0.4,0.3,0.5,0.5v-0.6H182.9z M180.8,79.5c0.3,0,0.6-0.1,0.8-0.3c0.2-0.2,0.3-0.5,0.3-0.8
			c0-0.3-0.1-0.6-0.3-0.8c-0.2-0.2-0.4-0.3-0.8-0.3s-0.6,0.1-0.8,0.3c-0.2,0.2-0.3,0.5-0.3,0.8c0,0.3,0.1,0.6,0.3,0.8
			C180.3,79.4,180.5,79.5,180.8,79.5z M57.9,86.2h4.3v0.9h-1.6v4.4h-1v-4.4h-1.6V86.2z M64,87.4c0.6,0,1.1,0.2,1.4,0.5
			c0.3,0.4,0.5,0.9,0.5,1.5c0,0.1,0,0.2,0,0.3h-3c0.1,0.3,0.2,0.5,0.4,0.7c0.2,0.2,0.5,0.2,0.8,0.2c0.2,0,0.4,0,0.6-0.1
			c0.2-0.1,0.4-0.2,0.5-0.3l0.5,0.5c-0.2,0.2-0.4,0.4-0.7,0.5c-0.3,0.1-0.6,0.2-1,0.2c-0.4,0-0.8-0.1-1.1-0.3
			c-0.3-0.2-0.6-0.4-0.7-0.7c-0.2-0.3-0.3-0.7-0.3-1.1s0.1-0.8,0.3-1.1c0.2-0.3,0.4-0.6,0.7-0.7C63.2,87.5,63.6,87.4,64,87.4z
			 M65,89.1c0-0.3-0.1-0.5-0.3-0.7c-0.2-0.2-0.4-0.3-0.7-0.3c-0.3,0-0.5,0.1-0.7,0.3c-0.2,0.2-0.3,0.4-0.4,0.7H65z M69.5,88.7
			c-0.3-0.3-0.6-0.4-1.1-0.4c-0.3,0-0.6,0.1-0.8,0.3c-0.2,0.2-0.3,0.5-0.3,0.9c0,0.4,0.1,0.7,0.3,0.9c0.2,0.2,0.5,0.3,0.8,0.3
			c0.5,0,0.8-0.2,1.1-0.5l0.6,0.5c-0.2,0.3-0.4,0.5-0.7,0.6c-0.3,0.1-0.6,0.2-1,0.2c-0.4,0-0.7-0.1-1.1-0.3
			c-0.3-0.2-0.5-0.4-0.7-0.7c-0.2-0.3-0.3-0.7-0.3-1.1c0-0.4,0.1-0.8,0.3-1.1c0.2-0.3,0.4-0.6,0.7-0.7c0.3-0.2,0.7-0.3,1.1-0.3
			c0.4,0,0.7,0.1,1,0.2c0.3,0.1,0.5,0.3,0.7,0.5L69.5,88.7z M73.4,87.4c0.5,0,0.8,0.1,1.1,0.4c0.3,0.3,0.4,0.7,0.4,1.1v2.5h-1v-2.2
			c0-0.3-0.1-0.5-0.2-0.7c-0.2-0.2-0.4-0.2-0.7-0.2c-0.3,0-0.6,0.1-0.8,0.3c-0.2,0.2-0.3,0.5-0.3,0.8v2h-1v-5.6h1v2.3
			C72.3,87.7,72.8,87.4,73.4,87.4z M78.4,87.4c0.5,0,0.8,0.1,1.1,0.4c0.3,0.3,0.4,0.7,0.4,1.1v2.5h-1v-2.2c0-0.3-0.1-0.5-0.2-0.7
			c-0.2-0.2-0.4-0.2-0.7-0.2c-0.3,0-0.6,0.1-0.8,0.3c-0.2,0.2-0.3,0.5-0.3,0.8v2h-1v-4h1v0.8C77.3,87.7,77.8,87.4,78.4,87.4z
			 M81,87.4h1v4h-1V87.4z M81.5,85.7c0.2,0,0.3,0.1,0.4,0.2c0.1,0.1,0.2,0.3,0.2,0.4c0,0.2-0.1,0.3-0.2,0.4
			c-0.1,0.1-0.2,0.2-0.4,0.2c-0.2,0-0.3-0.1-0.4-0.2c-0.1-0.1-0.2-0.2-0.2-0.4c0-0.2,0.1-0.3,0.2-0.4C81.2,85.8,81.3,85.7,81.5,85.7
			z M86,88.7c-0.3-0.3-0.6-0.4-1.1-0.4c-0.3,0-0.6,0.1-0.8,0.3c-0.2,0.2-0.3,0.5-0.3,0.9c0,0.4,0.1,0.7,0.3,0.9
			c0.2,0.2,0.5,0.3,0.8,0.3c0.5,0,0.8-0.2,1.1-0.5l0.6,0.5c-0.2,0.3-0.4,0.5-0.7,0.6c-0.3,0.1-0.6,0.2-1,0.2c-0.4,0-0.7-0.1-1.1-0.3
			c-0.3-0.2-0.5-0.4-0.7-0.7c-0.2-0.3-0.3-0.7-0.3-1.1c0-0.4,0.1-0.8,0.3-1.1c0.2-0.3,0.4-0.6,0.7-0.7c0.3-0.2,0.7-0.3,1.1-0.3
			c0.4,0,0.7,0.1,1,0.2c0.3,0.1,0.5,0.3,0.7,0.5L86,88.7z M87.4,87.4h1v4h-1V87.4z M87.9,85.7c0.2,0,0.3,0.1,0.4,0.2
			c0.1,0.1,0.2,0.3,0.2,0.4c0,0.2-0.1,0.3-0.2,0.4c-0.1,0.1-0.2,0.2-0.4,0.2c-0.2,0-0.3-0.1-0.4-0.2c-0.1-0.1-0.2-0.2-0.2-0.4
			c0-0.2,0.1-0.3,0.2-0.4C87.6,85.8,87.8,85.7,87.9,85.7z M92,91.4v-0.5c-0.1,0.2-0.3,0.3-0.5,0.4c-0.2,0.1-0.5,0.1-0.8,0.1
			c-0.3,0-0.5-0.1-0.7-0.2c-0.2-0.1-0.4-0.3-0.5-0.5c-0.1-0.2-0.2-0.4-0.2-0.6c0-0.4,0.1-0.7,0.4-0.9c0.3-0.2,0.6-0.3,1.1-0.3H92
			v-0.1c0-0.2-0.1-0.4-0.2-0.5c-0.2-0.1-0.4-0.2-0.7-0.2c-0.4,0-0.8,0.1-1.2,0.4l-0.4-0.7c0.3-0.2,0.6-0.3,0.9-0.4
			c0.3-0.1,0.6-0.1,0.9-0.1c0.5,0,0.9,0.1,1.2,0.4c0.3,0.3,0.4,0.6,0.4,1.1l0,2.6H92z M90.9,90.7c0.3,0,0.5-0.1,0.7-0.2
			c0.2-0.1,0.3-0.3,0.3-0.5v-0.4h-1c-0.3,0-0.5,0-0.6,0.1c-0.1,0.1-0.2,0.2-0.2,0.4c0,0.2,0.1,0.3,0.2,0.4
			C90.5,90.7,90.7,90.7,90.9,90.7z M96.5,87.4c0.5,0,0.8,0.1,1.1,0.4c0.3,0.3,0.4,0.7,0.4,1.1v2.5h-1v-2.2c0-0.3-0.1-0.5-0.2-0.7
			c-0.2-0.2-0.4-0.2-0.7-0.2c-0.3,0-0.6,0.1-0.8,0.3c-0.2,0.2-0.3,0.5-0.3,0.8v2h-1v-4h1v0.8C95.3,87.7,95.8,87.4,96.5,87.4z
			 M102.6,85.9c-0.3,0.4-0.5,0.9-0.7,1.5c-0.2,0.6-0.2,1.1-0.2,1.7c0,0.6,0.1,1.2,0.2,1.7c0.2,0.6,0.4,1.1,0.7,1.5h-0.9
			c-0.3-0.4-0.5-0.9-0.7-1.5c-0.2-0.6-0.2-1.2-0.2-1.8c0-0.6,0.1-1.2,0.2-1.8c0.2-0.6,0.4-1.1,0.7-1.5H102.6z M103.3,86.2h1v5.3h-1
			V86.2z M109.3,86.2h1v5.3h-1l-2.7-3.6v3.6h-1v-5.3h1l2.7,3.6V86.2z M111,86.2h4.3v0.9h-1.6v4.4h-1v-4.4H111V86.2z M116,86.2h3.8
			v0.9H117v1.3h2.6v0.9H117v1.3h2.9v0.9H116V86.2z M124.2,91.4l-0.9-1.6c0,0-0.1,0-0.2,0h-1.2v1.5h-1v-5.3h2.2
			c0.7,0,1.2,0.2,1.6,0.5c0.4,0.3,0.6,0.8,0.6,1.3c0,0.4-0.1,0.8-0.3,1.1c-0.2,0.3-0.4,0.5-0.8,0.7l1.2,1.7H124.2z M121.9,89h1.2
			c0.4,0,0.7-0.1,0.9-0.2c0.2-0.2,0.3-0.4,0.3-0.7c0-0.3-0.1-0.6-0.3-0.7c-0.2-0.2-0.5-0.2-0.9-0.2h-1.2V89z M130,86.2h1v5.3h-1
			l-2.7-3.6v3.6h-1v-5.3h1l2.7,3.6V86.2z M136.2,91.4l-0.5-1.1h-2.6l-0.5,1.1h-1l2.3-5.3h1l2.3,5.3H136.2z M133.5,89.5h1.8l-0.9-2.2
			L133.5,89.5z M137.9,86.2h1v4.3h2.3v0.9h-3.3V86.2z M150.1,86.2h1l-1.8,5.3h-1l-1.2-4l-1.2,4h-1l-1.8-5.3h1.1l1.2,4.2l1.2-4.2h1
			l1.2,4.2L150.1,86.2z M151.8,86.2h3.8v0.9h-2.8v1.3h2.6v0.9h-2.6v1.3h2.9v0.9h-3.9V86.2z M156.2,86.2h4.3v0.9h-1.6v4.4h-1v-4.4
			h-1.6V86.2z M166.9,91.4l-0.5-1.1h-2.6l-0.5,1.1h-1l2.3-5.3h1l2.3,5.3H166.9z M164.3,89.5h1.8l-0.9-2.2L164.3,89.5z M171.9,91.4
			l-0.9-1.6c0,0-0.1,0-0.2,0h-1.2v1.5h-1v-5.3h2.2c0.7,0,1.2,0.2,1.6,0.5c0.4,0.3,0.6,0.8,0.6,1.3c0,0.4-0.1,0.8-0.3,1.1
			c-0.2,0.3-0.4,0.5-0.8,0.7l1.2,1.7H171.9z M169.7,89h1.2c0.4,0,0.7-0.1,0.9-0.2c0.2-0.2,0.3-0.4,0.3-0.7c0-0.3-0.1-0.6-0.3-0.7
			c-0.2-0.2-0.5-0.2-0.9-0.2h-1.2V89z M174.1,86.2h3.8v0.9h-2.8v1.3h2.6v0.9h-2.6v1.3h2.9v0.9h-3.9V86.2z M182.9,91.4l-0.5-1.1h-2.6
			l-0.5,1.1h-1l2.3-5.3h1l2.3,5.3H182.9z M180.3,89.5h1.8l-0.9-2.2L180.3,89.5z M187.9,87.5c-0.3-0.2-0.5-0.3-0.8-0.4
			c-0.3-0.1-0.5-0.1-0.7-0.1c-0.2,0-0.4,0-0.6,0.1c-0.1,0.1-0.2,0.2-0.2,0.4c0,0.1,0,0.3,0.1,0.4c0.1,0.1,0.2,0.2,0.4,0.2
			c0.1,0.1,0.4,0.1,0.6,0.2c0.4,0.1,0.6,0.2,0.9,0.3c0.2,0.1,0.4,0.3,0.6,0.5c0.2,0.2,0.2,0.5,0.2,0.8c0,0.3-0.1,0.6-0.3,0.8
			c-0.2,0.2-0.4,0.4-0.7,0.5c-0.3,0.1-0.6,0.2-1,0.2c-0.4,0-0.8-0.1-1.2-0.2c-0.4-0.2-0.7-0.4-1-0.6l0.4-0.9
			c0.3,0.2,0.6,0.4,0.9,0.6c0.3,0.1,0.6,0.2,0.9,0.2c0.3,0,0.5-0.1,0.7-0.2c0.2-0.1,0.2-0.3,0.2-0.4c0-0.2-0.1-0.3-0.1-0.4
			c-0.1-0.1-0.2-0.2-0.4-0.2c-0.1-0.1-0.4-0.1-0.6-0.2c-0.4-0.1-0.6-0.2-0.9-0.3c-0.2-0.1-0.4-0.3-0.6-0.5c-0.2-0.2-0.2-0.5-0.2-0.8
			c0-0.3,0.1-0.6,0.2-0.8c0.2-0.2,0.4-0.4,0.7-0.5c0.3-0.1,0.6-0.2,1-0.2c0.3,0,0.7,0.1,1,0.2c0.3,0.1,0.6,0.2,0.9,0.4L187.9,87.5z
			 M193.6,86.1c0.5,0,1,0.1,1.4,0.4c0.4,0.2,0.8,0.6,1,1c0.2,0.4,0.4,0.9,0.4,1.4c0,0.5-0.1,1-0.4,1.4c-0.2,0.4-0.6,0.7-1,1
			c-0.4,0.2-0.9,0.4-1.4,0.4c-0.5,0-1-0.1-1.4-0.4c-0.4-0.2-0.8-0.6-1-1c-0.2-0.4-0.4-0.9-0.4-1.4c0-0.5,0.1-1,0.4-1.4
			c0.2-0.4,0.6-0.7,1-1C192.6,86.2,193,86.1,193.6,86.1z M193.6,87c-0.3,0-0.6,0.1-0.9,0.2c-0.3,0.2-0.5,0.4-0.7,0.6
			c-0.2,0.3-0.2,0.6-0.2,0.9c0,0.3,0.1,0.6,0.2,0.9c0.2,0.3,0.4,0.5,0.7,0.7c0.3,0.2,0.6,0.2,0.9,0.2c0.3,0,0.6-0.1,0.9-0.2
			c0.3-0.2,0.5-0.4,0.6-0.7c0.2-0.3,0.2-0.6,0.2-0.9c0-0.3-0.1-0.6-0.2-0.9c-0.2-0.3-0.4-0.5-0.6-0.6C194.2,87.1,193.9,87,193.6,87z
			 M200.9,86.2h1v5.3h-1l-2.7-3.6v3.6h-1v-5.3h1l2.7,3.6V86.2z M203.2,86.2h1v4.3h2.3v0.9h-3.3V86.2z M211.4,86.2l-1.9,3.5v1.7h-1
			v-1.7l-2-3.6h1l1.4,2.5l1.4-2.5H211.4z M212.4,85.9c0.3,0.4,0.5,0.9,0.7,1.5c0.2,0.6,0.2,1.1,0.2,1.8c0,0.6-0.1,1.2-0.2,1.8
			c-0.2,0.6-0.4,1-0.7,1.5h-0.9c0.3-0.4,0.5-0.9,0.7-1.5c0.2-0.6,0.2-1.1,0.2-1.7c0-0.6-0.1-1.2-0.2-1.7c-0.2-0.6-0.4-1.1-0.7-1.5
			H212.4z"/>
		<path class="st3" d="M61.7,115.1c0.5,0,1,0.1,1.3,0.2c0.4,0.1,0.7,0.3,0.9,0.6c0.2,0.3,0.3,0.6,0.3,0.9c0,0.4-0.1,0.7-0.3,0.9
			c-0.2,0.3-0.5,0.4-0.9,0.5c0.4,0.1,0.8,0.3,1,0.6c0.3,0.3,0.4,0.7,0.4,1.1c0,0.4-0.1,0.7-0.3,1c-0.2,0.3-0.5,0.5-0.9,0.7
			c-0.4,0.1-0.9,0.2-1.4,0.2h-3.4v-6.8H61.7z M61.6,117.8c0.2,0,0.4-0.1,0.6-0.2c0.1-0.1,0.2-0.3,0.2-0.5c0-0.2-0.1-0.4-0.2-0.5
			c-0.1-0.1-0.3-0.2-0.6-0.2h-1.4v1.3H61.6z M61.6,120.6c0.3,0,0.6-0.1,0.7-0.2c0.2-0.1,0.3-0.3,0.3-0.5c0-0.2-0.1-0.4-0.3-0.5
			c-0.2-0.1-0.4-0.2-0.7-0.2h-1.4v1.4H61.6z M70,122l-1-1.9h0h-1.3v1.9h-1.8v-6.8h3.1c0.9,0,1.6,0.2,2.1,0.6c0.5,0.4,0.8,1,0.8,1.8
			c0,0.5-0.1,1-0.3,1.3c-0.2,0.4-0.5,0.7-0.9,0.9L72,122H70z M67.6,118.6h1.3c0.4,0,0.6-0.1,0.8-0.3c0.2-0.2,0.3-0.4,0.3-0.8
			c0-0.3-0.1-0.6-0.3-0.8c-0.2-0.2-0.5-0.3-0.8-0.3h-1.3V118.6z M73.3,115.1h5.4v1.4h-3.6v1.3h3.3v1.4l-3.3,0v1.3h3.7v1.4h-5.5
			V115.1z M84.9,115.1h1.7v6.8H85l-3.1-4.1v4.1h-1.7v-6.8h1.6l3.1,4.1L84.9,115.1z M91.3,115.1c0.7,0,1.3,0.1,1.9,0.4
			c0.6,0.3,1,0.7,1.3,1.2c0.3,0.5,0.5,1.1,0.5,1.8c0,0.7-0.2,1.3-0.5,1.8c-0.3,0.5-0.7,0.9-1.3,1.2c-0.6,0.3-1.2,0.4-1.9,0.4h-2.9
			v-6.8H91.3z M91.3,120.5c0.3,0,0.7-0.1,0.9-0.2c0.3-0.2,0.5-0.4,0.6-0.7c0.1-0.3,0.2-0.6,0.2-1c0-0.4-0.1-0.7-0.2-1
			c-0.2-0.3-0.4-0.5-0.7-0.7c-0.3-0.2-0.6-0.3-1-0.3h-1.1v3.9H91.3z M101,122l-0.5-1.2h-3l-0.5,1.2h-1.8l2.9-6.8h1.8l2.9,6.8H101z
			 M98.1,119.4h1.9l-0.9-2.4L98.1,119.4z M108.6,115.1h1.7v6.8h-1.6l-3.1-4.1v4.1h-1.7v-6.8h1.6l3.1,4.1L108.6,115.1z M119.3,117.2
			c-0.4-0.2-0.8-0.4-1.2-0.5c-0.4-0.1-0.8-0.2-1-0.2c-0.2,0-0.4,0-0.5,0.1c-0.1,0.1-0.2,0.2-0.2,0.4c0,0.2,0.1,0.3,0.2,0.4
			c0.1,0.1,0.2,0.2,0.4,0.2c0.2,0.1,0.4,0.1,0.7,0.2c0.5,0.1,0.9,0.3,1.2,0.4c0.3,0.1,0.6,0.3,0.8,0.6c0.2,0.3,0.3,0.6,0.3,1.1
			c0,0.5-0.1,0.8-0.4,1.2c-0.2,0.3-0.6,0.6-1,0.7c-0.4,0.2-0.9,0.2-1.4,0.2c-0.6,0-1.1-0.1-1.7-0.3c-0.6-0.2-1-0.5-1.5-0.8l0.7-1.4
			c0.3,0.3,0.8,0.6,1.2,0.8c0.5,0.2,0.9,0.3,1.3,0.3c0.3,0,0.5,0,0.6-0.1c0.2-0.1,0.2-0.2,0.2-0.4c0-0.2-0.1-0.3-0.2-0.4
			c-0.1-0.1-0.3-0.2-0.4-0.2c-0.2-0.1-0.4-0.1-0.7-0.2c-0.5-0.1-0.9-0.3-1.2-0.4c-0.3-0.1-0.6-0.3-0.8-0.6c-0.2-0.3-0.3-0.6-0.3-1.1
			c0-0.4,0.1-0.8,0.3-1.1c0.2-0.3,0.5-0.6,1-0.7c0.4-0.2,0.9-0.3,1.4-0.3c0.5,0,1,0.1,1.5,0.2c0.5,0.1,0.9,0.3,1.3,0.6L119.3,117.2z
			 M121.2,115.1h1.9l2,4l2-4h1.9v6.8h-1.6l0-4.3l-1.7,3.6h-1.2l-1.8-3.6v4.3h-1.6V115.1z M130.8,115.1h1.8v6.8h-1.8V115.1z
			 M133.7,115.1h5.9v1.5h-2v5.4h-1.8v-5.4h-2V115.1z M140.7,115.1h1.8v2.8h2.8v-2.8h1.8v6.8h-1.8v-2.6h-2.8v2.6h-1.8V115.1z"/>
		<path class="st3" d="M63.4,143.5v1.4h-5.2l0-1.2l2.5-2.6c0.2-0.2,0.4-0.4,0.5-0.6c0.1-0.2,0.2-0.4,0.2-0.5c0-0.2-0.1-0.3-0.2-0.4
			c-0.1-0.1-0.3-0.2-0.6-0.2c-0.3,0-0.6,0.1-0.9,0.2c-0.3,0.2-0.7,0.4-1,0.6l-0.7-1.3c0.9-0.7,1.9-1,2.8-1c0.5,0,0.9,0.1,1.2,0.2
			c0.4,0.1,0.6,0.4,0.8,0.6c0.2,0.3,0.3,0.6,0.3,0.9c0,0.4-0.1,0.7-0.4,1.1c-0.2,0.4-0.6,0.8-1,1.2l-1.4,1.4H63.4z M67.8,140.9
			c0.6,0.1,1,0.3,1.3,0.6c0.3,0.3,0.5,0.7,0.5,1.3c0,0.4-0.1,0.8-0.3,1.2s-0.5,0.6-1,0.8c-0.4,0.2-0.9,0.3-1.5,0.3
			c-0.5,0-1-0.1-1.5-0.2c-0.5-0.2-0.9-0.4-1.2-0.6l0.7-1.3c0.3,0.2,0.6,0.4,0.9,0.5c0.3,0.1,0.7,0.2,1,0.2c0.4,0,0.7-0.1,0.9-0.2
			c0.2-0.1,0.3-0.4,0.3-0.6c0-0.3-0.1-0.5-0.3-0.6c-0.2-0.1-0.5-0.2-0.9-0.2h-1.2v-1l1.6-1.5h-2.6v-1.4h4.8v1l-1.9,1.7L67.8,140.9z
			 M76.8,138.1c0.5,0,1,0.1,1.3,0.2c0.4,0.1,0.7,0.3,0.9,0.6c0.2,0.3,0.3,0.6,0.3,0.9c0,0.4-0.1,0.7-0.3,0.9
			c-0.2,0.3-0.5,0.4-0.9,0.5c0.4,0.1,0.8,0.3,1,0.6c0.3,0.3,0.4,0.7,0.4,1.1c0,0.4-0.1,0.7-0.3,1c-0.2,0.3-0.5,0.5-0.9,0.7
			c-0.4,0.1-0.9,0.2-1.4,0.2h-3.4v-6.8H76.8z M76.7,140.9c0.2,0,0.4-0.1,0.6-0.2c0.1-0.1,0.2-0.3,0.2-0.5c0-0.2-0.1-0.4-0.2-0.5
			c-0.1-0.1-0.3-0.2-0.6-0.2h-1.4v1.3H76.7z M76.7,143.6c0.3,0,0.6-0.1,0.7-0.2c0.2-0.1,0.3-0.3,0.3-0.5c0-0.2-0.1-0.4-0.3-0.5
			c-0.2-0.1-0.4-0.2-0.7-0.2h-1.4v1.4H76.7z M86,145l-0.5-1.2h-3l-0.5,1.2h-1.8l2.9-6.8H85l2.9,6.8H86z M83.1,142.4H85l-0.9-2.4
			L83.1,142.4z M93.6,138.1h1.7v6.8h-1.6l-3.1-4.1v4.1h-1.7v-6.8h1.6l3.1,4.1L93.6,138.1z M103.5,145h-2.1l-1.8-2.7l-0.9,1v1.7H97
			v-6.8h1.8v3l2.6-3h2.1l-2.5,2.8L103.5,145z M109.4,140.2c-0.4-0.2-0.8-0.4-1.2-0.5c-0.4-0.1-0.8-0.2-1-0.2c-0.2,0-0.4,0-0.5,0.1
			c-0.1,0.1-0.2,0.2-0.2,0.4c0,0.1,0.1,0.3,0.2,0.4c0.1,0.1,0.2,0.2,0.4,0.2c0.2,0.1,0.4,0.1,0.7,0.2c0.5,0.1,0.9,0.3,1.2,0.4
			c0.3,0.1,0.6,0.3,0.8,0.6c0.2,0.3,0.3,0.6,0.3,1.1s-0.1,0.8-0.4,1.2c-0.2,0.3-0.6,0.6-1,0.7c-0.4,0.2-0.9,0.2-1.4,0.2
			c-0.6,0-1.1-0.1-1.7-0.3c-0.6-0.2-1-0.5-1.5-0.8l0.7-1.4c0.3,0.3,0.8,0.6,1.2,0.8c0.5,0.2,0.9,0.3,1.3,0.3c0.3,0,0.5,0,0.6-0.1
			c0.2-0.1,0.2-0.2,0.2-0.4c0-0.2-0.1-0.3-0.2-0.4c-0.1-0.1-0.3-0.2-0.4-0.2c-0.2-0.1-0.4-0.1-0.7-0.2c-0.5-0.1-0.9-0.3-1.2-0.4
			c-0.3-0.1-0.6-0.3-0.8-0.6c-0.2-0.3-0.3-0.6-0.3-1.1c0-0.4,0.1-0.8,0.3-1.1c0.2-0.3,0.5-0.6,1-0.7c0.4-0.2,0.9-0.3,1.4-0.3
			c0.5,0,1,0.1,1.5,0.2c0.5,0.1,0.9,0.3,1.3,0.6L109.4,140.2z M111.3,138.1h1.8v6.8h-1.8V138.1z M119.9,145l-0.5-1.2h-3L116,145
			h-1.8l2.9-6.8h1.8l2.9,6.8H119.9z M117,142.4h1.9l-0.9-2.4L117,142.4z M130,140.2c-0.4-0.2-0.8-0.4-1.2-0.5
			c-0.4-0.1-0.8-0.2-1-0.2c-0.2,0-0.4,0-0.5,0.1c-0.1,0.1-0.2,0.2-0.2,0.4c0,0.1,0.1,0.3,0.2,0.4c0.1,0.1,0.2,0.2,0.4,0.2
			c0.2,0.1,0.4,0.1,0.7,0.2c0.5,0.1,0.9,0.3,1.2,0.4c0.3,0.1,0.6,0.3,0.8,0.6c0.2,0.3,0.3,0.6,0.3,1.1s-0.1,0.8-0.4,1.2
			c-0.2,0.3-0.6,0.6-1,0.7c-0.4,0.2-0.9,0.2-1.4,0.2c-0.6,0-1.1-0.1-1.7-0.3c-0.6-0.2-1-0.5-1.5-0.8l0.7-1.4
			c0.3,0.3,0.8,0.6,1.2,0.8c0.5,0.2,0.9,0.3,1.3,0.3c0.3,0,0.5,0,0.6-0.1c0.2-0.1,0.2-0.2,0.2-0.4c0-0.2-0.1-0.3-0.2-0.4
			c-0.1-0.1-0.3-0.2-0.4-0.2c-0.2-0.1-0.4-0.1-0.7-0.2c-0.5-0.1-0.9-0.3-1.2-0.4c-0.3-0.1-0.6-0.3-0.8-0.6c-0.2-0.3-0.3-0.6-0.3-1.1
			c0-0.4,0.1-0.8,0.3-1.1c0.2-0.3,0.5-0.6,1-0.7c0.4-0.2,0.9-0.3,1.4-0.3c0.5,0,1,0.1,1.5,0.2c0.5,0.1,0.9,0.3,1.3,0.6L130,140.2z
			 M131.4,138.1h5.9v1.5h-2v5.4h-1.8v-5.4h-2V138.1z M63.4,152.5c-0.2-0.3-0.5-0.5-0.8-0.7c-0.3-0.2-0.6-0.3-0.9-0.3
			c-0.3,0-0.7,0.1-0.9,0.3c-0.3,0.2-0.5,0.4-0.7,0.7c-0.2,0.3-0.2,0.6-0.2,1c0,0.4,0.1,0.7,0.2,1c0.2,0.3,0.4,0.5,0.7,0.7
			c0.3,0.2,0.6,0.3,0.9,0.3c0.3,0,0.6-0.1,0.9-0.2c0.3-0.1,0.6-0.3,0.8-0.6l1,1.1c-0.4,0.4-0.8,0.7-1.3,0.9c-0.5,0.2-1,0.3-1.5,0.3
			c-0.7,0-1.3-0.2-1.8-0.5c-0.5-0.3-1-0.7-1.3-1.3c-0.3-0.5-0.5-1.1-0.5-1.8c0-0.7,0.2-1.3,0.5-1.8c0.3-0.5,0.8-1,1.3-1.3
			c0.6-0.3,1.2-0.5,1.9-0.5c0.5,0,1,0.1,1.5,0.3c0.5,0.2,0.9,0.5,1.3,0.9L63.4,152.5z M68.8,150c0.7,0,1.3,0.2,1.9,0.5
			c0.6,0.3,1,0.7,1.3,1.3c0.3,0.5,0.5,1.1,0.5,1.8c0,0.7-0.2,1.3-0.5,1.8c-0.3,0.5-0.8,1-1.3,1.3c-0.6,0.3-1.2,0.5-1.9,0.5
			c-0.7,0-1.3-0.2-1.9-0.5c-0.6-0.3-1-0.7-1.3-1.3c-0.3-0.5-0.5-1.2-0.5-1.8c0-0.7,0.2-1.3,0.5-1.8c0.3-0.5,0.8-1,1.3-1.3
			C67.4,150.2,68.1,150,68.8,150z M68.8,151.5c-0.3,0-0.7,0.1-0.9,0.3c-0.3,0.2-0.5,0.4-0.7,0.7c-0.2,0.3-0.3,0.6-0.3,1
			c0,0.4,0.1,0.7,0.3,1c0.2,0.3,0.4,0.6,0.7,0.7c0.3,0.2,0.6,0.3,0.9,0.3c0.3,0,0.6-0.1,0.9-0.3c0.3-0.2,0.5-0.4,0.7-0.7
			c0.2-0.3,0.2-0.7,0.2-1c0-0.4-0.1-0.7-0.2-1c-0.2-0.3-0.4-0.6-0.7-0.7C69.4,151.6,69.1,151.5,68.8,151.5z M73.7,150.1h1.8v5.3h2.9
			v1.5h-4.7V150.1z M79.6,150.1h1.8v5.3h2.9v1.5h-4.7V150.1z M90.6,157l-0.5-1.2h-3l-0.5,1.2h-1.8l2.9-6.8h1.8l2.9,6.8H90.6z
			 M87.7,154.4h1.9l-0.9-2.4L87.7,154.4z M97.6,157l-1-1.9h0h-1.3v1.9h-1.8v-6.8h3.1c0.9,0,1.6,0.2,2.1,0.6c0.5,0.4,0.8,1,0.8,1.8
			c0,0.5-0.1,1-0.3,1.3c-0.2,0.4-0.5,0.7-0.9,0.9l1.4,2.2H97.6z M95.3,153.6h1.3c0.4,0,0.6-0.1,0.8-0.3c0.2-0.2,0.3-0.4,0.3-0.8
			c0-0.3-0.1-0.6-0.3-0.8c-0.2-0.2-0.5-0.3-0.8-0.3h-1.3V153.6z M104.2,150c0.7,0,1.3,0.2,1.9,0.5c0.6,0.3,1,0.7,1.3,1.3
			c0.3,0.5,0.5,1.1,0.5,1.8c0,0.7-0.2,1.3-0.5,1.8c-0.3,0.5-0.8,1-1.3,1.3c-0.6,0.3-1.2,0.5-1.9,0.5c-0.7,0-1.3-0.2-1.9-0.5
			c-0.6-0.3-1-0.7-1.3-1.3c-0.3-0.5-0.5-1.2-0.5-1.8c0-0.7,0.2-1.3,0.5-1.8c0.3-0.5,0.8-1,1.3-1.3C102.8,150.2,103.5,150,104.2,150z
			 M104.2,151.5c-0.3,0-0.7,0.1-0.9,0.3c-0.3,0.2-0.5,0.4-0.7,0.7c-0.2,0.3-0.3,0.6-0.3,1c0,0.4,0.1,0.7,0.3,1
			c0.2,0.3,0.4,0.6,0.7,0.7c0.3,0.2,0.6,0.3,0.9,0.3c0.3,0,0.6-0.1,0.9-0.3c0.3-0.2,0.5-0.4,0.7-0.7c0.2-0.3,0.2-0.7,0.2-1
			c0-0.4-0.1-0.7-0.2-1c-0.2-0.3-0.4-0.6-0.7-0.7C104.8,151.6,104.5,151.5,104.2,151.5z M115.1,150.1l-2.5,4.7v2.2h-1.8v-2.1
			l-2.5-4.7h1.8l1.6,2.9l1.6-2.9H115.1z M121.7,150.1c0.9,0,1.5,0.2,2,0.6c0.5,0.4,0.7,1,0.7,1.8c0,0.8-0.2,1.4-0.7,1.9
			c-0.5,0.4-1.2,0.7-2,0.7h-1.2v1.9h-1.8v-6.8H121.7z M121.6,153.6c0.4,0,0.6-0.1,0.8-0.3c0.2-0.2,0.3-0.4,0.3-0.8
			c0-0.3-0.1-0.6-0.3-0.8c-0.2-0.2-0.5-0.3-0.8-0.3h-1.1v2.1H121.6z M125.7,150.1h1.8v5.3h2.9v1.5h-4.7V150.1z M136.6,157l-0.5-1.2
			h-3l-0.5,1.2h-1.8l2.9-6.8h1.8l2.9,6.8H136.6z M133.8,154.4h1.9l-0.9-2.4L133.8,154.4z M138.2,150.1h5.9v1.5h-2v5.4h-1.8v-5.4h-2
			V150.1z M145.2,150.1h5.4v1.4H147v1.3h3.3v1.4l-3.3,0v1.3h3.7v1.4h-5.5V150.1z M157.2,157l-0.5-1.2h-3l-0.5,1.2h-1.8l2.9-6.8h1.8
			l2.9,6.8H157.2z M154.3,154.4h1.9l-0.9-2.4L154.3,154.4z M161.6,154.1c0,0.4,0.1,0.8,0.4,1c0.3,0.3,0.6,0.4,1,0.4
			c0.4,0,0.7-0.1,0.9-0.4c0.2-0.3,0.4-0.6,0.4-1v-4h1.8v4c0,0.6-0.1,1.1-0.4,1.6c-0.2,0.4-0.6,0.8-1.1,1c-0.5,0.2-1,0.4-1.6,0.4
			c-0.6,0-1.2-0.1-1.6-0.4c-0.5-0.2-0.8-0.6-1.1-1c-0.3-0.4-0.4-1-0.4-1.6v-4h1.8V154.1z M63.4,167.5v1.4h-5.2l0-1.2l2.5-2.6
			c0.2-0.2,0.4-0.4,0.5-0.6c0.1-0.2,0.2-0.4,0.2-0.5c0-0.2-0.1-0.3-0.2-0.4c-0.1-0.1-0.3-0.2-0.6-0.2c-0.3,0-0.6,0.1-0.9,0.2
			c-0.3,0.2-0.7,0.4-1,0.6l-0.7-1.3c0.9-0.7,1.9-1,2.8-1c0.5,0,0.9,0.1,1.2,0.2c0.4,0.1,0.6,0.4,0.8,0.6c0.2,0.3,0.3,0.6,0.3,0.9
			c0,0.4-0.1,0.7-0.4,1.1c-0.2,0.4-0.6,0.8-1,1.2l-1.4,1.4H63.4z M64,162.1h3.1v6.8h-1.8v-5.4H64V162.1z M71.9,162.1
			c1,0,1.7,0.3,2.2,0.9c0.5,0.6,0.8,1.5,0.8,2.6c0,1.1-0.3,2-0.8,2.6c-0.5,0.6-1.3,0.9-2.2,0.9c-1,0-1.7-0.3-2.3-0.9
			c-0.5-0.6-0.8-1.5-0.8-2.6c0-1.1,0.3-2,0.8-2.6C70.1,162.4,70.9,162.1,71.9,162.1z M71.9,163.4c-0.4,0-0.7,0.2-0.9,0.5
			c-0.2,0.3-0.3,0.9-0.3,1.6c0,0.8,0.1,1.3,0.3,1.7c0.2,0.3,0.5,0.5,0.9,0.5c0.4,0,0.7-0.2,0.9-0.5c0.2-0.3,0.3-0.9,0.3-1.6
			s-0.1-1.3-0.3-1.6C72.6,163.6,72.3,163.4,71.9,163.4z M80.6,163.8c-0.2-0.1-0.4-0.2-0.7-0.3c-0.2-0.1-0.5-0.1-0.8-0.1
			c-0.5,0-0.9,0.2-1.2,0.5c-0.3,0.3-0.4,0.8-0.4,1.3c0.3-0.5,0.9-0.7,1.6-0.7c0.4,0,0.8,0.1,1.1,0.3c0.3,0.2,0.6,0.4,0.8,0.8
			c0.2,0.3,0.3,0.7,0.3,1.2c0,0.5-0.1,0.9-0.3,1.2c-0.2,0.4-0.5,0.6-0.9,0.8c-0.4,0.2-0.8,0.3-1.3,0.3c-0.6,0-1.1-0.1-1.6-0.4
			c-0.4-0.3-0.8-0.7-1-1.2c-0.2-0.5-0.4-1.1-0.4-1.8c0-0.7,0.1-1.4,0.4-1.9c0.3-0.5,0.6-1,1.1-1.3c0.5-0.3,1-0.4,1.6-0.4
			c0.4,0,0.8,0.1,1.2,0.2c0.4,0.1,0.7,0.2,1,0.4L80.6,163.8z M78.8,165.7c-0.3,0-0.6,0.1-0.8,0.3c-0.2,0.2-0.3,0.4-0.3,0.7
			c0,0.3,0.1,0.5,0.3,0.7c0.2,0.2,0.4,0.3,0.7,0.3c0.3,0,0.5-0.1,0.7-0.2c0.2-0.2,0.3-0.4,0.3-0.7c0-0.3-0.1-0.5-0.3-0.7
			C79.3,165.8,79.1,165.7,78.8,165.7z M83.4,167.4c0.2,0,0.4,0.1,0.6,0.2c0.2,0.1,0.2,0.3,0.2,0.6c0,0.2-0.1,0.4-0.2,0.7l-0.8,1.3
			h-0.8l0.5-1.3c-0.2-0.2-0.3-0.4-0.3-0.7c0-0.2,0.1-0.4,0.2-0.6C83,167.4,83.2,167.4,83.4,167.4z M92.9,162.1h1.7v6.8H93l-3.1-4.1
			v4.1h-1.7v-6.8h1.6l3.1,4.1L92.9,162.1z M101,164.2c-0.4-0.2-0.8-0.4-1.2-0.5c-0.4-0.1-0.8-0.2-1-0.2c-0.2,0-0.4,0-0.5,0.1
			c-0.1,0.1-0.2,0.2-0.2,0.4c0,0.1,0.1,0.3,0.2,0.4c0.1,0.1,0.2,0.2,0.4,0.2c0.2,0.1,0.4,0.1,0.7,0.2c0.5,0.1,0.9,0.3,1.2,0.4
			c0.3,0.1,0.6,0.3,0.8,0.6c0.2,0.3,0.3,0.6,0.3,1.1s-0.1,0.8-0.4,1.2c-0.2,0.3-0.6,0.6-1,0.7c-0.4,0.2-0.9,0.2-1.4,0.2
			c-0.6,0-1.1-0.1-1.7-0.3c-0.6-0.2-1-0.5-1.5-0.8l0.7-1.4c0.3,0.3,0.8,0.6,1.2,0.8c0.5,0.2,0.9,0.3,1.3,0.3c0.3,0,0.5,0,0.6-0.1
			c0.2-0.1,0.2-0.2,0.2-0.4c0-0.2-0.1-0.3-0.2-0.4c-0.1-0.1-0.3-0.2-0.4-0.2c-0.2-0.1-0.4-0.1-0.7-0.2c-0.5-0.1-0.9-0.3-1.2-0.4
			c-0.3-0.1-0.6-0.3-0.8-0.6c-0.2-0.3-0.3-0.6-0.3-1.1c0-0.4,0.1-0.8,0.3-1.1c0.2-0.3,0.5-0.6,1-0.7c0.4-0.2,0.9-0.3,1.4-0.3
			c0.5,0,1,0.1,1.5,0.2c0.5,0.1,0.9,0.3,1.3,0.6L101,164.2z M111.3,162.1h1.8l-2.3,6.8H109l-1.3-4.7l-1.3,4.7h-1.8l-2.3-6.8h1.9
			l1.3,5l1.3-5h1.7l1.4,5L111.3,162.1z"/>
		
			<linearGradient id="SVGID_3_" gradientUnits="userSpaceOnUse" x1="254.284" y1="157.2317" x2="278.364" y2="157.2317" gradientTransform="matrix(1 0 0 -1 0 242)">
			<stop  offset="0" style="stop-color:#4265B0"/>
			<stop  offset="1" style="stop-color:#33489E"/>
		</linearGradient>
		<path class="st5" d="M266.3,97.1c6.7,0,12.1-5.5,12.1-12.3c0-6.8-5.4-12.3-12.1-12.3c-6.7,0-12.1,5.5-12.1,12.3
			C254.3,91.6,259.7,97.1,266.3,97.1z"/>
		<path class="st6" d="M266.5,89.4c-0.1,0-0.1,0-0.1,0c-0.1,0-0.1,0.1-0.2,0.1c-0.3,0-0.5-0.2-0.6-0.4c0-0.1,0-0.3,0-0.4
			c0.1-0.2,0.3-0.4,0.6-0.4h0.1c0.1,0,0.1,0,0.1,0.1c0.1,0,0.1,0,0.1,0c0.2,0,0.4,0.1,0.5,0.3c0.1,0.1,0.1,0.3,0.1,0.5
			c-0.1,0.3-0.3,0.4-0.6,0.4C266.6,89.4,266.5,89.4,266.5,89.4z"/>
		<path class="st6" d="M266.1,88.8L266.1,88.8C266.1,88.9,266.1,88.9,266.1,88.8C266.1,88.9,266.1,88.8,266.1,88.8z M266.6,88.9
			L266.6,88.9L266.6,88.9z"/>
		<path class="st6" d="M267.1,89c-0.2,0-0.4-0.1-0.6-0.1c-0.4-0.1-0.6-0.4-0.8-0.8c-0.1-0.3-0.2-0.7-0.2-1.1c0-0.5,0.1-1.1,0.3-1.8
			c0.4-1.2,1.1-2.2,1.6-2.8c0.3-0.3,0.5-0.6,0.8-0.8c0.1-0.1,0.1-0.1,0.2-0.1c0.1-0.1,0.1-0.1,0.1-0.1c0.1-0.1,0.3-0.1,0.4-0.1
			c0.2,0,0.5,0.1,0.6,0.6c0,0.1,0,0.1,0.1,0.3c0.1,0.3,0.2,1.3,0.2,2.5c0,0.9-0.1,1.8-0.4,2.4C269.3,88.3,268.1,89,267.1,89z
			 M264.1,88.9c-1.1-0.1-2.1-0.7-2.8-1.9c-0.8-1.5-1-3.4-1-4.7c0-0.4,0-0.9,0.1-1.4c0-0.4,0.1-0.5,0.1-0.5c0.1-0.4,0.4-0.7,0.8-0.7
			c0.1,0,0.2,0,0.4,0.1c0.1,0,0.1,0.1,0.1,0.1c0.1,0.1,1,0.4,1.9,1.1c0.1,0.1,0.3,0.3,0.3,0.5c0,0.2-0.1,0.4-0.3,0.5
			c-0.1,0.8-0.3,1.7-0.3,2.5c0,0.9,0.1,1.6,0.3,2.2c0.1,0.5,0.4,0.9,0.8,1.2c0.2,0.1,0.3,0.4,0.2,0.7
			C264.6,88.7,264.4,88.9,264.1,88.9z"/>
		<path class="st6" d="M261.3,80.3c-0.1,0-0.1,0.1-0.2,0.2c0,0,0,0.2-0.1,0.5c-0.1,0.4-0.1,0.9-0.1,1.3c0,1.2,0.1,3,0.9,4.4
			c0.6,1,1.4,1.6,2.3,1.6c-0.5-0.4-0.9-0.9-1-1.5c-0.2-0.7-0.3-1.5-0.3-2.4c0-1.2,0.2-2.3,0.3-2.6c0.1-0.1,0.1-0.3,0.3-0.4
			c-0.9-0.6-1.7-0.9-1.9-1c-0.1-0.1-0.1-0.1-0.1-0.1C261.3,80.3,261.3,80.3,261.3,80.3z M269.1,81.7L269.1,81.7
			c-0.1,0-0.1,0-0.1,0.1c-0.1,0.1-0.1,0.1-0.2,0.2c-0.3,0.2-0.5,0.5-0.8,0.8c-0.5,0.6-1.2,1.5-1.6,2.6c-0.2,0.7-0.3,1.2-0.3,1.6
			c0,0.4,0.1,0.7,0.1,0.9c0.1,0.2,0.3,0.4,0.5,0.5c0.1,0.1,0.2,0.1,0.4,0.1c0.6,0,1.7-0.5,2.1-1.8c0.2-0.7,0.3-1.4,0.3-2.3
			c0-1.1-0.1-2-0.2-2.3c0-0.1-0.1-0.2-0.1-0.2C269.2,81.8,269.2,81.7,269.1,81.7z"/>
		<path class="st6" d="M265.6,89c-1,0-2.2-0.7-2.6-2.2c-0.2-0.7-0.4-1.5-0.4-2.5c0-0.6,0.1-1.2,0.1-1.9c0-0.2,0.1-0.4,0.1-0.5
			l0.1-0.3v-0.1c0-0.1,0.1-0.1,0.1-0.2c-0.1,0-0.1-0.1-0.1-0.1c-0.2-0.1-0.3-0.4-0.3-0.6c0.1-0.5,0.2-1,0.4-1.5
			c0.1-0.4,0.4-0.6,0.7-0.6c0.1,0,0.1,0,0.1,0c0.1,0,0.2,0.1,0.3,0.1c0.1,0.1,0.3,0.1,0.5,0.4c0.2,0.1,0.4,0.3,0.5,0.4
			c0.1-0.1,0.1-0.2,0.2-0.4c0.1-0.1,0.1-0.3,0.2-0.4l0.1-0.1c0.1-0.2,0.4-0.4,0.6-0.4c0.1,0,0.4,0,0.6,0.3l0.1,0.1
			c0,0.1,0.1,0.1,0.1,0.1c0.1,0.1,0.3,0.4,0.4,0.8c0.1-0.1,0.4-0.3,0.5-0.4c0.2-0.2,0.4-0.3,0.5-0.4c0.1-0.1,0.2-0.1,0.3-0.1
			s0.1,0,0.1,0c0.4,0,0.6,0.2,0.8,0.5c0.1,0.4,0.2,0.8,0.3,1.2c0.2-0.1,0.4-0.2,0.6-0.3h0.1c0.1-0.1,0.3-0.1,0.4-0.1
			c0.1,0,0.1-0.1,0.1-0.1c0.1-0.1,0.2-0.1,0.3-0.1c0.4,0,0.7,0.3,0.8,0.7c0,0,0,0.2,0.1,0.5c0,0.4,0.1,0.7,0.1,1.1
			c0.4,0,0.7-0.1,1-0.1h0.4h0.1c0.3,0,0.5,0.1,0.7,0.4c0.1,0.1,0.2,0.3,0.1,0.6c-0.1,0.4-0.2,1.1-1.1,2.2c-0.1,0.1-0.3,0.2-0.4,0.2
			c-0.1,0-0.1,0-0.3-0.1c-0.3-0.1-0.6-0.3-0.9-0.4c-0.1,0.7-0.4,1.4-0.7,2c-0.6,1.2-1.6,1.9-2.7,1.9c-0.2,0-0.4-0.1-0.5-0.4
			c-0.1-0.2,0-0.5,0.2-0.7c0.4-0.3,0.6-0.7,0.8-1.2c0.2-0.7,0.3-1.4,0.3-2.2c0-1.1-0.1-2-0.3-2.5c0,0,0,0-0.1,0
			c-0.1,0.1-0.3,0.2-0.4,0.4c0,0.1-0.1,0.4-0.1,0.4c-0.6,0.7-1.1,1.5-1.5,2.2c0,0.1-0.1,0.1-0.1,0.2c0,0.1,0,0.1,0,0.2v0.1
			c0,0.1,0,0.1-0.1,0.1c-0.2,0.7-0.3,1.2-0.3,1.6c0,0.3,0.1,0.5,0.1,0.7c0,0.1,0.1,0.1,0.1,0.1c0.1,0.1,0.1,0.3,0.1,0.4
			c0,0.1-0.1,0.3-0.3,0.4c-0.1,0.1-0.1,0.1-0.2,0.1C266.1,89,265.8,89,265.6,89z M259.6,85.4c-0.1,0-0.4-0.1-0.4-0.2
			c-0.8-1-1-1.8-1.1-2.2c0-0.2,0-0.4,0.1-0.6c0.1-0.2,0.4-0.4,0.7-0.4c0,0,0.1,0,0.4,0c0.1,0,0.1,0,0.2,0c0.2,0,0.6,0,1.1,0.1
			c0.3,0,0.5,0.3,0.5,0.6c0,0.6,0.1,1.1,0.1,1.5c0.1,0.3-0.1,0.5-0.4,0.7c-0.4,0.1-0.7,0.3-1.1,0.5
			C259.7,85.4,259.6,85.4,259.6,85.4z"/>
		<path class="st6" d="M263.6,81.7c-0.1,0-0.1,0.1-0.1,0.1l-0.1,0.2c0,0.1-0.1,0.3-0.1,0.6c-0.1,0.4-0.1,1.1-0.1,1.8
			c0,0.9,0.1,1.6,0.3,2.3c0.4,1.2,1.4,1.8,2.1,1.8c0.1,0,0.3,0,0.4-0.1c0.1,0,0.1-0.1,0.1-0.1c-0.1-0.1-0.1-0.1-0.1-0.2
			c-0.1-0.3-0.2-0.6-0.2-1c0-0.5,0.1-1.1,0.3-1.8c0-0.1,0.1-0.1,0.1-0.1v-0.1c-0.7-1.8-2.3-3.1-2.5-3.2c-0.1-0.1-0.1-0.1-0.1-0.1
			C263.6,81.8,263.6,81.7,263.6,81.7z M266.3,78.9c-0.1,0-0.1,0-0.1,0.1c0,0,0,0.1-0.1,0.1c-0.1,0.1-0.1,0.3-0.2,0.4
			c-0.3,0.4-0.5,0.9-0.7,1.5c-0.2,0.4-0.4,0.9-0.5,1.3c0.5,0.5,1.2,1.4,1.6,2.3c0.4-0.8,0.9-1.5,1.6-2.3c-0.5-1.5-1.1-2.8-1.4-3.2
			c0-0.1-0.1-0.1-0.1-0.1C266.4,78.9,266.3,78.9,266.3,78.9z M271.5,80.3L271.5,80.3c-0.1,0-0.1,0-0.2,0.1c-0.1,0.1-0.2,0.1-0.4,0.1
			h-0.1c-0.4,0.2-0.9,0.5-1.4,0.7c-0.1,0-0.1,0.1-0.1,0.1c0.1,0.1,0.2,0.2,0.3,0.4c0.1,0.3,0.3,1.4,0.3,2.6c0,0.9-0.1,1.7-0.3,2.4
			s-0.6,1.2-1,1.5c0.9-0.1,1.7-0.7,2.3-1.6c0.8-1.4,0.9-3.1,0.9-4.4c0-0.4,0-0.9-0.1-1.3c0-0.3-0.1-0.5-0.1-0.5
			C271.6,80.3,271.6,80.3,271.5,80.3z M269,79.2C269,79.2,268.9,79.2,269,79.2c-0.1,0-0.1,0-0.1,0.1c0,0-0.2,0.1-0.5,0.4
			c-0.3,0.2-0.5,0.4-0.8,0.6c0.2,0.5,0.4,1,0.6,1.5c0.4-0.3,0.9-0.6,1.3-0.9c-0.1-0.7-0.3-1.2-0.4-1.5
			C269.1,79.3,269.1,79.2,269,79.2z M263.7,79.2c-0.1,0-0.1,0.1-0.2,0.1c-0.1,0.5-0.3,0.9-0.4,1.5c0.5,0.3,0.9,0.6,1.3,0.9
			c0.2-0.5,0.4-1,0.6-1.5c-0.2-0.2-0.5-0.4-0.8-0.6C264,79.4,263.8,79.3,263.7,79.2C263.8,79.2,263.8,79.2,263.7,79.2
			C263.8,79.2,263.8,79.2,263.7,79.2z M259.4,82.6c-0.3,0-0.4,0-0.4,0c-0.1,0-0.2,0.1-0.3,0.1c-0.1,0.1-0.1,0.1-0.1,0.2
			c0,0.1,0.1,0.9,0.9,1.9c0.4-0.2,0.8-0.4,1.2-0.5c-0.1-0.5-0.1-1-0.1-1.6c-0.4-0.1-0.7-0.1-1.1-0.1
			C259.4,82.6,259.4,82.6,259.4,82.6z M273.3,82.6c-0.4,0-0.9,0-1.2,0.1c0,0.5-0.1,1.1-0.1,1.6c0.4,0.1,0.8,0.4,1.2,0.5
			c0.8-1,0.9-1.7,0.9-1.9c0-0.1,0-0.1-0.1-0.2c-0.1-0.1-0.1-0.1-0.3-0.1C273.8,82.6,273.6,82.6,273.3,82.6z"/>
		<path class="st6" d="M262.3,89.9c-0.4,0-1.3-0.1-1.7-0.5c-0.2-0.3-0.2-0.5-0.2-0.7c0-0.1,0-0.1,0.1-0.2c-0.6-0.1-1.1-0.3-1.6-0.5
			c-0.5-0.2-0.9-0.5-1-0.7l-0.1-0.1c-0.1-0.1-0.1-0.1-0.1-0.1s-0.1-0.1-0.1-0.1c-0.1-0.1-0.1-0.4-0.1-0.5c0-0.3,0.1-0.6,0.4-0.7
			l0.1-0.1c0.4-0.3,1.4-1,2.8-1.5c0.1,0,0.1-0.1,0.2-0.1c0.1,0,0.2,0,0.3,0.1c0.1,0.1,0.2,0.2,0.3,0.4c0.1,0.7,0.4,1.4,0.7,2
			c0.3,0.5,0.7,0.9,1.1,1.2c0.1,0.1,0.2,0.2,0.3,0.4c0.1,0,0.9,0,0.9,0c0.5,0,1.1,0,1.7,0.2c0.1,0,0.2,0.1,0.3,0.2
			c0.1-0.1,0.2-0.2,0.4-0.2c0.6-0.1,1.2-0.2,1.7-0.2c0.2,0,0.4,0,0.6,0c0.1,0,0.1,0,0.3,0c0.1-0.1,0.1-0.3,0.3-0.4
			c0.4-0.3,0.8-0.7,1.1-1.2c0.3-0.5,0.5-1.2,0.7-2c0-0.1,0.1-0.3,0.3-0.4c0.1-0.1,0.2-0.1,0.3-0.1c0.1,0,0.1,0,0.2,0.1
			c0.4,0.1,0.8,0.4,1.1,0.5c0.5,0.3,0.9,0.5,1.3,0.7l0.1,0.1c0.1,0.1,0.2,0.1,0.3,0.2l0.1,0.1c0.4,0.3,0.5,0.9,0.2,1.2
			c0,0,0,0.1-0.1,0.1c-0.2,0.3-1,1-2.9,1.5c0,0.1,0,0.1,0.1,0.2c0,0.1,0,0.4-0.2,0.7c-0.4,0.4-1.2,0.5-1.7,0.5
			c-0.6,0-1.1-0.1-1.5-0.2H269c-0.4-0.1-0.9-0.2-1.4-0.2c-0.1,0-0.4,0-0.6,0h-0.1c-0.2,0-0.4-0.1-0.5-0.2c-0.1,0.1-0.3,0.2-0.5,0.2
			h-0.1c-0.2,0-0.4,0-0.5,0c-0.6,0-1,0.1-1.4,0.2h-0.1C263.3,89.8,262.8,89.9,262.3,89.9z"/>
		<path class="st6" d="M271.9,84.7c-0.1,0.8-0.4,1.5-0.8,2.2c-0.4,0.7-0.8,1.1-1.3,1.4c3.7-0.2,4.8-1.5,4.9-1.6
			c0.1-0.1,0.1-0.4-0.1-0.4c0,0-0.1,0-0.1-0.1c-0.1-0.1-0.1-0.1-0.3-0.1l-0.1-0.1c-0.4-0.3-0.8-0.5-1.2-0.7
			C272.6,85,272.3,84.8,271.9,84.7z M260.8,84.7c-1.3,0.5-2.3,1.2-2.6,1.5c-0.1,0.1-0.1,0.1-0.1,0.1c-0.1,0.1-0.1,0.1-0.1,0.3
			c0,0.1,0,0.1,0.1,0.2c0,0,0.1,0.1,0.1,0.1c0.1,0.1,0.4,0.4,0.9,0.6c0.9,0.4,2.3,0.7,3.8,0.8c-0.5-0.3-0.9-0.8-1.3-1.5
			C261.2,86.2,260.9,85.5,260.8,84.7z M271.4,88.5c-0.2,0-0.5,0.1-0.9,0.1c-0.1,0-0.1,0-0.2,0c-0.2,0-0.4,0.1-0.7,0.1
			c-0.2,0-0.4,0-0.6,0s-0.4,0-0.6,0c-0.4,0-1.1,0-1.6,0.1l-0.1,0.1h0.1c0.2,0,0.4,0,0.6,0c0.7,0,1.1,0.1,1.6,0.2
			c0.4,0.1,0.9,0.2,1.4,0.2c0.6,0,1.1-0.1,1.3-0.4c0.1-0.1,0.1-0.1,0.1-0.2C271.8,88.6,271.7,88.5,271.4,88.5z M261.3,88.5
			c-0.3,0-0.3,0.1-0.4,0.2c0,0.1,0,0.1,0.1,0.2c0.2,0.2,0.6,0.4,1.3,0.4c0.6,0,0.9-0.1,1.4-0.2c0.4-0.1,0.9-0.2,1.6-0.2
			c0.2,0,0.4,0,0.6,0h0.1c0,0,0-0.1-0.1-0.1c-0.5-0.1-1.1-0.1-1.6-0.1c-0.2,0-0.4,0-0.6,0s-0.4,0-0.6,0c-0.3,0-0.5,0-0.7-0.1
			c-0.1,0-0.1,0-0.2,0C261.7,88.6,261.4,88.5,261.3,88.5z"/>
		<path class="st7" d="M266.1,88.8L266.1,88.8C266.1,88.9,266.1,88.9,266.1,88.8C266.1,88.9,266.1,88.8,266.1,88.8z M266.6,88.9
			L266.6,88.9L266.6,88.9z"/>
		<path class="st8" d="M264.1,88.3c-0.5-0.4-0.9-0.9-1-1.5c-0.2-0.7-0.3-1.5-0.3-2.4c0-1.2,0.2-2.3,0.3-2.6c0.1-0.1,0.1-0.3,0.3-0.4
			c-0.9-0.6-1.7-0.9-1.9-1c-0.1-0.1-0.1-0.1-0.1-0.1c-0.1,0-0.1,0-0.1,0c-0.1,0-0.1,0.1-0.2,0.2c0,0,0,0.2-0.1,0.5
			c-0.1,0.4-0.1,0.9-0.1,1.3c0,1.2,0.1,3,0.9,4.4C262.4,87.7,263.3,88.3,264.1,88.3z"/>
		<path class="st8" d="M267.1,88.4c0.6,0,1.7-0.5,2.1-1.8c0.2-0.7,0.3-1.4,0.3-2.3c0-1.1-0.1-2-0.2-2.3c0-0.1-0.1-0.2-0.1-0.2
			c0-0.1-0.1-0.1-0.1-0.1h-0.1c0,0,0,0-0.1,0.1c-0.1,0.1-0.1,0.1-0.2,0.2c-0.3,0.2-0.5,0.5-0.8,0.8c-0.5,0.6-1.2,1.5-1.6,2.6
			c-0.2,0.7-0.3,1.2-0.3,1.6c0,0.4,0.1,0.7,0.1,0.9c0.1,0.2,0.3,0.4,0.5,0.5C266.9,88.4,267,88.4,267.1,88.4z"/>
		<path class="st7" d="M260.7,84.3c-0.1-0.5-0.1-1-0.1-1.6c-0.4-0.1-0.7-0.1-1.1-0.1c-0.1,0-0.1,0-0.1,0c-0.3,0-0.4,0-0.4,0
			c-0.1,0-0.2,0.1-0.3,0.1c-0.1,0.1-0.1,0.1-0.1,0.2c0,0.1,0.1,0.9,0.9,1.9C259.9,84.6,260.3,84.4,260.7,84.3z"/>
		<path class="st7" d="M265.1,80.2c-0.2-0.2-0.5-0.4-0.8-0.6c-0.3-0.2-0.5-0.4-0.5-0.4s-0.1,0-0.1-0.1c0,0,0,0-0.1,0
			c-0.1,0-0.1,0.1-0.2,0.1c-0.1,0.5-0.3,0.9-0.4,1.5c0.5,0.3,0.9,0.6,1.3,0.9C264.7,81.3,264.9,80.8,265.1,80.2z"/>
		<path class="st7" d="M269.5,80.8c-0.1-0.7-0.3-1.2-0.4-1.5c-0.1-0.1-0.1-0.1-0.2-0.1c0,0,0,0-0.1,0c0,0-0.1,0-0.1,0.1
			c0,0-0.2,0.1-0.5,0.4c-0.3,0.2-0.5,0.4-0.8,0.6c0.2,0.5,0.4,1,0.6,1.5C268.6,81.4,269.1,81.1,269.5,80.8z"/>
		<path class="st7" d="M274.1,82.9c0-0.1,0-0.1-0.1-0.2c-0.1-0.1-0.1-0.1-0.3-0.1c0,0-0.1,0-0.4,0c-0.4,0-0.9,0-1.2,0.1
			c0,0.5-0.1,1.1-0.1,1.6c0.4,0.1,0.8,0.4,1.2,0.5C274,83.8,274,83.1,274.1,82.9z"/>
		<path class="st7" d="M266.4,84.6c0.4-0.8,0.9-1.5,1.6-2.3c-0.5-1.5-1.1-2.8-1.4-3.2c0-0.1-0.1-0.1-0.1-0.1
			c-0.1-0.1-0.1-0.1-0.1-0.1c-0.1,0-0.1,0-0.1,0.1c0,0,0,0.1-0.1,0.1c-0.1,0.1-0.1,0.3-0.2,0.4c-0.3,0.4-0.5,0.9-0.7,1.5
			c-0.2,0.4-0.4,0.9-0.5,1.3C265.2,82.8,265.9,83.6,266.4,84.6z"/>
		<path class="st8" d="M266.4,84.6c0.4-0.8,0.9-1.5,1.6-2.3c-0.5-1.5-1.1-2.8-1.4-3.2c0-0.1-0.1-0.1-0.1-0.1
			c-0.1-0.1-0.1-0.1-0.1-0.1c-0.1,0-0.1,0-0.1,0.1c0,0,0,0.1-0.1,0.1c-0.1,0.1-0.1,0.3-0.2,0.4c-0.3,0.4-0.5,0.9-0.7,1.5
			c-0.2,0.4-0.4,0.9-0.5,1.3C265.2,82.8,265.9,83.6,266.4,84.6z"/>
		<path class="st8" d="M269.3,81.4c0.1,0.1,0.2,0.2,0.3,0.4c0.1,0.3,0.3,1.4,0.3,2.6c0,0.9-0.1,1.7-0.3,2.4c-0.2,0.7-0.6,1.2-1,1.5
			c0.9-0.1,1.7-0.7,2.3-1.6c0.7-1.4,0.9-3.1,0.9-4.4c0-0.4,0-0.9-0.1-1.3c0-0.3-0.1-0.5-0.1-0.5c0-0.1-0.1-0.2-0.2-0.2h-0.1
			c0,0-0.1,0-0.1,0.1c-0.1,0.1-0.2,0.1-0.4,0.1h-0.1c-0.4,0.2-0.9,0.5-1.4,0.7C269.4,81.3,269.4,81.3,269.3,81.4z"/>
		<path class="st7" d="M265.8,87.1c0-0.5,0.1-1.1,0.3-1.8c0-0.1,0.1-0.1,0.1-0.1v-0.1c-0.7-1.8-2.3-3.1-2.5-3.2
			c-0.1-0.1-0.1-0.1-0.1-0.1l-0.1-0.1c-0.1,0-0.1,0.1-0.1,0.1l-0.1,0.2c0,0.1-0.1,0.3-0.1,0.6c-0.1,0.4-0.1,1.1-0.1,1.8
			c0,0.9,0.1,1.6,0.3,2.3c0.4,1.2,1.4,1.8,2.1,1.8c0.1,0,0.3,0,0.4-0.1c0.1,0,0.1-0.1,0.1-0.1c-0.1-0.1-0.1-0.1-0.1-0.2
			C265.9,87.8,265.8,87.5,265.8,87.1z"/>
		<path class="st8" d="M265.8,87.1c0-0.5,0.1-1.1,0.3-1.8c0-0.1,0.1-0.1,0.1-0.1v-0.1c-0.7-1.8-2.3-3.1-2.5-3.2
			c-0.1-0.1-0.1-0.1-0.1-0.1l-0.1-0.1c-0.1,0-0.1,0.1-0.1,0.1l-0.1,0.2c0,0.1-0.1,0.3-0.1,0.6c-0.1,0.4-0.1,1.1-0.1,1.8
			c0,0.9,0.1,1.6,0.3,2.3c0.4,1.2,1.4,1.8,2.1,1.8c0.1,0,0.3,0,0.4-0.1c0.1,0,0.1-0.1,0.1-0.1c-0.1-0.1-0.1-0.1-0.1-0.2
			C265.9,87.8,265.8,87.5,265.8,87.1z"/>
		<path class="st7" d="M271.4,88.5c-0.2,0-0.5,0.1-0.9,0.1c-0.1,0-0.1,0-0.2,0c-0.2,0-0.4,0.1-0.7,0.1c-0.2,0-0.4,0-0.6,0
			s-0.4,0-0.6,0c-0.4,0-1.1,0-1.6,0.1l-0.1,0.1h0.1c0.2,0,0.4,0,0.6,0c0.7,0,1.1,0.1,1.6,0.2c0.4,0.1,0.9,0.2,1.4,0.2
			c0.6,0,1.1-0.1,1.3-0.4c0.1-0.1,0.1-0.1,0.1-0.2C271.8,88.6,271.7,88.5,271.4,88.5z"/>
		<path class="st8" d="M274.7,86.2c0,0-0.1,0-0.1-0.1c-0.1-0.1-0.1-0.1-0.3-0.1l-0.1-0.1c-0.4-0.3-0.8-0.5-1.2-0.7
			c-0.4-0.2-0.7-0.4-1.1-0.5c-0.1,0.8-0.4,1.5-0.8,2.2c-0.4,0.7-0.8,1.1-1.3,1.4c3.7-0.2,4.8-1.5,4.9-1.6
			C274.8,86.5,274.8,86.3,274.7,86.2z"/>
		<path class="st7" d="M264.3,88.6c-0.2,0-0.4,0-0.6,0c-0.2,0-0.4,0-0.6,0c-0.3,0-0.5,0-0.7-0.1c-0.1,0-0.1,0-0.2,0
			c-0.4-0.1-0.7-0.1-0.9-0.1c-0.3,0-0.3,0.1-0.4,0.2c0,0.1,0,0.1,0.1,0.2c0.2,0.2,0.6,0.4,1.3,0.4c0.6,0,0.9-0.1,1.4-0.2
			c0.4-0.1,0.9-0.2,1.6-0.2c0.2,0,0.4,0,0.6,0h0.1c0,0,0-0.1-0.1-0.1C265.3,88.7,264.8,88.6,264.3,88.6z"/>
		<path class="st8" d="M261.6,86.8c-0.4-0.6-0.6-1.3-0.7-2.1c-1.3,0.5-2.3,1.2-2.6,1.5c-0.1,0.1-0.1,0.1-0.1,0.1
			c-0.1,0.1-0.1,0.1-0.1,0.3c0,0.1,0,0.1,0.1,0.2c0,0,0.1,0.1,0.1,0.1c0.1,0.1,0.4,0.4,0.9,0.6c0.9,0.4,2.3,0.7,3.8,0.8
			C262.3,87.9,261.8,87.5,261.6,86.8z"/>
		<path class="st4" d="M251.5,113.8h1v5.3h-1l-2.7-3.6v3.6h-1v-5.3h1l2.7,3.6V113.8z M257.4,115v4h-1v-0.7c-0.3,0.5-0.7,0.8-1.4,0.8
			c-0.4,0-0.8-0.1-1.1-0.4c-0.3-0.3-0.4-0.7-0.4-1.1V115h1v2.2c0,0.3,0.1,0.5,0.2,0.7c0.2,0.2,0.4,0.2,0.6,0.2
			c0.3,0,0.6-0.1,0.7-0.3c0.2-0.2,0.3-0.5,0.3-0.8v-2H257.4z M263.9,115c0.5,0,0.8,0.1,1.1,0.4c0.3,0.3,0.4,0.6,0.4,1.1v2.5h-1v-2.2
			c0-0.3-0.1-0.5-0.2-0.7c-0.2-0.2-0.4-0.2-0.6-0.2c-0.3,0-0.6,0.1-0.7,0.3c-0.2,0.2-0.3,0.5-0.3,0.8v2h-1v-2.2
			c0-0.3-0.1-0.5-0.2-0.7c-0.2-0.2-0.4-0.2-0.6-0.2c-0.3,0-0.6,0.1-0.8,0.3c-0.2,0.2-0.3,0.5-0.3,0.8v2h-1v-4h1v0.7
			c0.3-0.5,0.7-0.8,1.4-0.8c0.4,0,0.6,0.1,0.9,0.3c0.2,0.2,0.4,0.4,0.5,0.7C262.6,115.3,263.1,115,263.9,115z M268.8,115
			c0.4,0,0.7,0.1,1,0.3c0.3,0.2,0.5,0.4,0.7,0.7c0.2,0.3,0.2,0.7,0.2,1.1c0,0.4-0.1,0.8-0.2,1.1s-0.4,0.5-0.7,0.7
			c-0.3,0.2-0.6,0.3-1,0.3c-0.3,0-0.6-0.1-0.8-0.2c-0.2-0.1-0.4-0.3-0.6-0.5v0.7h-1v-5.6h1v2.2c0.1-0.2,0.3-0.4,0.6-0.5
			C268.2,115,268.5,115,268.8,115z M268.6,118.2c0.3,0,0.6-0.1,0.8-0.3c0.2-0.2,0.3-0.5,0.3-0.9c0-0.4-0.1-0.6-0.3-0.9
			c-0.2-0.2-0.5-0.3-0.8-0.3c-0.3,0-0.6,0.1-0.8,0.3s-0.3,0.5-0.3,0.9c0,0.4,0.1,0.7,0.3,0.9S268.2,118.2,268.6,118.2z M273.2,115
			c0.6,0,1.1,0.2,1.4,0.5c0.3,0.4,0.5,0.9,0.5,1.5c0,0.1,0,0.2,0,0.3h-3c0.1,0.3,0.2,0.5,0.4,0.7c0.2,0.2,0.5,0.2,0.8,0.2
			c0.2,0,0.4,0,0.6-0.1c0.2-0.1,0.4-0.2,0.5-0.3l0.5,0.5c-0.2,0.2-0.4,0.4-0.7,0.5c-0.3,0.1-0.6,0.2-1,0.2c-0.4,0-0.8-0.1-1.1-0.3
			c-0.3-0.2-0.6-0.4-0.7-0.7c-0.2-0.3-0.3-0.7-0.3-1.1c0-0.4,0.1-0.8,0.3-1.1c0.2-0.3,0.4-0.6,0.7-0.7
			C272.5,115.1,272.8,115,273.2,115z M274.2,116.7c0-0.3-0.1-0.5-0.3-0.7c-0.2-0.2-0.4-0.3-0.7-0.3c-0.3,0-0.5,0.1-0.7,0.3
			c-0.2,0.2-0.3,0.4-0.4,0.7H274.2z M277,115.8c0.1-0.3,0.3-0.5,0.5-0.6c0.2-0.1,0.5-0.2,0.8-0.2v0.9c-0.4,0-0.7,0.1-1,0.3
			c-0.2,0.2-0.4,0.5-0.4,0.9v1.9h-1v-4h1V115.8z"/>
		<path class="st3" d="M234.5,125.2h3.1v6.8h-1.8v-5.4h-1.3V125.2z M243.9,126.9c-0.2-0.1-0.4-0.2-0.7-0.3c-0.2-0.1-0.5-0.1-0.8-0.1
			c-0.5,0-0.9,0.2-1.2,0.5c-0.3,0.3-0.4,0.8-0.4,1.3c0.3-0.5,0.9-0.7,1.6-0.7c0.4,0,0.8,0.1,1.1,0.3c0.3,0.2,0.6,0.4,0.8,0.8
			c0.2,0.3,0.3,0.7,0.3,1.2c0,0.5-0.1,0.9-0.3,1.2c-0.2,0.4-0.5,0.6-0.9,0.8c-0.4,0.2-0.8,0.3-1.3,0.3c-0.6,0-1.1-0.1-1.6-0.4
			c-0.4-0.3-0.8-0.7-1-1.2c-0.2-0.5-0.4-1.1-0.4-1.8c0-0.7,0.1-1.4,0.4-1.9c0.3-0.5,0.6-1,1.1-1.3c0.5-0.3,1-0.4,1.6-0.4
			c0.4,0,0.8,0.1,1.2,0.2c0.4,0.1,0.7,0.2,1,0.4L243.9,126.9z M242.1,128.8c-0.3,0-0.6,0.1-0.8,0.3c-0.2,0.2-0.3,0.4-0.3,0.7
			c0,0.3,0.1,0.5,0.3,0.7c0.2,0.2,0.4,0.3,0.7,0.3c0.3,0,0.5-0.1,0.7-0.2c0.2-0.2,0.3-0.4,0.3-0.7c0-0.3-0.1-0.5-0.3-0.7
			C242.7,128.9,242.4,128.8,242.1,128.8z M248.7,127.7c0.5,0,1,0.1,1.4,0.3c0.4,0.2,0.7,0.4,0.9,0.7c0.2,0.3,0.3,0.7,0.3,1.1
			c0,0.5-0.1,0.9-0.3,1.2c-0.2,0.4-0.6,0.6-1,0.8c-0.4,0.2-0.9,0.3-1.5,0.3c-0.5,0-0.9-0.1-1.4-0.2c-0.5-0.2-0.9-0.4-1.3-0.6
			l0.7-1.3c0.6,0.5,1.2,0.8,1.8,0.8c0.3,0,0.6-0.1,0.8-0.2c0.2-0.2,0.3-0.4,0.3-0.6c0-0.3-0.1-0.5-0.3-0.6c-0.2-0.1-0.5-0.2-0.8-0.2
			c-0.9,0-1.5,0-1.9,0v-3.9h4.6v1.4h-3v1H248.7z M255,125.1c0.7,0,1.3,0.2,1.8,0.5c0.4,0.3,0.7,0.8,0.7,1.3c0,0.3-0.1,0.6-0.2,0.8
			c-0.1,0.2-0.3,0.4-0.6,0.6c0.4,0.2,0.6,0.4,0.8,0.7c0.2,0.3,0.3,0.6,0.3,1c0,0.4-0.1,0.8-0.3,1.1c-0.2,0.3-0.5,0.5-1,0.7
			c-0.4,0.2-0.9,0.2-1.5,0.2c-0.6,0-1-0.1-1.5-0.2c-0.4-0.2-0.7-0.4-1-0.7c-0.2-0.3-0.3-0.6-0.3-1c0-0.4,0.1-0.7,0.3-1
			c0.2-0.3,0.5-0.6,0.9-0.7c-0.3-0.2-0.5-0.4-0.7-0.6c-0.2-0.3-0.2-0.5-0.2-0.8c0-0.4,0.1-0.7,0.3-1c0.2-0.3,0.5-0.5,0.8-0.6
			C254.1,125.2,254.5,125.1,255,125.1z M255,126.3c-0.3,0-0.5,0.1-0.7,0.2c-0.2,0.1-0.2,0.3-0.2,0.6c0,0.2,0.1,0.4,0.2,0.5
			c0.2,0.1,0.4,0.2,0.7,0.2c0.3,0,0.5-0.1,0.7-0.2c0.2-0.1,0.2-0.3,0.2-0.5c0-0.2-0.1-0.4-0.2-0.6S255.3,126.3,255,126.3z
			 M255,129.1c-0.3,0-0.6,0.1-0.8,0.2c-0.2,0.1-0.3,0.4-0.3,0.6c0,0.3,0.1,0.5,0.3,0.6c0.2,0.1,0.5,0.2,0.8,0.2
			c0.3,0,0.6-0.1,0.8-0.2c0.2-0.1,0.3-0.4,0.3-0.6c0-0.3-0.1-0.5-0.3-0.6C255.6,129.2,255.3,129.1,255,129.1z M259.6,130.3
			c0.2,0.1,0.4,0.3,0.7,0.3c0.2,0.1,0.5,0.1,0.8,0.1c0.5,0,0.9-0.2,1.2-0.5c0.3-0.3,0.4-0.8,0.4-1.3c-0.3,0.5-0.9,0.7-1.6,0.7
			c-0.4,0-0.8-0.1-1.1-0.3c-0.3-0.2-0.6-0.4-0.8-0.8c-0.2-0.3-0.3-0.7-0.3-1.2c0-0.5,0.1-0.9,0.3-1.2c0.2-0.4,0.5-0.6,0.9-0.8
			c0.4-0.2,0.8-0.3,1.3-0.3c0.6,0,1.1,0.1,1.6,0.4c0.4,0.3,0.8,0.7,1,1.2c0.2,0.5,0.4,1.1,0.4,1.8c0,0.7-0.1,1.4-0.4,1.9
			c-0.3,0.5-0.6,1-1.1,1.3c-0.5,0.3-1,0.4-1.6,0.4c-0.4,0-0.8-0.1-1.2-0.2c-0.4-0.1-0.7-0.2-1-0.4L259.6,130.3z M261.4,126.5
			c-0.3,0-0.5,0.1-0.7,0.3c-0.2,0.2-0.3,0.4-0.3,0.7c0,0.3,0.1,0.5,0.2,0.7c0.2,0.2,0.4,0.2,0.7,0.2c0.3,0,0.6-0.1,0.8-0.3
			c0.2-0.2,0.3-0.4,0.3-0.7c0-0.3-0.1-0.5-0.3-0.7C262,126.6,261.7,126.5,261.4,126.5z M270,126.9c-0.2-0.1-0.4-0.2-0.7-0.3
			c-0.2-0.1-0.5-0.1-0.8-0.1c-0.5,0-0.9,0.2-1.2,0.5c-0.3,0.3-0.4,0.8-0.4,1.3c0.3-0.5,0.9-0.7,1.6-0.7c0.4,0,0.8,0.1,1.1,0.3
			c0.3,0.2,0.6,0.4,0.8,0.8c0.2,0.3,0.3,0.7,0.3,1.2c0,0.5-0.1,0.9-0.3,1.2c-0.2,0.4-0.5,0.6-0.9,0.8c-0.4,0.2-0.8,0.3-1.3,0.3
			c-0.6,0-1.1-0.1-1.6-0.4c-0.4-0.3-0.8-0.7-1-1.2c-0.2-0.5-0.4-1.1-0.4-1.8c0-0.7,0.1-1.4,0.4-1.9c0.3-0.5,0.6-1,1.1-1.3
			c0.5-0.3,1-0.4,1.6-0.4c0.4,0,0.8,0.1,1.1,0.2c0.4,0.1,0.7,0.2,1,0.4L270,126.9z M268.2,128.8c-0.3,0-0.6,0.1-0.8,0.3
			c-0.2,0.2-0.3,0.4-0.3,0.7c0,0.3,0.1,0.5,0.3,0.7s0.4,0.3,0.7,0.3c0.3,0,0.5-0.1,0.7-0.2c0.2-0.2,0.3-0.4,0.3-0.7
			c0-0.3-0.1-0.5-0.3-0.7C268.8,128.9,268.5,128.8,268.2,128.8z M277.3,127.5c-0.2-0.3-0.5-0.5-0.8-0.7c-0.3-0.2-0.6-0.3-0.9-0.3
			c-0.3,0-0.7,0.1-0.9,0.3c-0.3,0.2-0.5,0.4-0.7,0.7c-0.2,0.3-0.2,0.6-0.2,1c0,0.4,0.1,0.7,0.2,1c0.2,0.3,0.4,0.5,0.7,0.7
			c0.3,0.2,0.6,0.3,0.9,0.3c0.3,0,0.6-0.1,0.9-0.2c0.3-0.1,0.6-0.3,0.8-0.6l1,1.1c-0.4,0.4-0.8,0.7-1.3,0.9c-0.5,0.2-1,0.3-1.5,0.3
			c-0.7,0-1.3-0.2-1.8-0.5c-0.5-0.3-1-0.7-1.3-1.3c-0.3-0.5-0.5-1.1-0.5-1.8c0-0.7,0.2-1.3,0.5-1.8c0.3-0.5,0.8-1,1.3-1.3
			c0.6-0.3,1.2-0.5,1.9-0.5c0.5,0,1,0.1,1.5,0.3c0.5,0.2,0.9,0.5,1.3,0.9L277.3,127.5z"/>
		<path class="st4" d="M251.4,151h3.9v0.9h-2.8v1.3h2.6v0.9h-2.6v1.3h2.9v0.9h-3.9V151z M255.9,152.2h1.1l0.8,1.3l0.9-1.3h1.1
			l-1.3,2l1.4,2.1h-1.1l-0.9-1.4l-1,1.4h-1.1l1.4-2.1L255.9,152.2z M262.9,152.2c0.4,0,0.7,0.1,1,0.3c0.3,0.2,0.5,0.4,0.7,0.7
			c0.2,0.3,0.2,0.7,0.2,1.1c0,0.4-0.1,0.8-0.2,1.1c-0.2,0.3-0.4,0.5-0.7,0.7s-0.6,0.3-1,0.3c-0.3,0-0.6-0.1-0.8-0.2
			c-0.2-0.1-0.4-0.3-0.6-0.5v2.1h-1v-5.5h1v0.7c0.1-0.2,0.3-0.4,0.6-0.5C262.4,152.2,262.6,152.2,262.9,152.2z M262.7,155.4
			c0.3,0,0.6-0.1,0.8-0.3c0.2-0.2,0.3-0.5,0.3-0.9c0-0.4-0.1-0.6-0.3-0.9c-0.2-0.2-0.5-0.3-0.8-0.3c-0.3,0-0.6,0.1-0.8,0.3
			c-0.2,0.2-0.3,0.5-0.3,0.9c0,0.4,0.1,0.7,0.3,0.9C262.1,155.3,262.4,155.4,262.7,155.4z M265.7,152.2h1v4h-1V152.2z M266.1,150.5
			c0.2,0,0.3,0.1,0.4,0.2s0.2,0.2,0.2,0.4c0,0.2-0.1,0.3-0.2,0.4s-0.2,0.2-0.4,0.2s-0.3-0.1-0.4-0.2c-0.1-0.1-0.2-0.2-0.2-0.4
			c0-0.2,0.1-0.3,0.2-0.4C265.9,150.5,266,150.5,266.1,150.5z M268.8,153c0.1-0.3,0.3-0.5,0.5-0.6c0.2-0.1,0.5-0.2,0.8-0.2v0.9
			c-0.4,0-0.7,0.1-1,0.3c-0.2,0.2-0.4,0.5-0.4,0.9v1.9h-1v-4h1V153z M272.5,152.2c0.6,0,1.1,0.2,1.4,0.5c0.3,0.4,0.5,0.9,0.5,1.5
			c0,0.1,0,0.2,0,0.3h-3c0.1,0.3,0.2,0.5,0.4,0.7c0.2,0.2,0.5,0.2,0.8,0.2c0.2,0,0.4,0,0.6-0.1c0.2-0.1,0.4-0.2,0.5-0.3l0.5,0.5
			c-0.2,0.2-0.4,0.4-0.7,0.5c-0.3,0.1-0.6,0.2-1,0.2c-0.4,0-0.8-0.1-1.1-0.3c-0.3-0.2-0.5-0.4-0.7-0.7c-0.2-0.3-0.3-0.7-0.3-1.1
			s0.1-0.8,0.3-1.1c0.2-0.3,0.4-0.6,0.7-0.7C271.8,152.3,272.2,152.2,272.5,152.2z M273.6,153.9c0-0.3-0.1-0.5-0.3-0.7
			c-0.2-0.2-0.4-0.3-0.7-0.3c-0.3,0-0.5,0.1-0.7,0.3c-0.2,0.2-0.3,0.4-0.4,0.7H273.6z M277.7,153.3c-0.2-0.1-0.4-0.2-0.6-0.3
			c-0.2-0.1-0.4-0.1-0.6-0.1c-0.2,0-0.3,0-0.4,0.1c-0.1,0.1-0.1,0.1-0.1,0.3c0,0.1,0.1,0.2,0.2,0.3c0.1,0.1,0.3,0.1,0.6,0.2
			c0.3,0.1,0.5,0.2,0.7,0.3c0.2,0.1,0.3,0.2,0.5,0.4c0.1,0.2,0.2,0.4,0.2,0.6c0,0.4-0.1,0.7-0.5,0.9c-0.3,0.2-0.7,0.3-1.1,0.3
			c-0.3,0-0.6,0-0.9-0.1c-0.3-0.1-0.5-0.2-0.8-0.4l0.3-0.7c0.2,0.2,0.4,0.3,0.6,0.4c0.2,0.1,0.5,0.1,0.7,0.1c0.2,0,0.3,0,0.4-0.1
			c0.1-0.1,0.2-0.2,0.2-0.3c0-0.1-0.1-0.2-0.2-0.3c-0.1-0.1-0.3-0.1-0.6-0.2c-0.3-0.1-0.5-0.2-0.7-0.2c-0.2-0.1-0.3-0.2-0.4-0.4
			c-0.1-0.2-0.2-0.4-0.2-0.6c0-0.4,0.1-0.7,0.4-0.9c0.3-0.2,0.7-0.3,1.1-0.3c0.3,0,0.5,0,0.8,0.1c0.3,0.1,0.5,0.2,0.7,0.3
			L277.7,153.3z"/>
		<path class="st9" d="M220.1,162.3c1,0,1.7,0.3,2.2,0.9c0.5,0.6,0.8,1.5,0.8,2.6c0,1.1-0.3,2-0.8,2.6c-0.5,0.6-1.3,0.9-2.2,0.9
			c-1,0-1.7-0.3-2.3-0.9c-0.5-0.6-0.8-1.5-0.8-2.6c0-1.1,0.3-2,0.8-2.6C218.4,162.6,219.1,162.3,220.1,162.3z M220.1,163.7
			c-0.4,0-0.7,0.2-0.9,0.5c-0.2,0.3-0.3,0.9-0.3,1.6c0,0.8,0.1,1.3,0.3,1.7c0.2,0.3,0.5,0.5,0.9,0.5c0.4,0,0.7-0.2,0.9-0.5
			c0.2-0.3,0.3-0.9,0.3-1.6s-0.1-1.3-0.3-1.6C220.9,163.8,220.5,163.7,220.1,163.7z M229.5,166.4v1.4h-0.9v1.5H227v-1.5h-3.1v-1.2
			l1.9-4.2h1.7l-1.8,4h1.3v-1.5h1.6v1.5H229.5z M233,161.3h1.5l-3.2,9h-1.5L233,161.3z M237.6,162.3c1,0,1.7,0.3,2.2,0.9
			c0.5,0.6,0.8,1.5,0.8,2.6c0,1.1-0.3,2-0.8,2.6c-0.5,0.6-1.3,0.9-2.2,0.9c-1,0-1.7-0.3-2.3-0.9c-0.5-0.6-0.8-1.5-0.8-2.6
			c0-1.1,0.3-2,0.8-2.6C235.8,162.6,236.6,162.3,237.6,162.3z M237.6,163.7c-0.4,0-0.7,0.2-0.9,0.5c-0.2,0.3-0.3,0.9-0.3,1.6
			c0,0.8,0.1,1.3,0.3,1.7c0.2,0.3,0.5,0.5,0.9,0.5c0.4,0,0.7-0.2,0.9-0.5c0.2-0.3,0.3-0.9,0.3-1.6s-0.1-1.3-0.3-1.6
			C238.3,163.8,238,163.7,237.6,163.7z M244.5,164.9c0.5,0,1,0.1,1.4,0.3c0.4,0.2,0.7,0.4,0.9,0.7c0.2,0.3,0.3,0.7,0.3,1.1
			c0,0.5-0.1,0.9-0.3,1.2c-0.2,0.4-0.6,0.6-1,0.8c-0.4,0.2-0.9,0.3-1.5,0.3c-0.5,0-0.9-0.1-1.4-0.2c-0.5-0.2-0.9-0.4-1.3-0.6
			l0.7-1.3c0.6,0.5,1.2,0.8,1.8,0.8c0.3,0,0.6-0.1,0.8-0.2c0.2-0.2,0.3-0.4,0.3-0.6s-0.1-0.5-0.3-0.6c-0.2-0.1-0.5-0.2-0.8-0.2
			c-0.9,0-1.5,0-1.9,0v-3.9h4.6v1.4h-3v1H244.5z M250.6,161.3h1.5l-3.2,9h-1.5L250.6,161.3z M257.3,167.8v1.4h-5.2l0-1.2l2.5-2.6
			c0.2-0.2,0.4-0.4,0.5-0.6c0.1-0.2,0.2-0.4,0.2-0.5c0-0.2-0.1-0.3-0.2-0.4c-0.1-0.1-0.3-0.2-0.6-0.2c-0.3,0-0.6,0.1-0.9,0.2
			c-0.3,0.1-0.7,0.4-1,0.6l-0.7-1.3c0.9-0.7,1.9-1,2.8-1c0.5,0,0.9,0.1,1.2,0.2c0.4,0.1,0.6,0.4,0.8,0.6c0.2,0.3,0.3,0.6,0.3,0.9
			s-0.1,0.7-0.4,1.1c-0.2,0.4-0.6,0.8-1,1.2l-1.4,1.4H257.3z M261.4,162.3c1,0,1.7,0.3,2.2,0.9c0.5,0.6,0.8,1.5,0.8,2.6
			c0,1.1-0.3,2-0.8,2.6c-0.5,0.6-1.3,0.9-2.2,0.9c-1,0-1.7-0.3-2.3-0.9c-0.5-0.6-0.8-1.5-0.8-2.6c0-1.1,0.3-2,0.8-2.6
			C259.7,162.6,260.5,162.3,261.4,162.3z M261.4,163.7c-0.4,0-0.7,0.2-0.9,0.5c-0.2,0.3-0.3,0.9-0.3,1.6c0,0.8,0.1,1.3,0.3,1.7
			c0.2,0.3,0.5,0.5,0.9,0.5c0.4,0,0.7-0.2,0.9-0.5c0.2-0.3,0.3-0.9,0.3-1.6s-0.1-1.3-0.3-1.6C262.2,163.8,261.9,163.7,261.4,163.7z
			 M270.8,167.8v1.4h-5.2l0-1.2l2.5-2.6c0.2-0.2,0.4-0.4,0.5-0.6c0.1-0.2,0.2-0.4,0.2-0.5c0-0.2-0.1-0.3-0.2-0.4
			c-0.1-0.1-0.3-0.2-0.6-0.2c-0.3,0-0.6,0.1-0.9,0.2c-0.3,0.1-0.7,0.4-1,0.6l-0.7-1.3c0.9-0.7,1.9-1,2.8-1c0.5,0,0.9,0.1,1.2,0.2
			c0.4,0.1,0.6,0.4,0.8,0.6c0.2,0.3,0.3,0.6,0.3,0.9s-0.1,0.7-0.4,1.1c-0.2,0.4-0.6,0.8-1,1.2l-1.4,1.4H270.8z M275,162.3
			c1,0,1.7,0.3,2.2,0.9c0.5,0.6,0.8,1.5,0.8,2.6c0,1.1-0.3,2-0.8,2.6c-0.5,0.6-1.3,0.9-2.2,0.9c-1,0-1.7-0.3-2.3-0.9
			c-0.5-0.6-0.8-1.5-0.8-2.6c0-1.1,0.3-2,0.8-2.6C273.2,162.6,274,162.3,275,162.3z M275,163.7c-0.4,0-0.7,0.2-0.9,0.5
			c-0.2,0.3-0.3,0.9-0.3,1.6c0,0.8,0.1,1.3,0.3,1.7c0.2,0.3,0.5,0.5,0.9,0.5c0.4,0,0.7-0.2,0.9-0.5c0.2-0.3,0.3-0.9,0.3-1.6
			s-0.1-1.3-0.3-1.6C275.7,163.8,275.4,163.7,275,163.7z"/>
		<path class="st4" d="M221.2,176.1h0.4l0,0.6l0.5-0.3l0.2,0.4l-0.5,0.3l0.5,0.3l-0.2,0.4l-0.5-0.3l0,0.6h-0.4l0-0.6l-0.5,0.3
			l-0.2-0.4l0.5-0.3l-0.5-0.3l0.2-0.4l0.5,0.3L221.2,176.1z M226,176.3h0.8v4.3h-0.8l-2.2-2.9v2.9h-0.8v-4.3h0.8l2.2,3V176.3z
			 M229.3,177.3c0.3,0,0.6,0.1,0.9,0.2c0.3,0.1,0.5,0.3,0.6,0.6c0.1,0.2,0.2,0.5,0.2,0.9c0,0.3-0.1,0.6-0.2,0.9
			c-0.1,0.3-0.3,0.4-0.6,0.6c-0.3,0.1-0.6,0.2-0.9,0.2c-0.3,0-0.6-0.1-0.9-0.2c-0.3-0.1-0.5-0.3-0.6-0.6c-0.1-0.3-0.2-0.5-0.2-0.9
			c0-0.3,0.1-0.6,0.2-0.9c0.1-0.3,0.4-0.4,0.6-0.6C228.6,177.3,228.9,177.3,229.3,177.3z M229.3,177.9c-0.3,0-0.5,0.1-0.7,0.3
			c-0.2,0.2-0.3,0.4-0.3,0.7c0,0.3,0.1,0.5,0.3,0.7c0.2,0.2,0.4,0.3,0.7,0.3c0.3,0,0.5-0.1,0.7-0.3c0.2-0.2,0.3-0.4,0.3-0.7
			c0-0.3-0.1-0.5-0.3-0.7C229.8,178,229.5,177.9,229.3,177.9z M233.6,180.3c-0.3,0.2-0.5,0.2-0.8,0.2c-0.3,0-0.5-0.1-0.7-0.2
			c-0.2-0.2-0.3-0.4-0.3-0.7V178h-0.5l0-0.6h0.5v-0.9h0.8v0.9h0.9v0.6h-0.9v1.5c0,0.2,0,0.3,0.1,0.3c0.1,0.1,0.1,0.1,0.3,0.1
			c0.1,0,0.3,0,0.5-0.1L233.6,180.3z M237.6,180.5v-0.4c-0.1,0.1-0.3,0.3-0.4,0.3c-0.2,0.1-0.4,0.1-0.6,0.1c-0.2,0-0.4,0-0.6-0.1
			c-0.2-0.1-0.3-0.2-0.4-0.4c-0.1-0.2-0.1-0.3-0.1-0.5c0-0.3,0.1-0.5,0.3-0.7c0.2-0.2,0.5-0.3,0.9-0.3h1v-0.1c0-0.2-0.1-0.3-0.2-0.4
			c-0.1-0.1-0.3-0.2-0.6-0.2c-0.3,0-0.6,0.1-1,0.3l-0.3-0.6c0.3-0.1,0.5-0.2,0.7-0.3c0.2-0.1,0.5-0.1,0.7-0.1c0.4,0,0.8,0.1,1,0.3
			c0.2,0.2,0.4,0.5,0.4,0.9l0,2.1H237.6z M236.8,180c0.2,0,0.4-0.1,0.6-0.2c0.2-0.1,0.3-0.2,0.3-0.4v-0.3h-0.8c-0.2,0-0.4,0-0.5,0.1
			c-0.1,0.1-0.1,0.2-0.1,0.3c0,0.1,0.1,0.2,0.2,0.3C236.5,179.9,236.6,180,236.8,180z M241.6,178.3c-0.2-0.2-0.5-0.4-0.9-0.4
			c-0.3,0-0.5,0.1-0.6,0.3c-0.2,0.2-0.2,0.4-0.2,0.7c0,0.3,0.1,0.5,0.2,0.7c0.2,0.2,0.4,0.3,0.6,0.3c0.4,0,0.7-0.1,0.9-0.4l0.5,0.4
			c-0.1,0.2-0.3,0.4-0.6,0.5c-0.2,0.1-0.5,0.2-0.8,0.2c-0.3,0-0.6-0.1-0.9-0.2c-0.2-0.1-0.4-0.3-0.6-0.6c-0.1-0.3-0.2-0.5-0.2-0.9
			c0-0.3,0.1-0.6,0.2-0.9c0.1-0.3,0.3-0.4,0.6-0.6c0.3-0.1,0.5-0.2,0.9-0.2c0.3,0,0.6,0.1,0.8,0.2c0.2,0.1,0.4,0.2,0.6,0.4
			L241.6,178.3z M244.7,180.3c-0.3,0.2-0.5,0.2-0.8,0.2c-0.3,0-0.5-0.1-0.7-0.2c-0.2-0.2-0.3-0.4-0.3-0.7V178h-0.5l0-0.6h0.5v-0.9
			h0.8v0.9h0.9v0.6h-0.9v1.5c0,0.2,0,0.3,0.1,0.3c0.1,0.1,0.1,0.1,0.3,0.1c0.1,0,0.3,0,0.5-0.1L244.7,180.3z M248.3,177.3v3.3h-0.8
			v-0.6c-0.2,0.4-0.6,0.6-1.1,0.6c-0.4,0-0.7-0.1-0.9-0.3c-0.2-0.2-0.3-0.5-0.3-0.9v-2h0.8v1.8c0,0.2,0.1,0.4,0.2,0.5
			c0.1,0.1,0.3,0.2,0.5,0.2c0.3,0,0.5-0.1,0.6-0.3c0.1-0.2,0.2-0.4,0.2-0.7v-1.6H248.3z M251.2,180.5v-0.4c-0.1,0.1-0.3,0.3-0.4,0.3
			s-0.4,0.1-0.6,0.1c-0.2,0-0.4,0-0.6-0.1c-0.2-0.1-0.3-0.2-0.4-0.4c-0.1-0.2-0.1-0.3-0.1-0.5c0-0.3,0.1-0.5,0.3-0.7
			c0.2-0.2,0.5-0.3,0.9-0.3h1v-0.1c0-0.2-0.1-0.3-0.2-0.4c-0.1-0.1-0.3-0.2-0.6-0.2c-0.3,0-0.6,0.1-1,0.3l-0.3-0.6
			c0.3-0.1,0.5-0.2,0.7-0.3c0.2-0.1,0.5-0.1,0.7-0.1c0.4,0,0.8,0.1,1,0.3c0.2,0.2,0.4,0.5,0.4,0.9l0,2.1H251.2z M250.4,180
			c0.2,0,0.4-0.1,0.6-0.2c0.2-0.1,0.3-0.2,0.3-0.4v-0.3h-0.8c-0.2,0-0.4,0-0.5,0.1c-0.1,0.1-0.1,0.2-0.1,0.3c0,0.1,0.1,0.2,0.2,0.3
			C250.1,179.9,250.2,180,250.4,180z M252.9,176h0.8v4.5h-0.8V176z M256.3,176h0.8v4.5h-0.8V176z M258.1,177.3h0.8v3.3h-0.8V177.3z
			 M258.5,175.9c0.1,0,0.2,0,0.3,0.1c0.1,0.1,0.1,0.2,0.1,0.3c0,0.1,0,0.2-0.1,0.3c-0.1,0.1-0.2,0.1-0.3,0.1s-0.2,0-0.3-0.1
			c-0.1-0.1-0.1-0.2-0.1-0.3c0-0.1,0-0.3,0.1-0.3C258.3,175.9,258.4,175.9,258.5,175.9z M262.1,178.3c-0.2-0.2-0.5-0.4-0.9-0.4
			c-0.3,0-0.5,0.1-0.6,0.3c-0.2,0.2-0.2,0.4-0.2,0.7c0,0.3,0.1,0.5,0.2,0.7c0.2,0.2,0.4,0.3,0.6,0.3c0.4,0,0.7-0.1,0.9-0.4l0.5,0.4
			c-0.1,0.2-0.3,0.4-0.6,0.5c-0.2,0.1-0.5,0.2-0.8,0.2c-0.3,0-0.6-0.1-0.9-0.2c-0.2-0.1-0.4-0.3-0.6-0.6c-0.1-0.3-0.2-0.5-0.2-0.9
			c0-0.3,0.1-0.6,0.2-0.9c0.1-0.3,0.3-0.4,0.6-0.6c0.3-0.1,0.5-0.2,0.9-0.2c0.3,0,0.6,0.1,0.8,0.2c0.2,0.1,0.4,0.2,0.6,0.4
			L262.1,178.3z M264.6,177.3c0.5,0,0.9,0.1,1.2,0.4c0.3,0.3,0.4,0.7,0.4,1.3c0,0.1,0,0.2,0,0.2h-2.4c0.1,0.2,0.2,0.4,0.3,0.6
			c0.2,0.1,0.4,0.2,0.6,0.2c0.2,0,0.3,0,0.5-0.1c0.2-0.1,0.3-0.2,0.4-0.3l0.4,0.4c-0.2,0.2-0.4,0.3-0.6,0.4
			c-0.2,0.1-0.5,0.1-0.8,0.1c-0.3,0-0.6-0.1-0.9-0.2c-0.3-0.1-0.4-0.3-0.6-0.6c-0.1-0.3-0.2-0.5-0.2-0.9c0-0.3,0.1-0.6,0.2-0.9
			c0.1-0.3,0.3-0.4,0.6-0.6C264,177.3,264.3,177.3,264.6,177.3z M265.4,178.7c0-0.2-0.1-0.4-0.2-0.6c-0.2-0.1-0.4-0.2-0.6-0.2
			c-0.2,0-0.4,0.1-0.6,0.2c-0.2,0.1-0.3,0.3-0.3,0.6H265.4z M268.8,177.2c0.4,0,0.7,0.1,0.9,0.3c0.2,0.2,0.3,0.5,0.3,0.9v2h-0.8
			v-1.8c0-0.2-0.1-0.4-0.2-0.5c-0.1-0.1-0.3-0.2-0.5-0.2c-0.3,0-0.5,0.1-0.6,0.3c-0.1,0.2-0.2,0.4-0.2,0.7v1.6h-0.8v-3.3h0.8v0.6
			C267.8,177.5,268.2,177.3,268.8,177.2z M273.1,178.3c-0.2-0.2-0.5-0.4-0.9-0.4c-0.3,0-0.5,0.1-0.6,0.3c-0.2,0.2-0.2,0.4-0.2,0.7
			c0,0.3,0.1,0.5,0.2,0.7c0.2,0.2,0.4,0.3,0.6,0.3c0.4,0,0.7-0.1,0.9-0.4l0.5,0.4c-0.1,0.2-0.3,0.4-0.6,0.5
			c-0.2,0.1-0.5,0.2-0.8,0.2c-0.3,0-0.6-0.1-0.9-0.2c-0.2-0.1-0.4-0.3-0.6-0.6c-0.1-0.3-0.2-0.5-0.2-0.9c0-0.3,0.1-0.6,0.2-0.9
			c0.1-0.3,0.3-0.4,0.6-0.6c0.3-0.1,0.5-0.2,0.9-0.2c0.3,0,0.6,0.1,0.8,0.2c0.2,0.1,0.4,0.2,0.6,0.4L273.1,178.3z M275.6,177.3
			c0.5,0,0.9,0.1,1.2,0.4c0.3,0.3,0.4,0.7,0.4,1.3c0,0.1,0,0.2,0,0.2h-2.4c0.1,0.2,0.2,0.4,0.3,0.6c0.2,0.1,0.4,0.2,0.6,0.2
			c0.2,0,0.3,0,0.5-0.1c0.2-0.1,0.3-0.2,0.4-0.3l0.4,0.4c-0.2,0.2-0.4,0.3-0.6,0.4c-0.2,0.1-0.5,0.1-0.8,0.1c-0.3,0-0.6-0.1-0.9-0.2
			c-0.3-0.1-0.4-0.3-0.6-0.6c-0.1-0.3-0.2-0.5-0.2-0.9c0-0.3,0.1-0.6,0.2-0.9c0.1-0.3,0.3-0.4,0.6-0.6
			C275,177.3,275.3,177.3,275.6,177.3z M276.4,178.7c0-0.2-0.1-0.4-0.2-0.6c-0.2-0.1-0.4-0.2-0.6-0.2c-0.2,0-0.4,0.1-0.6,0.2
			c-0.2,0.1-0.3,0.3-0.3,0.6H276.4z"/>
	</g>
</g>
</svg>
