<?xml version="1.0" encoding="utf-8"?>
<!-- Generator: Adobe Illustrator 26.0.1, SVG Export Plug-In . SVG Version: 6.00 Build 0)  -->
<svg version="1.1" id="Layer_1" xmlns="http://www.w3.org/2000/svg" xmlns:xlink="http://www.w3.org/1999/xlink" x="0px" y="0px"
	 viewBox="0 0 142 62" style="enable-background:new 0 0 142 62;" xml:space="preserve">
<style type="text/css">
	.st0{clip-path:url(#SVGID_00000137124802290671674840000000695349659626861732_);}
	.st1{fill:#153549;fill-opacity:0.8;}
	.st2{clip-path:url(#SVGID_00000029766390759470001870000005652272040178832549_);}
	.st3{fill:#EB5757;}
	.st4{fill:#E1E9EF;}
	.st5{fill:#789BB6;}
	.st6{clip-path:url(#SVGID_00000127010356490210974950000017675996067901279416_);}
</style>
<g>
	<defs>
		<rect id="SVGID_1_" width="142" height="61.6"/>
	</defs>
	<clipPath id="SVGID_00000091731171507077194300000010708428483218385036_">
		<use xlink:href="#SVGID_1_"  style="overflow:visible;"/>
	</clipPath>
	<g style="clip-path:url(#SVGID_00000091731171507077194300000010708428483218385036_);">
		<g>
			<path class="st1" d="M5,4.4C5,2,7,0,9.4,0h123.1c2.4,0,4.4,2,4.4,4.4v19.9c0,2.4-2,4.4-4.4,4.4H9.4c-2.4,0-4.4-2-4.4-4.4V4.4z"/>
			<g>
				<defs>
					<rect id="SVGID_00000129909118700078366650000003677239984936281742_" x="13.9" y="8.9" width="11.1" height="11.1"/>
				</defs>
				<clipPath id="SVGID_00000036950462639148500860000009678090533971144330_">
					<use xlink:href="#SVGID_00000129909118700078366650000003677239984936281742_"  style="overflow:visible;"/>
				</clipPath>
				<g style="clip-path:url(#SVGID_00000036950462639148500860000009678090533971144330_);">
					<path class="st3" d="M21.9,11.6h1.8c0,0,0,0,0.1,0c0,0,0,0,0-0.1c0,0,0,0,0-0.1c0,0,0,0,0-0.1l-2.4-2.4c0,0,0,0-0.1,0
						c0,0,0,0-0.1,0c0,0,0,0-0.1,0c0,0,0,0,0,0.1v1.8c0,0.2,0.1,0.4,0.2,0.5C21.6,11.6,21.7,11.6,21.9,11.6z"/>
					<path class="st3" d="M19.4,15.2c0,0-0.2,0-0.2,0.1v1.8c0,0,0,0,0,0.1c0,0,0,0,0,0c0,0,0,0,0,0c0,0,0,0,0.1,0
						c0.2-0.1,0.4-0.2,0.5-0.4c0.1-0.2,0.2-0.4,0.2-0.6c0-0.2-0.1-0.4-0.2-0.6C19.7,15.5,19.6,15.3,19.4,15.2L19.4,15.2z"/>
					<path class="st3" d="M17.3,15.1H17c0,0-0.1,0-0.1,0c0,0,0,0.1,0,0.1v0.6c0,0,0,0.1,0,0.1c0,0,0.1,0,0.1,0h0.3
						c0.1,0,0.2,0,0.3-0.1c0.1-0.1,0.1-0.2,0.1-0.3c0-0.1,0-0.2-0.1-0.3C17.5,15.2,17.4,15.1,17.3,15.1L17.3,15.1z"/>
					<path class="st3" d="M23.9,12.1h-2c-0.3,0-0.6-0.1-0.8-0.3c-0.2-0.2-0.3-0.5-0.3-0.8V9c0,0,0-0.1,0-0.1c0,0-0.1,0-0.1,0h-5
						c-0.2,0-0.5,0.1-0.7,0.3c-0.2,0.2-0.3,0.4-0.3,0.7V19c0,0.2,0.1,0.5,0.3,0.7c0.2,0.2,0.4,0.3,0.7,0.3h7.4
						c0.2,0,0.5-0.1,0.7-0.3c0.2-0.2,0.3-0.4,0.3-0.7v-6.8C24,12.2,24,12.1,23.9,12.1C24,12.1,23.9,12.1,23.9,12.1L23.9,12.1z
						 M17.3,16.5H17c0,0-0.1,0-0.1,0c0,0,0,0.1,0,0.1v1c0,0.1,0,0.1-0.1,0.2s-0.1,0.1-0.2,0.1c-0.1,0-0.1,0-0.2-0.1
						c-0.1-0.1-0.1-0.1-0.1-0.2v-2.8c0,0,0-0.1,0-0.1c0,0,0-0.1,0.1-0.1s0.1,0,0.1-0.1c0,0,0.1,0,0.1,0h0.7c0.3,0,0.5,0.1,0.7,0.3
						c0.2,0.2,0.3,0.4,0.3,0.7c0,0.3-0.1,0.5-0.3,0.7C17.8,16.4,17.6,16.5,17.3,16.5L17.3,16.5z M18.9,17.9c-0.1,0-0.1,0-0.2-0.1
						c-0.1-0.1-0.1-0.1-0.1-0.2v-2.8c0,0,0-0.1,0-0.1c0,0,0-0.1,0.1-0.1s0.1,0,0.1-0.1c0,0,0.1,0,0.1,0c0.4,0,0.9,0.2,1.2,0.5
						c0.3,0.3,0.5,0.7,0.5,1.2c0,0.4-0.2,0.9-0.5,1.2C19.8,17.7,19.4,17.9,18.9,17.9L18.9,17.9z M22.6,15.1h-0.9c0,0-0.1,0-0.1,0.1
						c0,0-0.1,0.1-0.1,0.1v0.5c0,0,0,0.1,0,0.1c0,0,0.1,0,0.1,0h0.5c0.1,0,0.1,0,0.2,0.1s0.1,0.1,0.1,0.2c0,0.1,0,0.1-0.1,0.2
						c-0.1,0.1-0.1,0.1-0.2,0.1h-0.5c0,0-0.1,0-0.1,0c0,0,0,0.1,0,0.1v1c0,0.1,0,0.1-0.1,0.2s-0.1,0.1-0.2,0.1c-0.1,0-0.1,0-0.2-0.1
						c-0.1-0.1-0.1-0.1-0.1-0.2v-2.3c0-0.2,0.1-0.4,0.2-0.5s0.3-0.2,0.5-0.2h0.9c0.1,0,0.1,0,0.2,0.1c0.1,0.1,0.1,0.1,0.1,0.2
						c0,0.1,0,0.1-0.1,0.2C22.8,15.1,22.7,15.1,22.6,15.1z"/>
				</g>
			</g>
			<path class="st4" d="M31.1,14.1c0.4,0,0.7,0.2,0.9,0.4c0.2,0.2,0.3,0.4,0.3,0.8c0,0.2-0.1,0.4-0.2,0.6c-0.1,0.2-0.3,0.3-0.5,0.4
				c-0.2,0.1-0.5,0.2-0.8,0.2c-0.3,0-0.5,0-0.8-0.1c-0.3-0.1-0.5-0.2-0.6-0.3l0.3-0.4c0.1,0.1,0.3,0.2,0.5,0.3
				c0.2,0.1,0.4,0.1,0.7,0.1c0.3,0,0.5-0.1,0.7-0.2c0.2-0.1,0.2-0.3,0.2-0.5c0-0.2-0.1-0.4-0.2-0.5c-0.2-0.1-0.4-0.2-0.7-0.2h-0.3
				v-0.4l1-1.2h-1.9v-0.5h2.6v0.4L31.1,14.1z M35.5,15.9v0.5h-2.8V16l1.6-1.5c0.2-0.2,0.3-0.3,0.4-0.5c0.1-0.1,0.1-0.3,0.1-0.4
				c0-0.2-0.1-0.4-0.2-0.5C34.4,13,34.2,13,33.9,13c-0.4,0-0.8,0.1-1,0.4l-0.4-0.3c0.2-0.2,0.3-0.3,0.6-0.4c0.2-0.1,0.5-0.2,0.8-0.2
				c0.4,0,0.7,0.1,1,0.3c0.2,0.2,0.4,0.5,0.4,0.8c0,0.2,0,0.4-0.1,0.6s-0.3,0.4-0.5,0.6l-1.2,1.1H35.5z M40.4,14.4
				c0.2,0.1,0.4,0.2,0.5,0.3c0.1,0.2,0.2,0.4,0.2,0.6c0,0.3-0.1,0.6-0.4,0.8c-0.3,0.2-0.6,0.3-1.1,0.3h-1.8v-3.9h1.7
				c0.4,0,0.8,0.1,1,0.3c0.2,0.2,0.4,0.4,0.4,0.7c0,0.2,0,0.4-0.1,0.5C40.6,14.2,40.5,14.3,40.4,14.4z M38.3,13v1.2h1.1
				c0.3,0,0.5-0.1,0.7-0.2c0.2-0.1,0.2-0.3,0.2-0.5c0-0.2-0.1-0.4-0.2-0.5C39.9,13,39.7,13,39.4,13H38.3z M39.6,15.9
				c0.3,0,0.5-0.1,0.7-0.2c0.2-0.1,0.2-0.3,0.2-0.5c0-0.4-0.3-0.6-0.9-0.6h-1.3v1.3H39.6z M42.9,13.4c0.4,0,0.7,0.1,0.9,0.3
				c0.2,0.2,0.3,0.5,0.3,0.9v1.8h-0.5V16c-0.1,0.1-0.2,0.2-0.4,0.3c-0.2,0.1-0.4,0.1-0.6,0.1c-0.3,0-0.6-0.1-0.8-0.2
				c-0.2-0.2-0.3-0.4-0.3-0.6s0.1-0.5,0.3-0.6c0.2-0.2,0.5-0.2,0.9-0.2h0.8v-0.1c0-0.2-0.1-0.4-0.2-0.5c-0.1-0.1-0.3-0.2-0.6-0.2
				c-0.2,0-0.3,0-0.5,0.1c-0.2,0.1-0.3,0.1-0.4,0.2l-0.2-0.4c0.2-0.1,0.3-0.2,0.5-0.3C42.5,13.5,42.7,13.4,42.9,13.4z M42.8,16
				c0.2,0,0.4,0,0.5-0.1c0.1-0.1,0.3-0.2,0.3-0.4v-0.4h-0.8c-0.5,0-0.7,0.2-0.7,0.5c0,0.1,0.1,0.3,0.2,0.3C42.4,16,42.6,16,42.8,16z
				 M46.7,13.4c0.4,0,0.7,0.1,0.9,0.3c0.2,0.2,0.3,0.5,0.3,0.9v1.7h-0.5v-1.6c0-0.3-0.1-0.5-0.2-0.6c-0.1-0.1-0.3-0.2-0.6-0.2
				c-0.3,0-0.5,0.1-0.7,0.3c-0.2,0.2-0.2,0.4-0.2,0.7v1.5h-0.5v-2.9h0.5v0.4c0.1-0.2,0.3-0.3,0.4-0.3C46.3,13.5,46.5,13.4,46.7,13.4
				z M50.1,15l-0.6,0.6v0.8h-0.5v-4.1h0.5v2.6l1.6-1.5h0.6l-1.2,1.2l1.4,1.7h-0.7L50.1,15z M53.1,16.4c-0.2,0-0.5,0-0.7-0.1
				c-0.2-0.1-0.4-0.1-0.5-0.2l0.2-0.4c0.1,0.1,0.3,0.2,0.5,0.2c0.2,0.1,0.4,0.1,0.6,0.1c0.5,0,0.7-0.1,0.7-0.4c0-0.1,0-0.2-0.1-0.2
				c-0.1-0.1-0.1-0.1-0.2-0.1c-0.1,0-0.2-0.1-0.4-0.1c-0.2,0-0.4-0.1-0.6-0.1c-0.1,0-0.3-0.1-0.4-0.2S52,14.5,52,14.3
				c0-0.3,0.1-0.5,0.3-0.6c0.2-0.2,0.5-0.2,0.9-0.2c0.2,0,0.4,0,0.6,0.1c0.2,0,0.4,0.1,0.5,0.2L54,14.1c-0.2-0.2-0.5-0.2-0.8-0.2
				c-0.2,0-0.4,0-0.5,0.1s-0.2,0.2-0.2,0.3c0,0.1,0,0.2,0.1,0.2c0.1,0.1,0.1,0.1,0.2,0.1c0.1,0,0.2,0.1,0.4,0.1
				c0.2,0,0.4,0.1,0.6,0.1c0.1,0,0.3,0.1,0.4,0.2c0.1,0.1,0.2,0.3,0.2,0.5c0,0.3-0.1,0.5-0.3,0.6C53.8,16.3,53.5,16.4,53.1,16.4z
				 M55,13.5h0.5v2.9H55V13.5z M55.3,12.9c-0.1,0-0.2,0-0.3-0.1c-0.1-0.1-0.1-0.1-0.1-0.2c0-0.1,0-0.2,0.1-0.2
				c0.1-0.1,0.2-0.1,0.3-0.1c0.1,0,0.2,0,0.3,0.1c0.1,0.1,0.1,0.1,0.1,0.2c0,0.1,0,0.2-0.1,0.3C55.5,12.9,55.4,12.9,55.3,12.9z
				 M57.6,13.4c0.4,0,0.7,0.1,0.9,0.3c0.2,0.2,0.3,0.5,0.3,0.9v1.8h-0.5V16c-0.1,0.1-0.2,0.2-0.4,0.3c-0.2,0.1-0.4,0.1-0.6,0.1
				c-0.3,0-0.6-0.1-0.8-0.2c-0.2-0.2-0.3-0.4-0.3-0.6s0.1-0.5,0.3-0.6c0.2-0.2,0.5-0.2,0.9-0.2h0.8v-0.1c0-0.2-0.1-0.4-0.2-0.5
				c-0.1-0.1-0.3-0.2-0.6-0.2c-0.2,0-0.3,0-0.5,0.1c-0.2,0.1-0.3,0.1-0.4,0.2l-0.2-0.4c0.2-0.1,0.3-0.2,0.5-0.3
				C57.2,13.5,57.4,13.4,57.6,13.4z M57.5,16c0.2,0,0.4,0,0.5-0.1c0.1-0.1,0.3-0.2,0.3-0.4v-0.4h-0.8c-0.5,0-0.7,0.2-0.7,0.5
				c0,0.1,0.1,0.3,0.2,0.3S57.3,16,57.5,16z M62.6,16.4c-0.3,0-0.6,0-0.8-0.1c-0.3-0.1-0.5-0.2-0.6-0.4l0.2-0.4
				c0.1,0.1,0.3,0.2,0.6,0.3c0.2,0.1,0.5,0.1,0.7,0.1c0.3,0,0.6-0.1,0.7-0.2c0.2-0.1,0.2-0.3,0.2-0.4c0-0.1,0-0.2-0.1-0.3
				c-0.1-0.1-0.2-0.1-0.3-0.2c-0.1,0-0.3-0.1-0.5-0.1c-0.3-0.1-0.5-0.1-0.7-0.2c-0.2-0.1-0.3-0.2-0.5-0.3c-0.1-0.1-0.2-0.3-0.2-0.6
				c0-0.2,0.1-0.4,0.2-0.6c0.1-0.2,0.3-0.3,0.5-0.4c0.2-0.1,0.5-0.1,0.8-0.1c0.2,0,0.5,0,0.7,0.1c0.2,0.1,0.4,0.1,0.6,0.3l-0.2,0.4
				c-0.2-0.1-0.3-0.2-0.5-0.2c-0.2-0.1-0.4-0.1-0.5-0.1c-0.3,0-0.5,0.1-0.7,0.2c-0.2,0.1-0.2,0.3-0.2,0.4c0,0.1,0,0.2,0.1,0.3
				c0.1,0.1,0.2,0.1,0.3,0.2c0.1,0,0.3,0.1,0.5,0.1c0.3,0.1,0.5,0.1,0.7,0.2c0.2,0.1,0.3,0.2,0.5,0.3c0.1,0.1,0.2,0.3,0.2,0.6
				c0,0.2-0.1,0.4-0.2,0.6c-0.1,0.2-0.3,0.3-0.5,0.4C63.2,16.4,62.9,16.4,62.6,16.4z M66.5,16.2c-0.1,0.1-0.2,0.1-0.3,0.2
				c-0.1,0-0.2,0-0.4,0c-0.3,0-0.5-0.1-0.7-0.2c-0.2-0.2-0.2-0.4-0.2-0.7v-1.6h-0.5v-0.4h0.5v-0.6h0.5v0.6h0.8v0.4h-0.8v1.6
				c0,0.2,0,0.3,0.1,0.4c0.1,0.1,0.2,0.1,0.3,0.1c0.2,0,0.3,0,0.4-0.1L66.5,16.2z M67.6,14c0.1-0.2,0.2-0.3,0.4-0.4
				c0.2-0.1,0.4-0.1,0.7-0.1v0.5c0,0-0.1,0-0.1,0c-0.3,0-0.5,0.1-0.7,0.3c-0.2,0.2-0.2,0.4-0.2,0.7v1.5h-0.5v-2.9h0.5V14z M72,14.9
				c0,0,0,0.1,0,0.2h-2.4c0,0.3,0.1,0.5,0.3,0.6c0.2,0.2,0.4,0.2,0.7,0.2c0.4,0,0.6-0.1,0.8-0.4l0.3,0.3c-0.1,0.2-0.3,0.3-0.5,0.4
				c-0.2,0.1-0.4,0.1-0.7,0.1c-0.3,0-0.6-0.1-0.8-0.2c-0.2-0.1-0.4-0.3-0.6-0.5c-0.1-0.2-0.2-0.5-0.2-0.8c0-0.3,0.1-0.5,0.2-0.8
				c0.1-0.2,0.3-0.4,0.5-0.5c0.2-0.1,0.5-0.2,0.8-0.2c0.3,0,0.5,0.1,0.7,0.2c0.2,0.1,0.4,0.3,0.5,0.5C71.9,14.4,72,14.6,72,14.9z
				 M70.5,13.9c-0.3,0-0.5,0.1-0.6,0.2c-0.2,0.2-0.3,0.4-0.3,0.6h1.9c0-0.2-0.1-0.4-0.3-0.6C71,14,70.8,13.9,70.5,13.9z M75.3,14.9
				c0,0,0,0.1,0,0.2H73c0,0.3,0.1,0.5,0.3,0.6c0.2,0.2,0.4,0.2,0.7,0.2c0.4,0,0.6-0.1,0.8-0.4l0.3,0.3c-0.1,0.2-0.3,0.3-0.5,0.4
				c-0.2,0.1-0.4,0.1-0.7,0.1c-0.3,0-0.6-0.1-0.8-0.2c-0.2-0.1-0.4-0.3-0.6-0.5c-0.1-0.2-0.2-0.5-0.2-0.8c0-0.3,0.1-0.5,0.2-0.8
				c0.1-0.2,0.3-0.4,0.5-0.5c0.2-0.1,0.5-0.2,0.8-0.2s0.5,0.1,0.7,0.2c0.2,0.1,0.4,0.3,0.5,0.5C75.3,14.4,75.3,14.6,75.3,14.9z
				 M73.9,13.9c-0.3,0-0.5,0.1-0.6,0.2c-0.2,0.2-0.3,0.4-0.3,0.6h1.9c0-0.2-0.1-0.4-0.3-0.6C74.4,14,74.1,13.9,73.9,13.9z
				 M77.7,16.2c-0.1,0.1-0.2,0.1-0.3,0.2c-0.1,0-0.2,0-0.4,0c-0.3,0-0.5-0.1-0.7-0.2c-0.2-0.2-0.2-0.4-0.2-0.7v-1.6h-0.5v-0.4h0.5
				v-0.6h0.5v0.6h0.8v0.4h-0.8v1.6c0,0.2,0,0.3,0.1,0.4c0.1,0.1,0.2,0.1,0.3,0.1c0.2,0,0.3,0,0.4-0.1L77.7,16.2z M81.4,13.4
				c0.3,0,0.5,0.1,0.8,0.2c0.2,0.1,0.4,0.3,0.5,0.5c0.1,0.2,0.2,0.5,0.2,0.8c0,0.3-0.1,0.6-0.2,0.8c-0.1,0.2-0.3,0.4-0.5,0.5
				c-0.2,0.1-0.5,0.2-0.8,0.2c-0.2,0-0.4,0-0.6-0.1c-0.2-0.1-0.3-0.2-0.4-0.4v1.5h-0.5v-4h0.5v0.5c0.1-0.2,0.3-0.3,0.4-0.4
				C81,13.5,81.2,13.4,81.4,13.4z M81.4,16c0.2,0,0.4,0,0.5-0.1c0.2-0.1,0.3-0.2,0.4-0.4c0.1-0.2,0.1-0.3,0.1-0.5
				c0-0.2,0-0.4-0.1-0.5c-0.1-0.2-0.2-0.3-0.4-0.4c-0.1-0.1-0.3-0.1-0.5-0.1c-0.2,0-0.4,0-0.5,0.1c-0.1,0.1-0.3,0.2-0.4,0.4
				c-0.1,0.2-0.1,0.3-0.1,0.5c0,0.2,0,0.4,0.1,0.5c0.1,0.2,0.2,0.3,0.4,0.4C81,15.9,81.2,16,81.4,16z M83.6,12.3h0.5v4.1h-0.5V12.3z
				 M86.2,13.4c0.4,0,0.7,0.1,0.9,0.3c0.2,0.2,0.3,0.5,0.3,0.9v1.8H87V16c-0.1,0.1-0.2,0.2-0.4,0.3c-0.2,0.1-0.4,0.1-0.6,0.1
				c-0.3,0-0.6-0.1-0.8-0.2C85.1,16,85,15.8,85,15.6s0.1-0.5,0.3-0.6c0.2-0.2,0.5-0.2,0.9-0.2H87v-0.1c0-0.2-0.1-0.4-0.2-0.5
				c-0.1-0.1-0.3-0.2-0.6-0.2c-0.2,0-0.3,0-0.5,0.1c-0.2,0.1-0.3,0.1-0.4,0.2L85,13.8c0.2-0.1,0.3-0.2,0.5-0.3
				C85.8,13.5,86,13.4,86.2,13.4z M86.1,16c0.2,0,0.4,0,0.5-0.1c0.1-0.1,0.3-0.2,0.3-0.4v-0.4h-0.8c-0.5,0-0.7,0.2-0.7,0.5
				c0,0.1,0.1,0.3,0.2,0.3C85.8,16,85.9,16,86.1,16z M90.1,13.4c0.4,0,0.7,0.1,0.9,0.3c0.2,0.2,0.3,0.5,0.3,0.9v1.7h-0.5v-1.6
				c0-0.3-0.1-0.5-0.2-0.6c-0.1-0.1-0.3-0.2-0.6-0.2c-0.3,0-0.5,0.1-0.7,0.3c-0.2,0.2-0.2,0.4-0.2,0.7v1.5h-0.5v-2.9H89v0.4
				c0.1-0.2,0.3-0.3,0.4-0.3C89.6,13.5,89.8,13.4,90.1,13.4z M93.1,16.4c-0.2,0-0.5,0-0.7-0.1c-0.2-0.1-0.4-0.1-0.5-0.2l0.2-0.4
				c0.1,0.1,0.3,0.2,0.5,0.2c0.2,0.1,0.4,0.1,0.6,0.1c0.5,0,0.7-0.1,0.7-0.4c0-0.1,0-0.2-0.1-0.2c-0.1-0.1-0.1-0.1-0.2-0.1
				c-0.1,0-0.2-0.1-0.4-0.1c-0.2,0-0.4-0.1-0.6-0.1c-0.1,0-0.3-0.1-0.4-0.2C92,14.7,92,14.5,92,14.3c0-0.3,0.1-0.5,0.3-0.6
				c0.2-0.2,0.5-0.2,0.9-0.2c0.2,0,0.4,0,0.6,0.1c0.2,0,0.4,0.1,0.5,0.2L94,14.1c-0.2-0.2-0.5-0.2-0.8-0.2c-0.2,0-0.4,0-0.5,0.1
				s-0.2,0.2-0.2,0.3c0,0.1,0,0.2,0.1,0.2c0.1,0.1,0.1,0.1,0.2,0.1c0.1,0,0.2,0.1,0.4,0.1c0.2,0,0.4,0.1,0.6,0.1
				c0.1,0,0.3,0.1,0.4,0.2c0.1,0.1,0.2,0.3,0.2,0.5c0,0.3-0.1,0.5-0.3,0.6C93.8,16.3,93.5,16.4,93.1,16.4z M95.2,16.4
				c-0.1,0-0.2,0-0.3-0.1c-0.1-0.1-0.1-0.2-0.1-0.3c0-0.1,0-0.2,0.1-0.3c0.1-0.1,0.2-0.1,0.3-0.1c0.1,0,0.2,0,0.3,0.1
				c0.1,0.1,0.1,0.2,0.1,0.3c0,0.1,0,0.2-0.1,0.3C95.3,16.4,95.3,16.4,95.2,16.4z M97.8,13.4c0.3,0,0.5,0.1,0.8,0.2
				c0.2,0.1,0.4,0.3,0.5,0.5c0.1,0.2,0.2,0.5,0.2,0.8c0,0.3-0.1,0.6-0.2,0.8c-0.1,0.2-0.3,0.4-0.5,0.5c-0.2,0.1-0.5,0.2-0.8,0.2
				c-0.2,0-0.4,0-0.6-0.1c-0.2-0.1-0.3-0.2-0.4-0.4v1.5h-0.5v-4h0.5v0.5c0.1-0.2,0.3-0.3,0.4-0.4C97.4,13.5,97.6,13.4,97.8,13.4z
				 M97.8,16c0.2,0,0.4,0,0.5-0.1c0.2-0.1,0.3-0.2,0.4-0.4c0.1-0.2,0.1-0.3,0.1-0.5c0-0.2,0-0.4-0.1-0.5c-0.1-0.2-0.2-0.3-0.4-0.4
				c-0.1-0.1-0.3-0.1-0.5-0.1c-0.2,0-0.4,0-0.5,0.1c-0.1,0.1-0.3,0.2-0.4,0.4c-0.1,0.2-0.1,0.3-0.1,0.5c0,0.2,0,0.4,0.1,0.5
				c0.1,0.2,0.2,0.3,0.4,0.4C97.4,15.9,97.6,16,97.8,16z M102.8,12.3v4.1h-0.5v-0.5c-0.1,0.2-0.3,0.3-0.4,0.4
				c-0.2,0.1-0.4,0.1-0.6,0.1c-0.3,0-0.5-0.1-0.8-0.2c-0.2-0.1-0.4-0.3-0.5-0.5c-0.1-0.2-0.2-0.5-0.2-0.8c0-0.3,0.1-0.6,0.2-0.8
				c0.1-0.2,0.3-0.4,0.5-0.5c0.2-0.1,0.5-0.2,0.8-0.2c0.2,0,0.4,0,0.6,0.1c0.2,0.1,0.3,0.2,0.4,0.3v-1.6H102.8z M101.3,16
				c0.2,0,0.4,0,0.5-0.1c0.2-0.1,0.3-0.2,0.4-0.4c0.1-0.2,0.1-0.3,0.1-0.5c0-0.2,0-0.4-0.1-0.5c-0.1-0.2-0.2-0.3-0.4-0.4
				c-0.2-0.1-0.3-0.1-0.5-0.1c-0.2,0-0.4,0-0.5,0.1c-0.1,0.1-0.3,0.2-0.4,0.4c-0.1,0.2-0.1,0.3-0.1,0.5c0,0.2,0,0.4,0.1,0.5
				c0.1,0.2,0.2,0.3,0.4,0.4C101,15.9,101.1,16,101.3,16z M104.9,12.7c-0.3,0-0.5,0.2-0.5,0.5v0.3h0.9v0.4h-0.8v2.5h-0.5v-2.5h-0.5
				v-0.4h0.5v-0.3c0-0.3,0.1-0.5,0.3-0.7c0.2-0.2,0.4-0.3,0.7-0.3c0.1,0,0.2,0,0.3,0c0.1,0,0.2,0.1,0.3,0.1l-0.2,0.4
				C105.2,12.7,105.1,12.7,104.9,12.7z"/>
			<path class="st5" d="M9.4,0.6h123.1v-1.1H9.4V0.6z M136.4,4.4v19.9h1.1V4.4H136.4z M132.6,28.2H9.4v1.1h123.1V28.2z M5.6,24.4
				V4.4H4.4v19.9H5.6z M9.4,28.2c-2.1,0-3.9-1.7-3.9-3.9H4.4c0,2.8,2.2,5,5,5V28.2z M136.4,24.4c0,2.1-1.7,3.9-3.9,3.9v1.1
				c2.8,0,5-2.2,5-5H136.4z M132.6,0.6c2.1,0,3.9,1.7,3.9,3.9h1.1c0-2.8-2.2-5-5-5V0.6z M9.4-0.6c-2.8,0-5,2.2-5,5h1.1
				c0-2.1,1.7-3.9,3.9-3.9V-0.6z"/>
		</g>
		<g>
			<path class="st1" d="M5,37.2c0-2.4,2-4.4,4.4-4.4h123.1c2.4,0,4.4,2,4.4,4.4v19.9c0,2.4-2,4.4-4.4,4.4H9.4c-2.4,0-4.4-2-4.4-4.4
				V37.2z"/>
			<g>
				<defs>
					<rect id="SVGID_00000048469279824171267960000001905068988500705975_" x="13.9" y="41.6" width="11.1" height="11.1"/>
				</defs>
				<clipPath id="SVGID_00000142880217345330480430000013776671961486783147_">
					<use xlink:href="#SVGID_00000048469279824171267960000001905068988500705975_"  style="overflow:visible;"/>
				</clipPath>
				<g style="clip-path:url(#SVGID_00000142880217345330480430000013776671961486783147_);">
					<path class="st3" d="M21.9,44.4h1.8c0,0,0,0,0.1,0c0,0,0,0,0-0.1c0,0,0,0,0-0.1c0,0,0,0,0-0.1l-2.4-2.4c0,0,0,0-0.1,0
						c0,0,0,0-0.1,0c0,0,0,0-0.1,0c0,0,0,0,0,0.1v1.8c0,0.2,0.1,0.4,0.2,0.5C21.6,44.3,21.7,44.4,21.9,44.4z"/>
					<path class="st3" d="M19.4,48c0,0-0.2,0-0.2,0.1v1.8c0,0,0,0,0,0c0,0,0,0,0,0c0,0,0,0,0,0c0,0,0,0,0.1,0
						c0.2-0.1,0.4-0.2,0.5-0.4C20,49.4,20,49.2,20,49c0-0.2-0.1-0.4-0.2-0.6C19.7,48.2,19.6,48.1,19.4,48L19.4,48z"/>
					<path class="st3" d="M17.3,47.9H17c0,0-0.1,0-0.1,0c0,0,0,0.1,0,0.1v0.6c0,0,0,0.1,0,0.1c0,0,0.1,0,0.1,0h0.3
						c0.1,0,0.2,0,0.3-0.1c0.1-0.1,0.1-0.2,0.1-0.3c0-0.1,0-0.2-0.1-0.3C17.5,48,17.4,47.9,17.3,47.9L17.3,47.9z"/>
					<path class="st3" d="M23.9,44.9h-2c-0.3,0-0.6-0.1-0.8-0.3c-0.2-0.2-0.3-0.5-0.3-0.8v-2c0,0,0-0.1,0-0.1c0,0-0.1,0-0.1,0h-5
						c-0.2,0-0.5,0.1-0.7,0.3c-0.2,0.2-0.3,0.4-0.3,0.7v9.2c0,0.2,0.1,0.5,0.3,0.7c0.2,0.2,0.4,0.3,0.7,0.3h7.4
						c0.2,0,0.5-0.1,0.7-0.3c0.2-0.2,0.3-0.4,0.3-0.7V45C24,45,24,44.9,23.9,44.9C24,44.9,23.9,44.9,23.9,44.9L23.9,44.9z
						 M17.3,49.3H17c0,0-0.1,0-0.1,0c0,0,0,0.1,0,0.1v1c0,0.1,0,0.1-0.1,0.2s-0.1,0.1-0.2,0.1c-0.1,0-0.1,0-0.2-0.1
						c-0.1-0.1-0.1-0.1-0.1-0.2v-2.8c0,0,0-0.1,0-0.1c0,0,0-0.1,0.1-0.1c0,0,0.1,0,0.1-0.1c0,0,0.1,0,0.1,0h0.7
						c0.3,0,0.5,0.1,0.7,0.3c0.2,0.2,0.3,0.4,0.3,0.7c0,0.3-0.1,0.5-0.3,0.7C17.8,49.2,17.6,49.3,17.3,49.3L17.3,49.3z M18.9,50.7
						c-0.1,0-0.1,0-0.2-0.1c-0.1-0.1-0.1-0.1-0.1-0.2v-2.8c0,0,0-0.1,0-0.1c0,0,0-0.1,0.1-0.1c0,0,0.1,0,0.1-0.1c0,0,0.1,0,0.1,0
						c0.4,0,0.9,0.2,1.2,0.5c0.3,0.3,0.5,0.7,0.5,1.2s-0.2,0.9-0.5,1.2C19.8,50.5,19.4,50.7,18.9,50.7L18.9,50.7z M22.6,47.9h-0.9
						c0,0-0.1,0-0.1,0.1c0,0-0.1,0.1-0.1,0.1v0.5c0,0,0,0.1,0,0.1c0,0,0.1,0,0.1,0h0.5c0.1,0,0.1,0,0.2,0.1s0.1,0.1,0.1,0.2
						c0,0.1,0,0.1-0.1,0.2c-0.1,0.1-0.1,0.1-0.2,0.1h-0.5c0,0-0.1,0-0.1,0c0,0,0,0.1,0,0.1v1c0,0.1,0,0.1-0.1,0.2s-0.1,0.1-0.2,0.1
						c-0.1,0-0.1,0-0.2-0.1c-0.1-0.1-0.1-0.1-0.1-0.2v-2.3c0-0.2,0.1-0.4,0.2-0.5c0.1-0.1,0.3-0.2,0.5-0.2h0.9c0.1,0,0.1,0,0.2,0.1
						s0.1,0.1,0.1,0.2c0,0.1,0,0.1-0.1,0.2C22.8,47.9,22.7,47.9,22.6,47.9z"/>
				</g>
			</g>
			<path class="st4" d="M32.4,48.2h-2.1l-0.4,1h-0.6l1.8-3.9h0.5l1.8,3.9h-0.6L32.4,48.2z M32.2,47.8l-0.8-1.9l-0.8,1.9H32.2z
				 M34.4,46.7c0.1-0.2,0.2-0.3,0.4-0.4c0.2-0.1,0.4-0.1,0.7-0.1v0.5c0,0-0.1,0-0.1,0c-0.3,0-0.5,0.1-0.7,0.3
				c-0.2,0.2-0.2,0.4-0.2,0.7v1.5h-0.5v-2.9h0.5V46.7z M37.4,49.2c-0.3,0-0.6-0.1-0.8-0.2c-0.2-0.1-0.4-0.3-0.5-0.5
				c-0.1-0.2-0.2-0.5-0.2-0.8c0-0.3,0.1-0.5,0.2-0.8c0.1-0.2,0.3-0.4,0.5-0.5c0.2-0.1,0.5-0.2,0.8-0.2c0.3,0,0.5,0.1,0.7,0.2
				c0.2,0.1,0.4,0.3,0.5,0.5l-0.4,0.3c-0.1-0.1-0.2-0.2-0.3-0.3c-0.1-0.1-0.3-0.1-0.5-0.1c-0.2,0-0.4,0-0.5,0.1
				c-0.2,0.1-0.3,0.2-0.4,0.4c-0.1,0.2-0.1,0.3-0.1,0.5c0,0.2,0,0.4,0.1,0.5c0.1,0.2,0.2,0.3,0.4,0.4c0.2,0.1,0.3,0.1,0.5,0.1
				c0.2,0,0.3,0,0.5-0.1c0.1-0.1,0.3-0.2,0.3-0.3l0.4,0.3c-0.1,0.2-0.3,0.4-0.5,0.5C37.9,49.2,37.7,49.2,37.4,49.2z M40.8,46.2
				c0.4,0,0.7,0.1,0.9,0.3c0.2,0.2,0.3,0.5,0.3,0.9v1.7h-0.5v-1.6c0-0.3-0.1-0.5-0.2-0.6c-0.1-0.1-0.3-0.2-0.6-0.2
				c-0.3,0-0.5,0.1-0.7,0.3c-0.2,0.2-0.2,0.4-0.2,0.7v1.5h-0.5v-4.1h0.5v1.6c0.1-0.1,0.3-0.2,0.4-0.3C40.4,46.3,40.6,46.2,40.8,46.2
				z M43,46.2h0.5v2.9H43V46.2z M43.3,45.7c-0.1,0-0.2,0-0.3-0.1c-0.1-0.1-0.1-0.1-0.1-0.2c0-0.1,0-0.2,0.1-0.2
				c0.1-0.1,0.2-0.1,0.3-0.1c0.1,0,0.2,0,0.3,0.1c0.1,0.1,0.1,0.1,0.1,0.2c0,0.1,0,0.2-0.1,0.3C43.5,45.6,43.4,45.7,43.3,45.7z
				 M46.2,49c-0.1,0.1-0.2,0.1-0.3,0.2c-0.1,0-0.2,0-0.4,0c-0.3,0-0.5-0.1-0.7-0.2c-0.2-0.2-0.2-0.4-0.2-0.7v-1.6h-0.5v-0.4h0.5
				v-0.6h0.5v0.6H46v0.4h-0.8v1.6c0,0.2,0,0.3,0.1,0.4c0.1,0.1,0.2,0.1,0.3,0.1c0.2,0,0.3,0,0.4-0.1L46.2,49z M49.4,47.7
				c0,0,0,0.1,0,0.2H47c0,0.3,0.1,0.5,0.3,0.6c0.2,0.2,0.4,0.2,0.7,0.2c0.4,0,0.6-0.1,0.8-0.4l0.3,0.3c-0.1,0.2-0.3,0.3-0.5,0.4
				c-0.2,0.1-0.4,0.1-0.7,0.1c-0.3,0-0.6-0.1-0.8-0.2c-0.2-0.1-0.4-0.3-0.6-0.5c-0.1-0.2-0.2-0.5-0.2-0.8c0-0.3,0.1-0.5,0.2-0.8
				c0.1-0.2,0.3-0.4,0.5-0.5c0.2-0.1,0.5-0.2,0.8-0.2c0.3,0,0.5,0.1,0.7,0.2c0.2,0.1,0.4,0.3,0.5,0.5C49.3,47.2,49.4,47.4,49.4,47.7
				z M48,46.7c-0.3,0-0.5,0.1-0.6,0.2c-0.2,0.2-0.3,0.4-0.3,0.6h1.9c0-0.2-0.1-0.4-0.3-0.6C48.4,46.7,48.2,46.7,48,46.7z M51.4,49.2
				c-0.3,0-0.6-0.1-0.8-0.2c-0.2-0.1-0.4-0.3-0.5-0.5c-0.1-0.2-0.2-0.5-0.2-0.8c0-0.3,0.1-0.5,0.2-0.8c0.1-0.2,0.3-0.4,0.5-0.5
				c0.2-0.1,0.5-0.2,0.8-0.2c0.3,0,0.5,0.1,0.7,0.2c0.2,0.1,0.4,0.3,0.5,0.5l-0.4,0.3c-0.1-0.1-0.2-0.2-0.3-0.3
				c-0.1-0.1-0.3-0.1-0.5-0.1c-0.2,0-0.4,0-0.5,0.1c-0.2,0.1-0.3,0.2-0.4,0.4c-0.1,0.2-0.1,0.3-0.1,0.5c0,0.2,0,0.4,0.1,0.5
				c0.1,0.2,0.2,0.3,0.4,0.4c0.2,0.1,0.3,0.1,0.5,0.1c0.2,0,0.3,0,0.5-0.1c0.1-0.1,0.3-0.2,0.3-0.3l0.4,0.3
				c-0.1,0.2-0.3,0.4-0.5,0.5C51.9,49.2,51.7,49.2,51.4,49.2z M55,49c-0.1,0.1-0.2,0.1-0.3,0.2c-0.1,0-0.2,0-0.4,0
				c-0.3,0-0.5-0.1-0.7-0.2c-0.2-0.2-0.2-0.4-0.2-0.7v-1.6h-0.5v-0.4h0.5v-0.6H54v0.6h0.8v0.4H54v1.6c0,0.2,0,0.3,0.1,0.4
				c0.1,0.1,0.2,0.1,0.3,0.1c0.2,0,0.3,0,0.4-0.1L55,49z M56.5,49.2c-0.2,0-0.5,0-0.7-0.1c-0.2-0.1-0.4-0.1-0.5-0.2l0.2-0.4
				c0.1,0.1,0.3,0.2,0.5,0.2c0.2,0.1,0.4,0.1,0.6,0.1c0.5,0,0.7-0.1,0.7-0.4c0-0.1,0-0.2-0.1-0.2c-0.1-0.1-0.1-0.1-0.2-0.1
				c-0.1,0-0.2-0.1-0.4-0.1c-0.2,0-0.4-0.1-0.6-0.1c-0.1,0-0.3-0.1-0.4-0.2c-0.1-0.1-0.2-0.3-0.2-0.5c0-0.3,0.1-0.5,0.3-0.6
				c0.2-0.2,0.5-0.2,0.9-0.2c0.2,0,0.4,0,0.6,0.1c0.2,0,0.4,0.1,0.5,0.2l-0.2,0.4c-0.2-0.2-0.5-0.2-0.8-0.2c-0.2,0-0.4,0-0.5,0.1
				c-0.1,0.1-0.2,0.2-0.2,0.3c0,0.1,0,0.2,0.1,0.2c0.1,0.1,0.1,0.1,0.2,0.1c0.1,0,0.2,0.1,0.4,0.1c0.2,0,0.4,0.1,0.6,0.1
				c0.1,0,0.3,0.1,0.4,0.2c0.1,0.1,0.2,0.3,0.2,0.5c0,0.3-0.1,0.5-0.3,0.6C57.2,49.1,56.9,49.2,56.5,49.2z M61.5,46.2
				c0.3,0,0.5,0.1,0.8,0.2c0.2,0.1,0.4,0.3,0.5,0.5c0.1,0.2,0.2,0.5,0.2,0.8s-0.1,0.6-0.2,0.8c-0.1,0.2-0.3,0.4-0.5,0.5
				c-0.2,0.1-0.5,0.2-0.8,0.2c-0.2,0-0.4,0-0.6-0.1c-0.2-0.1-0.3-0.2-0.4-0.4v1.5h-0.5v-4h0.5v0.5c0.1-0.2,0.3-0.3,0.4-0.4
				C61,46.3,61.2,46.2,61.5,46.2z M61.4,48.7c0.2,0,0.4,0,0.5-0.1c0.2-0.1,0.3-0.2,0.4-0.4c0.1-0.2,0.1-0.3,0.1-0.5
				c0-0.2,0-0.4-0.1-0.5c-0.1-0.2-0.2-0.3-0.4-0.4c-0.1-0.1-0.3-0.1-0.5-0.1c-0.2,0-0.4,0-0.5,0.1c-0.1,0.1-0.3,0.2-0.4,0.4
				c-0.1,0.2-0.1,0.3-0.1,0.5c0,0.2,0,0.4,0.1,0.5c0.1,0.2,0.2,0.3,0.4,0.4C61.1,48.7,61.2,48.7,61.4,48.7z M63.7,45.1h0.5v4.1h-0.5
				V45.1z M66.3,46.2c0.4,0,0.7,0.1,0.9,0.3c0.2,0.2,0.3,0.5,0.3,0.9v1.8H67v-0.4c-0.1,0.1-0.2,0.2-0.4,0.3
				c-0.2,0.1-0.4,0.1-0.6,0.1c-0.3,0-0.6-0.1-0.8-0.2c-0.2-0.2-0.3-0.4-0.3-0.6c0-0.3,0.1-0.5,0.3-0.6c0.2-0.2,0.5-0.2,0.9-0.2H67
				v-0.1c0-0.2-0.1-0.4-0.2-0.5c-0.1-0.1-0.3-0.2-0.6-0.2c-0.2,0-0.3,0-0.5,0.1c-0.2,0.1-0.3,0.1-0.4,0.2l-0.2-0.4
				c0.2-0.1,0.3-0.2,0.5-0.3C65.8,46.3,66,46.2,66.3,46.2z M66.2,48.8c0.2,0,0.4,0,0.5-0.1c0.1-0.1,0.3-0.2,0.3-0.4v-0.4h-0.8
				c-0.5,0-0.7,0.2-0.7,0.5c0,0.1,0.1,0.3,0.2,0.3S66,48.8,66.2,48.8z M70.1,46.2c0.4,0,0.7,0.1,0.9,0.3c0.2,0.2,0.3,0.5,0.3,0.9
				v1.7h-0.5v-1.6c0-0.3-0.1-0.5-0.2-0.6c-0.1-0.1-0.3-0.2-0.6-0.2c-0.3,0-0.5,0.1-0.7,0.3c-0.2,0.2-0.2,0.4-0.2,0.7v1.5h-0.5v-2.9
				H69v0.4c0.1-0.2,0.3-0.3,0.4-0.3C69.7,46.3,69.9,46.2,70.1,46.2z M73.1,49.2c-0.2,0-0.5,0-0.7-0.1c-0.2-0.1-0.4-0.1-0.5-0.2
				l0.2-0.4c0.1,0.1,0.3,0.2,0.5,0.2c0.2,0.1,0.4,0.1,0.6,0.1c0.5,0,0.7-0.1,0.7-0.4c0-0.1,0-0.2-0.1-0.2c-0.1-0.1-0.1-0.1-0.2-0.1
				c-0.1,0-0.2-0.1-0.4-0.1c-0.2,0-0.4-0.1-0.6-0.1c-0.1,0-0.3-0.1-0.4-0.2c-0.1-0.1-0.2-0.3-0.2-0.5c0-0.3,0.1-0.5,0.3-0.6
				c0.2-0.2,0.5-0.2,0.9-0.2c0.2,0,0.4,0,0.6,0.1c0.2,0,0.4,0.1,0.5,0.2l-0.2,0.4c-0.2-0.2-0.5-0.2-0.8-0.2c-0.2,0-0.4,0-0.5,0.1
				c-0.1,0.1-0.2,0.2-0.2,0.3c0,0.1,0,0.2,0.1,0.2c0.1,0.1,0.1,0.1,0.2,0.1c0.1,0,0.2,0.1,0.4,0.1c0.2,0,0.4,0.1,0.6,0.1
				c0.1,0,0.3,0.1,0.4,0.2c0.1,0.1,0.2,0.3,0.2,0.5c0,0.3-0.1,0.5-0.3,0.6C73.8,49.1,73.5,49.2,73.1,49.2z M75.2,49.2
				c-0.1,0-0.2,0-0.3-0.1c-0.1-0.1-0.1-0.2-0.1-0.3c0-0.1,0-0.2,0.1-0.3c0.1-0.1,0.2-0.1,0.3-0.1c0.1,0,0.2,0,0.3,0.1
				c0.1,0.1,0.1,0.2,0.1,0.3s0,0.2-0.1,0.3C75.4,49.2,75.3,49.2,75.2,49.2z M77.9,46.2c0.3,0,0.5,0.1,0.8,0.2
				c0.2,0.1,0.4,0.3,0.5,0.5c0.1,0.2,0.2,0.5,0.2,0.8s-0.1,0.6-0.2,0.8c-0.1,0.2-0.3,0.4-0.5,0.5c-0.2,0.1-0.5,0.2-0.8,0.2
				c-0.2,0-0.4,0-0.6-0.1c-0.2-0.1-0.3-0.2-0.4-0.4v1.5h-0.5v-4h0.5v0.5c0.1-0.2,0.3-0.3,0.4-0.4C77.5,46.3,77.7,46.2,77.9,46.2z
				 M77.8,48.7c0.2,0,0.4,0,0.5-0.1c0.2-0.1,0.3-0.2,0.4-0.4c0.1-0.2,0.1-0.3,0.1-0.5c0-0.2,0-0.4-0.1-0.5c-0.1-0.2-0.2-0.3-0.4-0.4
				c-0.1-0.1-0.3-0.1-0.5-0.1c-0.2,0-0.4,0-0.5,0.1c-0.1,0.1-0.3,0.2-0.4,0.4c-0.1,0.2-0.1,0.3-0.1,0.5c0,0.2,0,0.4,0.1,0.5
				c0.1,0.2,0.2,0.3,0.4,0.4C77.5,48.7,77.6,48.7,77.8,48.7z M82.9,45.1v4.1h-0.5v-0.5c-0.1,0.2-0.3,0.3-0.4,0.4
				c-0.2,0.1-0.4,0.1-0.6,0.1c-0.3,0-0.5-0.1-0.8-0.2c-0.2-0.1-0.4-0.3-0.5-0.5c-0.1-0.2-0.2-0.5-0.2-0.8s0.1-0.6,0.2-0.8
				c0.1-0.2,0.3-0.4,0.5-0.5c0.2-0.1,0.5-0.2,0.8-0.2c0.2,0,0.4,0,0.6,0.1c0.2,0.1,0.3,0.2,0.4,0.3v-1.6H82.9z M81.3,48.7
				c0.2,0,0.4,0,0.5-0.1c0.2-0.1,0.3-0.2,0.4-0.4c0.1-0.2,0.1-0.3,0.1-0.5c0-0.2,0-0.4-0.1-0.5c-0.1-0.2-0.2-0.3-0.4-0.4
				s-0.3-0.1-0.5-0.1c-0.2,0-0.4,0-0.5,0.1c-0.1,0.1-0.3,0.2-0.4,0.4c-0.1,0.2-0.1,0.3-0.1,0.5c0,0.2,0,0.4,0.1,0.5
				c0.1,0.2,0.2,0.3,0.4,0.4C81,48.7,81.2,48.7,81.3,48.7z M84.9,45.5c-0.3,0-0.5,0.2-0.5,0.5v0.3h0.9v0.4h-0.8v2.5h-0.5v-2.5h-0.5
				v-0.4h0.5V46c0-0.3,0.1-0.5,0.3-0.7c0.2-0.2,0.4-0.3,0.7-0.3c0.1,0,0.2,0,0.3,0c0.1,0,0.2,0.1,0.3,0.1l-0.2,0.4
				C85.2,45.5,85.1,45.5,84.9,45.5z"/>
			<path class="st5" d="M9.4,33.3h123.1v-1.1H9.4V33.3z M136.4,37.2v19.9h1.1V37.2H136.4z M132.6,61H9.4v1.1h123.1V61z M5.6,57.1
				V37.2H4.4v19.9H5.6z M9.4,61c-2.1,0-3.9-1.7-3.9-3.9H4.4c0,2.8,2.2,5,5,5V61z M136.4,57.1c0,2.1-1.7,3.9-3.9,3.9v1.1
				c2.8,0,5-2.2,5-5H136.4z M132.6,33.3c2.1,0,3.9,1.7,3.9,3.9h1.1c0-2.8-2.2-5-5-5V33.3z M9.4,32.2c-2.8,0-5,2.2-5,5h1.1
				c0-2.1,1.7-3.9,3.9-3.9V32.2z"/>
		</g>
	</g>
</g>
</svg>
