<svg width="344" height="130" viewBox="0 0 344 130" fill="none" xmlns="http://www.w3.org/2000/svg">
<path d="M0.58 4H6.29V5.19H4.11V11H2.76V5.19H0.58V4ZM8.15688 6.68C8.33688 6.33333 8.58021 6.07 8.88688 5.89C9.20021 5.70333 9.56354 5.60667 9.97688 5.6V6.86C9.42354 6.82667 8.98021 6.95667 8.64688 7.25C8.32021 7.53667 8.15688 7.92667 8.15688 8.42V11H6.85688V5.65H8.15688V6.68ZM13.8645 11V10.35C13.6779 10.5833 13.4379 10.76 13.1445 10.88C12.8512 11 12.5145 11.06 12.1345 11.06C11.7612 11.06 11.4312 10.99 11.1445 10.85C10.8645 10.7033 10.6479 10.5033 10.4945 10.25C10.3412 9.99667 10.2645 9.71333 10.2645 9.4C10.2645 8.9 10.4412 8.51 10.7945 8.23C11.1479 7.94333 11.6479 7.79667 12.2945 7.79H13.8545V7.65C13.8545 7.33667 13.7512 7.09333 13.5445 6.92C13.3379 6.74667 13.0379 6.66 12.6445 6.66C12.1379 6.66 11.6079 6.82667 11.0545 7.16L10.5845 6.26C11.0045 6.02667 11.3845 5.86 11.7245 5.76C12.0712 5.65333 12.4745 5.6 12.9345 5.6C13.6279 5.6 14.1645 5.76667 14.5445 6.1C14.9312 6.43333 15.1279 6.9 15.1345 7.5L15.1445 11H13.8645ZM12.4445 10.06C12.8179 10.06 13.1379 9.97333 13.4045 9.8C13.6712 9.62 13.8212 9.4 13.8545 9.14V8.66H12.5045C12.1579 8.66 11.9012 8.71333 11.7345 8.82C11.5745 8.92 11.4945 9.08667 11.4945 9.32C11.4945 9.54667 11.5779 9.72667 11.7445 9.86C11.9179 9.99333 12.1512 10.06 12.4445 10.06ZM21.763 3.58V11H20.463V10.14C20.2696 10.44 20.0196 10.67 19.713 10.83C19.413 10.9833 19.063 11.06 18.663 11.06C18.1563 11.06 17.7096 10.9467 17.323 10.72C16.943 10.4867 16.6463 10.1633 16.433 9.75C16.2196 9.33 16.113 8.85 16.113 8.31C16.113 7.77667 16.2163 7.30667 16.423 6.9C16.6363 6.48667 16.933 6.16667 17.313 5.94C17.6996 5.71333 18.1396 5.6 18.633 5.6C19.0396 5.6 19.3963 5.68 19.703 5.84C20.0096 6 20.263 6.23 20.463 6.53V3.58H21.763ZM18.943 9.97C19.3896 9.97 19.753 9.82 20.033 9.52C20.3196 9.21333 20.463 8.82 20.463 8.34C20.463 7.86 20.3196 7.47 20.033 7.17C19.753 6.86333 19.3896 6.71 18.943 6.71C18.4963 6.71 18.133 6.86333 17.853 7.17C17.573 7.47 17.4296 7.86 17.423 8.34C17.4296 8.82 17.573 9.21333 17.853 9.52C18.133 9.82 18.4963 9.97 18.943 9.97ZM23.4291 5.65H24.7291V11H23.4291V5.65ZM24.0691 3.35C24.2825 3.35 24.4591 3.42333 24.5991 3.57C24.7391 3.71667 24.8091 3.90333 24.8091 4.13C24.8091 4.35 24.7391 4.53333 24.5991 4.68C24.4591 4.82667 24.2825 4.9 24.0691 4.9C23.8558 4.9 23.6791 4.82667 23.5391 4.68C23.3991 4.53333 23.3291 4.35 23.3291 4.13C23.3291 3.90333 23.3991 3.71667 23.5391 3.57C23.6791 3.42333 23.8558 3.35 24.0691 3.35ZM28.5693 5.61C29.4226 5.61 30.0626 5.85333 30.4893 6.34C30.9226 6.82667 31.1393 7.51 31.1393 8.39C31.1393 8.56333 31.136 8.69333 31.1293 8.78H27.1793C27.266 9.16 27.4426 9.46 27.7093 9.68C27.9826 9.89333 28.316 10 28.7093 10C28.9826 10 29.2426 9.95 29.4893 9.85C29.7426 9.74333 29.9626 9.59333 30.1493 9.4L30.8493 10.13C30.5826 10.4233 30.256 10.65 29.8693 10.81C29.4893 10.97 29.066 11.05 28.5993 11.05C28.0526 11.05 27.5693 10.9367 27.1493 10.71C26.736 10.4833 26.416 10.1667 26.1893 9.76C25.9626 9.34667 25.8493 8.87333 25.8493 8.34C25.8493 7.80667 25.9626 7.33333 26.1893 6.92C26.4226 6.50667 26.746 6.18667 27.1593 5.96C27.5726 5.72667 28.0426 5.61 28.5693 5.61ZM29.9493 7.91C29.936 7.51667 29.806 7.20333 29.5593 6.97C29.3126 6.73667 28.986 6.62 28.5793 6.62C28.1993 6.62 27.8793 6.73667 27.6193 6.97C27.366 7.19667 27.2093 7.51 27.1493 7.91H29.9493ZM37.8784 7.1C37.6184 6.94667 37.3484 6.82667 37.0684 6.74C36.7951 6.65333 36.5418 6.61 36.3084 6.61C36.0884 6.61 35.9118 6.65 35.7784 6.73C35.6518 6.80333 35.5884 6.92 35.5884 7.08C35.5884 7.24667 35.6684 7.37667 35.8284 7.47C35.9951 7.55667 36.2551 7.65 36.6084 7.75C36.9818 7.86333 37.2884 7.97667 37.5284 8.09C37.7684 8.19667 37.9751 8.36 38.1484 8.58C38.3284 8.79333 38.4184 9.07667 38.4184 9.43C38.4184 9.95 38.2184 10.35 37.8184 10.63C37.4184 10.91 36.9151 11.05 36.3084 11.05C35.8951 11.05 35.4918 10.9867 35.0984 10.86C34.7051 10.7267 34.3718 10.54 34.0984 10.3L34.5484 9.39C34.7884 9.59667 35.0751 9.76 35.4084 9.88C35.7418 9.99333 36.0584 10.05 36.3584 10.05C36.5984 10.05 36.7884 10.01 36.9284 9.93C37.0751 9.84333 37.1484 9.71667 37.1484 9.55C37.1484 9.36333 37.0651 9.22333 36.8984 9.13C36.7318 9.03667 36.4618 8.93333 36.0884 8.82C35.7284 8.71333 35.4351 8.61 35.2084 8.51C34.9818 8.40333 34.7851 8.24667 34.6184 8.04C34.4518 7.82667 34.3684 7.55 34.3684 7.21C34.3684 6.68333 34.5584 6.28333 34.9384 6.01C35.3251 5.73 35.8084 5.59 36.3884 5.59C36.7418 5.59 37.0884 5.64 37.4284 5.74C37.7751 5.84 38.0818 5.98 38.3484 6.16L37.8784 7.1ZM41.7627 5.61C42.616 5.61 43.256 5.85333 43.6827 6.34C44.116 6.82667 44.3327 7.51 44.3327 8.39C44.3327 8.56333 44.3293 8.69333 44.3227 8.78H40.3727C40.4593 9.16 40.636 9.46 40.9027 9.68C41.176 9.89333 41.5093 10 41.9027 10C42.176 10 42.436 9.95 42.6827 9.85C42.936 9.74333 43.156 9.59333 43.3427 9.4L44.0427 10.13C43.776 10.4233 43.4493 10.65 43.0627 10.81C42.6827 10.97 42.2593 11.05 41.7927 11.05C41.246 11.05 40.7627 10.9367 40.3427 10.71C39.9293 10.4833 39.6093 10.1667 39.3827 9.76C39.156 9.34667 39.0427 8.87333 39.0427 8.34C39.0427 7.80667 39.156 7.33333 39.3827 6.92C39.616 6.50667 39.9393 6.18667 40.3527 5.96C40.766 5.72667 41.236 5.61 41.7627 5.61ZM43.1427 7.91C43.1293 7.51667 42.9993 7.20333 42.7527 6.97C42.506 6.73667 42.1793 6.62 41.7727 6.62C41.3927 6.62 41.0727 6.73667 40.8127 6.97C40.5593 7.19667 40.4027 7.51 40.3427 7.91H43.1427ZM46.7506 6.68C46.9306 6.33333 47.174 6.07 47.4806 5.89C47.794 5.70333 48.1573 5.60667 48.5706 5.6V6.86C48.0173 6.82667 47.574 6.95667 47.2406 7.25C46.914 7.53667 46.7506 7.92667 46.7506 8.42V11H45.4506V5.65H46.7506V6.68ZM48.9177 5.66L50.2777 5.65L51.6777 9.72L53.0477 5.65H54.3577L52.3177 11H50.9777L48.9177 5.66ZM55.1088 5.65H56.4088V11H55.1088V5.65ZM55.7488 3.35C55.9622 3.35 56.1388 3.42333 56.2788 3.57C56.4188 3.71667 56.4888 3.90333 56.4888 4.13C56.4888 4.35 56.4188 4.53333 56.2788 4.68C56.1388 4.82667 55.9622 4.9 55.7488 4.9C55.5355 4.9 55.3588 4.82667 55.2188 4.68C55.0788 4.53333 55.0088 4.35 55.0088 4.13C55.0088 3.90333 55.0788 3.71667 55.2188 3.57C55.3588 3.42333 55.5355 3.35 55.7488 3.35ZM61.699 7.34C61.339 6.94667 60.8723 6.75 60.299 6.75C59.8657 6.75 59.5123 6.89667 59.239 7.19C58.9723 7.48333 58.839 7.86333 58.839 8.33C58.839 8.81 58.9723 9.19667 59.239 9.49C59.5123 9.78333 59.8657 9.93 60.299 9.93C60.939 9.93 61.419 9.72 61.739 9.3L62.549 9.97C62.309 10.3167 61.9923 10.5833 61.599 10.77C61.2057 10.9567 60.749 11.05 60.229 11.05C59.7023 11.05 59.2323 10.9367 58.819 10.71C58.4123 10.4833 58.0957 10.1667 57.869 9.76C57.6423 9.34667 57.529 8.87333 57.529 8.34C57.529 7.8 57.6423 7.32333 57.869 6.91C58.1023 6.49667 58.4223 6.17667 58.829 5.95C59.2423 5.72333 59.7157 5.61 60.249 5.61C60.7357 5.61 61.169 5.69667 61.549 5.87C61.9357 6.03667 62.249 6.27667 62.489 6.59L61.699 7.34ZM65.708 5.61C66.5613 5.61 67.2013 5.85333 67.628 6.34C68.0613 6.82667 68.278 7.51 68.278 8.39C68.278 8.56333 68.2746 8.69333 68.268 8.78H64.318C64.4046 9.16 64.5813 9.46 64.848 9.68C65.1213 9.89333 65.4546 10 65.848 10C66.1213 10 66.3813 9.95 66.628 9.85C66.8813 9.74333 67.1013 9.59333 67.288 9.4L67.988 10.13C67.7213 10.4233 67.3946 10.65 67.008 10.81C66.628 10.97 66.2046 11.05 65.738 11.05C65.1913 11.05 64.708 10.9367 64.288 10.71C63.8746 10.4833 63.5546 10.1667 63.328 9.76C63.1013 9.34667 62.988 8.87333 62.988 8.34C62.988 7.80667 63.1013 7.33333 63.328 6.92C63.5613 6.50667 63.8846 6.18667 64.298 5.96C64.7113 5.72667 65.1813 5.61 65.708 5.61ZM67.088 7.91C67.0746 7.51667 66.9446 7.20333 66.698 6.97C66.4513 6.73667 66.1246 6.62 65.718 6.62C65.338 6.62 65.018 6.73667 64.758 6.97C64.5046 7.19667 64.348 7.51 64.288 7.91H67.088ZM72.5659 7.1C72.3059 6.94667 72.0359 6.82667 71.7559 6.74C71.4826 6.65333 71.2293 6.61 70.9959 6.61C70.7759 6.61 70.5993 6.65 70.4659 6.73C70.3393 6.80333 70.2759 6.92 70.2759 7.08C70.2759 7.24667 70.3559 7.37667 70.5159 7.47C70.6826 7.55667 70.9426 7.65 71.2959 7.75C71.6693 7.86333 71.9759 7.97667 72.2159 8.09C72.4559 8.19667 72.6626 8.36 72.8359 8.58C73.0159 8.79333 73.1059 9.07667 73.1059 9.43C73.1059 9.95 72.9059 10.35 72.5059 10.63C72.1059 10.91 71.6026 11.05 70.9959 11.05C70.5826 11.05 70.1793 10.9867 69.7859 10.86C69.3926 10.7267 69.0593 10.54 68.7859 10.3L69.2359 9.39C69.4759 9.59667 69.7626 9.76 70.0959 9.88C70.4293 9.99333 70.7459 10.05 71.0459 10.05C71.2859 10.05 71.4759 10.01 71.6159 9.93C71.7626 9.84333 71.8359 9.71667 71.8359 9.55C71.8359 9.36333 71.7526 9.22333 71.5859 9.13C71.4193 9.03667 71.1493 8.93333 70.7759 8.82C70.4159 8.71333 70.1226 8.61 69.8959 8.51C69.6693 8.40333 69.4726 8.24667 69.3059 8.04C69.1393 7.82667 69.0559 7.55 69.0559 7.21C69.0559 6.68333 69.2459 6.28333 69.6259 6.01C70.0126 5.73 70.4959 5.59 71.0759 5.59C71.4293 5.59 71.7759 5.64 72.1159 5.74C72.4626 5.84 72.7693 5.98 73.0359 6.16L72.5659 7.1Z" fill="#789BB6"/>
<path d="M0.5 44C0.5 36.268 6.76801 30 14.5 30H114.5C122.232 30 128.5 36.268 128.5 44C128.5 51.732 122.232 58 114.5 58H14.5C6.76801 58 0.5 51.732 0.5 44Z" fill="#789BB6"/>
<path d="M25.81 41H27.44L25.07 48H23.44L21.97 42.95L20.48 48H18.86L16.5 41H18.2L19.72 46.34L21.23 41H22.78L24.31 46.34L25.81 41ZM33.1502 48L32.6002 46.64H29.3602L28.8102 48H27.1802L30.2202 41H31.8502L34.8402 48H33.1502ZM29.8802 45.37H32.0902L30.9902 42.65L29.8802 45.37ZM34.4456 41H40.2956V42.34H38.1556V48H36.5756V42.34H34.4456V41ZM41.4415 41H46.7715V42.31H43.0215V43.83H46.3915V45.14H43.0215V46.69H46.8815V48H41.4415V41ZM52.7212 48L51.6112 46H51.4612H50.0012V48H48.4212V41H51.4612C52.3745 41 53.0812 41.2133 53.5812 41.64C54.0812 42.06 54.3312 42.6567 54.3312 43.43C54.3312 43.97 54.2178 44.4333 53.9912 44.82C53.7712 45.2 53.4478 45.49 53.0212 45.69L54.5112 48H52.7212ZM50.0012 44.68H51.4612C51.9012 44.68 52.2378 44.58 52.4712 44.38C52.7112 44.1733 52.8312 43.8733 52.8312 43.48C52.8312 43.0933 52.7112 42.8033 52.4712 42.61C52.2378 42.41 51.9012 42.31 51.4612 42.31H50.0012V44.68ZM58.9275 41C59.8208 41 60.5108 41.2133 60.9975 41.64C61.4842 42.06 61.7275 42.6567 61.7275 43.43C61.7275 44.2433 61.4808 44.8767 60.9875 45.33C60.5008 45.7767 59.8142 46 58.9275 46H57.5375V48H55.9575V41H58.9275ZM58.8475 44.68C59.2942 44.68 59.6342 44.58 59.8675 44.38C60.1075 44.1733 60.2275 43.8733 60.2275 43.48C60.2275 43.0933 60.1075 42.8033 59.8675 42.61C59.6342 42.41 59.2942 42.31 58.8475 42.31H57.5375V44.68H58.8475ZM67.3348 48L66.2248 46H66.0748H64.6148V48H63.0348V41H66.0748C66.9882 41 67.6948 41.2133 68.1948 41.64C68.6948 42.06 68.9448 42.6567 68.9448 43.43C68.9448 43.97 68.8315 44.4333 68.6048 44.82C68.3848 45.2 68.0615 45.49 67.6348 45.69L69.1248 48H67.3348ZM64.6148 44.68H66.0748C66.5148 44.68 66.8515 44.58 67.0848 44.38C67.3248 44.1733 67.4448 43.8733 67.4448 43.48C67.4448 43.0933 67.3248 42.8033 67.0848 42.61C66.8515 42.41 66.5148 42.31 66.0748 42.31H64.6148V44.68ZM73.8312 40.89C74.5312 40.89 75.1678 41.0467 75.7412 41.36C76.3145 41.6733 76.7645 42.1067 77.0912 42.66C77.4245 43.2067 77.5912 43.8167 77.5912 44.49C77.5912 45.1633 77.4245 45.7767 77.0912 46.33C76.7645 46.8833 76.3145 47.32 75.7412 47.64C75.1678 47.9533 74.5312 48.11 73.8312 48.11C73.1312 48.11 72.4945 47.9533 71.9212 47.64C71.3478 47.32 70.8945 46.8867 70.5612 46.34C70.2345 45.7867 70.0712 45.17 70.0712 44.49C70.0712 43.8167 70.2345 43.2067 70.5612 42.66C70.8945 42.1067 71.3445 41.6733 71.9112 41.36C72.4845 41.0467 73.1245 40.89 73.8312 40.89ZM73.8512 42.27C73.4645 42.27 73.1045 42.37 72.7712 42.57C72.4378 42.7633 72.1745 43.03 71.9812 43.37C71.7878 43.71 71.6912 44.0833 71.6912 44.49C71.6912 44.9033 71.7878 45.28 71.9812 45.62C72.1812 45.96 72.4445 46.23 72.7712 46.43C73.1045 46.63 73.4645 46.73 73.8512 46.73C74.2378 46.73 74.5912 46.6333 74.9112 46.44C75.2378 46.24 75.4945 45.97 75.6812 45.63C75.8745 45.2833 75.9712 44.9033 75.9712 44.49C75.9712 44.0833 75.8745 43.71 75.6812 43.37C75.4945 43.03 75.2378 42.7633 74.9112 42.57C74.5912 42.37 74.2378 42.27 73.8512 42.27ZM82.012 40.89C82.712 40.89 83.3487 41.0467 83.922 41.36C84.4954 41.6733 84.9454 42.1067 85.272 42.66C85.6054 43.2067 85.772 43.8167 85.772 44.49C85.772 45.1633 85.6054 45.7767 85.272 46.33C84.9454 46.8833 84.4954 47.32 83.922 47.64C83.3487 47.9533 82.712 48.11 82.012 48.11C81.312 48.11 80.6754 47.9533 80.102 47.64C79.5287 47.32 79.0754 46.8867 78.742 46.34C78.4154 45.7867 78.252 45.17 78.252 44.49C78.252 43.8167 78.4154 43.2067 78.742 42.66C79.0754 42.1067 79.5254 41.6733 80.092 41.36C80.6654 41.0467 81.3054 40.89 82.012 40.89ZM82.032 42.27C81.6454 42.27 81.2854 42.37 80.952 42.57C80.6187 42.7633 80.3554 43.03 80.162 43.37C79.9687 43.71 79.872 44.0833 79.872 44.49C79.872 44.9033 79.9687 45.28 80.162 45.62C80.362 45.96 80.6254 46.23 80.952 46.43C81.2854 46.63 81.6454 46.73 82.032 46.73C82.4187 46.73 82.772 46.6333 83.092 46.44C83.4187 46.24 83.6754 45.97 83.862 45.63C84.0554 45.2833 84.152 44.9033 84.152 44.49C84.152 44.0833 84.0554 43.71 83.862 43.37C83.6754 43.03 83.4187 42.7633 83.092 42.57C82.772 42.37 82.4187 42.27 82.032 42.27ZM87.1087 41H92.1387L92.1287 42.31H88.6887V44.03H91.8487V45.35H88.6887V48H87.1087V41ZM93.3559 41H94.9359V48H93.3559V41ZM101.631 41H103.131V48H101.691L98.3007 43.5V48H96.7907V41H98.2307L101.631 45.52V41ZM109.672 44.47H111.042V47.19C110.668 47.4633 110.222 47.6867 109.702 47.86C109.182 48.0267 108.682 48.11 108.202 48.11C107.502 48.11 106.868 47.9533 106.302 47.64C105.735 47.32 105.288 46.8867 104.962 46.34C104.635 45.7867 104.472 45.17 104.472 44.49C104.472 43.8167 104.638 43.2067 104.972 42.66C105.305 42.1067 105.762 41.6733 106.342 41.36C106.928 41.0467 107.578 40.89 108.292 40.89C108.812 40.89 109.318 40.9833 109.812 41.17C110.312 41.3567 110.742 41.61 111.102 41.93L110.212 43.06C109.952 42.8133 109.652 42.62 109.312 42.48C108.972 42.34 108.632 42.27 108.292 42.27C107.885 42.27 107.512 42.37 107.172 42.57C106.838 42.7633 106.575 43.03 106.382 43.37C106.188 43.7033 106.092 44.0767 106.092 44.49C106.092 44.9033 106.188 45.2833 106.382 45.63C106.582 45.97 106.848 46.24 107.182 46.44C107.522 46.6333 107.895 46.73 108.302 46.73C108.508 46.73 108.732 46.6967 108.972 46.63C109.212 46.5567 109.445 46.46 109.672 46.34V44.47Z" fill="#E1E9EF"/>
<path d="M136.5 44C136.5 36.268 142.768 30 150.5 30H206.5C214.232 30 220.5 36.268 220.5 44C220.5 51.732 214.232 58 206.5 58H150.5C142.768 58 136.5 51.732 136.5 44Z" fill="#789BB6"/>
<path d="M156.24 41C157.133 41 157.823 41.2133 158.31 41.64C158.797 42.06 159.04 42.6567 159.04 43.43C159.04 44.2433 158.793 44.8767 158.3 45.33C157.813 45.7767 157.127 46 156.24 46H154.85V48H153.27V41H156.24ZM156.16 44.68C156.607 44.68 156.947 44.58 157.18 44.38C157.42 44.1733 157.54 43.8733 157.54 43.48C157.54 43.0933 157.42 42.8033 157.18 42.61C156.947 42.41 156.607 42.31 156.16 42.31H154.85V44.68H156.16ZM165.019 48L164.469 46.64H161.229L160.679 48H159.049L162.089 41H163.719L166.709 48H165.019ZM161.749 45.37H163.959L162.859 42.65L161.749 45.37ZM167.737 41H169.317V48H167.737V41ZM176.012 41H177.512V48H176.072L172.682 43.5V48H171.172V41H172.612L176.012 45.52V41ZM178.663 41H184.513V42.34H182.373V48H180.793V42.34H178.663V41ZM185.659 41H187.239V48H185.659V41ZM193.933 41H195.433V48H193.993L190.603 43.5V48H189.093V41H190.533L193.933 45.52V41ZM201.974 44.47H203.344V47.19C202.971 47.4633 202.524 47.6867 202.004 47.86C201.484 48.0267 200.984 48.11 200.504 48.11C199.804 48.11 199.171 47.9533 198.604 47.64C198.038 47.32 197.591 46.8867 197.264 46.34C196.938 45.7867 196.774 45.17 196.774 44.49C196.774 43.8167 196.941 43.2067 197.274 42.66C197.608 42.1067 198.064 41.6733 198.644 41.36C199.231 41.0467 199.881 40.89 200.594 40.89C201.114 40.89 201.621 40.9833 202.114 41.17C202.614 41.3567 203.044 41.61 203.404 41.93L202.514 43.06C202.254 42.8133 201.954 42.62 201.614 42.48C201.274 42.34 200.934 42.27 200.594 42.27C200.188 42.27 199.814 42.37 199.474 42.57C199.141 42.7633 198.878 43.03 198.684 43.37C198.491 43.7033 198.394 44.0767 198.394 44.49C198.394 44.9033 198.491 45.2833 198.684 45.63C198.884 45.97 199.151 46.24 199.484 46.44C199.824 46.6333 200.198 46.73 200.604 46.73C200.811 46.73 201.034 46.6967 201.274 46.63C201.514 46.5567 201.748 46.46 201.974 46.34V44.47Z" fill="#E1E9EF"/>
<path d="M228.5 44C228.5 36.268 234.768 30 242.5 30H329.5C337.232 30 343.5 36.268 343.5 44C343.5 51.732 337.232 58 329.5 58H242.5C234.768 58 228.5 51.732 228.5 44Z" fill="#789BB6"/>
<path d="M249.57 48L248.46 46H248.31H246.85V48H245.27V41H248.31C249.223 41 249.93 41.2133 250.43 41.64C250.93 42.06 251.18 42.6567 251.18 43.43C251.18 43.97 251.067 44.4333 250.84 44.82C250.62 45.2 250.297 45.49 249.87 45.69L251.36 48H249.57ZM246.85 44.68H248.31C248.75 44.68 249.087 44.58 249.32 44.38C249.56 44.1733 249.68 43.8733 249.68 43.48C249.68 43.0933 249.56 42.8033 249.32 42.61C249.087 42.41 248.75 42.31 248.31 42.31H246.85V44.68ZM252.806 41H258.136V42.31H254.386V43.83H257.756V45.14H254.386V46.69H258.246V48H252.806V41ZM264.396 42.95C264.036 42.73 263.653 42.5567 263.246 42.43C262.846 42.2967 262.503 42.23 262.216 42.23C261.943 42.23 261.726 42.28 261.566 42.38C261.406 42.48 261.326 42.6267 261.326 42.82C261.326 43.0667 261.439 43.2567 261.666 43.39C261.899 43.5167 262.256 43.65 262.736 43.79C263.216 43.93 263.609 44.07 263.916 44.21C264.229 44.35 264.496 44.56 264.716 44.84C264.936 45.12 265.046 45.49 265.046 45.95C265.046 46.3967 264.926 46.7833 264.686 47.11C264.453 47.43 264.129 47.6733 263.716 47.84C263.303 48.0067 262.833 48.09 262.306 48.09C261.739 48.09 261.183 47.99 260.636 47.79C260.089 47.59 259.616 47.3167 259.216 46.97L259.846 45.68C260.199 46 260.606 46.2567 261.066 46.45C261.526 46.6433 261.946 46.74 262.326 46.74C262.653 46.74 262.906 46.68 263.086 46.56C263.273 46.44 263.366 46.2667 263.366 46.04C263.366 45.86 263.303 45.7133 263.176 45.6C263.056 45.48 262.899 45.3833 262.706 45.31C262.519 45.2367 262.259 45.1533 261.926 45.06C261.446 44.9267 261.053 44.7933 260.746 44.66C260.446 44.5267 260.186 44.3233 259.966 44.05C259.746 43.7767 259.636 43.4133 259.636 42.96C259.636 42.54 259.749 42.1733 259.976 41.86C260.203 41.54 260.519 41.2967 260.926 41.13C261.333 40.9567 261.806 40.87 262.346 40.87C262.826 40.87 263.299 40.94 263.766 41.08C264.233 41.22 264.646 41.4067 265.006 41.64L264.396 42.95ZM265.763 41H271.613V42.34H269.473V48H267.893V42.34H265.763V41ZM275.638 40.89C276.338 40.89 276.975 41.0467 277.548 41.36C278.122 41.6733 278.572 42.1067 278.898 42.66C279.232 43.2067 279.398 43.8167 279.398 44.49C279.398 45.1633 279.232 45.7767 278.898 46.33C278.572 46.8833 278.122 47.32 277.548 47.64C276.975 47.9533 276.338 48.11 275.638 48.11C274.938 48.11 274.302 47.9533 273.728 47.64C273.155 47.32 272.702 46.8867 272.368 46.34C272.042 45.7867 271.878 45.17 271.878 44.49C271.878 43.8167 272.042 43.2067 272.368 42.66C272.702 42.1067 273.152 41.6733 273.718 41.36C274.292 41.0467 274.932 40.89 275.638 40.89ZM275.658 42.27C275.272 42.27 274.912 42.37 274.578 42.57C274.245 42.7633 273.982 43.03 273.788 43.37C273.595 43.71 273.498 44.0833 273.498 44.49C273.498 44.9033 273.595 45.28 273.788 45.62C273.988 45.96 274.252 46.23 274.578 46.43C274.912 46.63 275.272 46.73 275.658 46.73C276.045 46.73 276.398 46.6333 276.718 46.44C277.045 46.24 277.302 45.97 277.488 45.63C277.682 45.2833 277.778 44.9033 277.778 44.49C277.778 44.0833 277.682 43.71 277.488 43.37C277.302 43.03 277.045 42.7633 276.718 42.57C276.398 42.37 276.045 42.27 275.658 42.27ZM285.035 48L283.925 46H283.775H282.315V48H280.735V41H283.775C284.688 41 285.395 41.2133 285.895 41.64C286.395 42.06 286.645 42.6567 286.645 43.43C286.645 43.97 286.532 44.4333 286.305 44.82C286.085 45.2 285.762 45.49 285.335 45.69L286.825 48H285.035ZM282.315 44.68H283.775C284.215 44.68 284.552 44.58 284.785 44.38C285.025 44.1733 285.145 43.8733 285.145 43.48C285.145 43.0933 285.025 42.8033 284.785 42.61C284.552 42.41 284.215 42.31 283.775 42.31H282.315V44.68ZM293.441 48L292.891 46.64H289.651L289.101 48H287.471L290.511 41H292.141L295.131 48H293.441ZM290.171 45.37H292.381L291.281 42.65L290.171 45.37ZM294.737 41H300.587V42.34H298.447V48H296.867V42.34H294.737V41ZM301.733 41H303.313V48H301.733V41ZM308.427 40.89C309.127 40.89 309.764 41.0467 310.337 41.36C310.911 41.6733 311.361 42.1067 311.687 42.66C312.021 43.2067 312.187 43.8167 312.187 44.49C312.187 45.1633 312.021 45.7767 311.687 46.33C311.361 46.8833 310.911 47.32 310.337 47.64C309.764 47.9533 309.127 48.11 308.427 48.11C307.727 48.11 307.091 47.9533 306.517 47.64C305.944 47.32 305.491 46.8867 305.157 46.34C304.831 45.7867 304.667 45.17 304.667 44.49C304.667 43.8167 304.831 43.2067 305.157 42.66C305.491 42.1067 305.941 41.6733 306.507 41.36C307.081 41.0467 307.721 40.89 308.427 40.89ZM308.447 42.27C308.061 42.27 307.701 42.37 307.367 42.57C307.034 42.7633 306.771 43.03 306.577 43.37C306.384 43.71 306.287 44.0833 306.287 44.49C306.287 44.9033 306.384 45.28 306.577 45.62C306.777 45.96 307.041 46.23 307.367 46.43C307.701 46.63 308.061 46.73 308.447 46.73C308.834 46.73 309.187 46.6333 309.507 46.44C309.834 46.24 310.091 45.97 310.277 45.63C310.471 45.2833 310.567 44.9033 310.567 44.49C310.567 44.0833 310.471 43.71 310.277 43.37C310.091 43.03 309.834 42.7633 309.507 42.57C309.187 42.37 308.834 42.27 308.447 42.27ZM318.364 41H319.864V48H318.424L315.034 43.5V48H313.524V41H314.964L318.364 45.52V41ZM326.315 42.95C325.955 42.73 325.571 42.5567 325.165 42.43C324.765 42.2967 324.421 42.23 324.135 42.23C323.861 42.23 323.645 42.28 323.485 42.38C323.325 42.48 323.245 42.6267 323.245 42.82C323.245 43.0667 323.358 43.2567 323.585 43.39C323.818 43.5167 324.175 43.65 324.655 43.79C325.135 43.93 325.528 44.07 325.835 44.21C326.148 44.35 326.415 44.56 326.635 44.84C326.855 45.12 326.965 45.49 326.965 45.95C326.965 46.3967 326.845 46.7833 326.605 47.11C326.371 47.43 326.048 47.6733 325.635 47.84C325.221 48.0067 324.751 48.09 324.225 48.09C323.658 48.09 323.101 47.99 322.555 47.79C322.008 47.59 321.535 47.3167 321.135 46.97L321.765 45.68C322.118 46 322.525 46.2567 322.985 46.45C323.445 46.6433 323.865 46.74 324.245 46.74C324.571 46.74 324.825 46.68 325.005 46.56C325.191 46.44 325.285 46.2667 325.285 46.04C325.285 45.86 325.221 45.7133 325.095 45.6C324.975 45.48 324.818 45.3833 324.625 45.31C324.438 45.2367 324.178 45.1533 323.845 45.06C323.365 44.9267 322.971 44.7933 322.665 44.66C322.365 44.5267 322.105 44.3233 321.885 44.05C321.665 43.7767 321.555 43.4133 321.555 42.96C321.555 42.54 321.668 42.1733 321.895 41.86C322.121 41.54 322.438 41.2967 322.845 41.13C323.251 40.9567 323.725 40.87 324.265 40.87C324.745 40.87 325.218 40.94 325.685 41.08C326.151 41.22 326.565 41.4067 326.925 41.64L326.315 42.95Z" fill="#E1E9EF"/>
<path d="M0.5 80C0.5 72.268 6.76801 66 14.5 66H106.5C114.232 66 120.5 72.268 120.5 80C120.5 87.732 114.232 94 106.5 94H14.5C6.76801 94 0.5 87.732 0.5 80Z" fill="#789BB6"/>
<path d="M20.24 77C21.1333 77 21.8233 77.2133 22.31 77.64C22.7967 78.06 23.04 78.6567 23.04 79.43C23.04 80.2433 22.7933 80.8767 22.3 81.33C21.8133 81.7767 21.1267 82 20.24 82H18.85V84H17.27V77H20.24ZM20.16 80.68C20.6067 80.68 20.9467 80.58 21.18 80.38C21.42 80.1733 21.54 79.8733 21.54 79.48C21.54 79.0933 21.42 78.8033 21.18 78.61C20.9467 78.41 20.6067 78.31 20.16 78.31H18.85V80.68H20.16ZM29.0193 84L28.4693 82.64H25.2293L24.6793 84H23.0493L26.0893 77H27.7193L30.7093 84H29.0193ZM25.7493 81.37H27.9593L26.8593 78.65L25.7493 81.37ZM31.7372 77H33.3172V84H31.7372V77ZM40.012 77H41.512V84H40.072L36.682 79.5V84H35.172V77H36.612L40.012 81.52V77ZM42.6628 77H48.5128V78.34H46.3728V84H44.7928V78.34H42.6628V77ZM56.6024 84L55.4924 82H55.3424H53.8824V84H52.3024V77H55.3424C56.2558 77 56.9624 77.2133 57.4624 77.64C57.9624 78.06 58.2124 78.6567 58.2124 79.43C58.2124 79.97 58.0991 80.4333 57.8724 80.82C57.6524 81.2 57.3291 81.49 56.9024 81.69L58.3924 84H56.6024ZM53.8824 80.68H55.3424C55.7824 80.68 56.1191 80.58 56.3524 80.38C56.5924 80.1733 56.7124 79.8733 56.7124 79.48C56.7124 79.0933 56.5924 78.8033 56.3524 78.61C56.1191 78.41 55.7824 78.31 55.3424 78.31H53.8824V80.68ZM59.8387 77H65.1687V78.31H61.4187V79.83H64.7887V81.14H61.4187V82.69H65.2787V84H59.8387V77ZM66.8184 77H68.5784L70.7584 81.3L72.9184 77H74.6684V84H73.2484V79.27L71.2584 83.29H70.2384L68.2384 79.27V84H66.8184V77ZM79.7827 76.89C80.4827 76.89 81.1194 77.0467 81.6927 77.36C82.2661 77.6733 82.7161 78.1067 83.0427 78.66C83.3761 79.2067 83.5427 79.8167 83.5427 80.49C83.5427 81.1633 83.3761 81.7767 83.0427 82.33C82.7161 82.8833 82.2661 83.32 81.6927 83.64C81.1194 83.9533 80.4827 84.11 79.7827 84.11C79.0827 84.11 78.4461 83.9533 77.8727 83.64C77.2994 83.32 76.8461 82.8867 76.5127 82.34C76.1861 81.7867 76.0227 81.17 76.0227 80.49C76.0227 79.8167 76.1861 79.2067 76.5127 78.66C76.8461 78.1067 77.2961 77.6733 77.8627 77.36C78.4361 77.0467 79.0761 76.89 79.7827 76.89ZM79.8027 78.27C79.4161 78.27 79.0561 78.37 78.7227 78.57C78.3894 78.7633 78.1261 79.03 77.9327 79.37C77.7394 79.71 77.6427 80.0833 77.6427 80.49C77.6427 80.9033 77.7394 81.28 77.9327 81.62C78.1327 81.96 78.3961 82.23 78.7227 82.43C79.0561 82.63 79.4161 82.73 79.8027 82.73C80.1894 82.73 80.5427 82.6333 80.8627 82.44C81.1894 82.24 81.4461 81.97 81.6327 81.63C81.8261 81.2833 81.9227 80.9033 81.9227 80.49C81.9227 80.0833 81.8261 79.71 81.6327 79.37C81.4461 79.03 81.1894 78.7633 80.8627 78.57C80.5427 78.37 80.1894 78.27 79.8027 78.27ZM84.0117 77H85.7117L87.6217 82.28L89.5417 77H91.1717L88.3917 84H86.7617L84.0117 77ZM96.8826 84L96.3326 82.64H93.0926L92.5426 84H90.9126L93.9526 77H95.5826L98.5726 84H96.8826ZM93.6126 81.37H95.8226L94.7226 78.65L93.6126 81.37ZM99.6005 77H101.18V82.62H104.18V84H99.6005V77Z" fill="#E1E9EF"/>
<path d="M128.5 80C128.5 72.268 134.768 66 142.5 66H217.5C225.232 66 231.5 72.268 231.5 80C231.5 87.732 225.232 94 217.5 94H142.5C134.768 94 128.5 87.732 128.5 80Z" fill="#789BB6"/>
<path d="M148.24 77C148.953 77 149.59 77.15 150.15 77.45C150.71 77.7433 151.143 78.1567 151.45 78.69C151.763 79.2167 151.92 79.82 151.92 80.5C151.92 81.18 151.76 81.7867 151.44 82.32C151.127 82.8467 150.687 83.26 150.12 83.56C149.553 83.8533 148.907 84 148.18 84H145.27V77H148.24ZM148.28 82.67C148.667 82.67 149.013 82.58 149.32 82.4C149.633 82.2133 149.877 81.9567 150.05 81.63C150.223 81.3033 150.31 80.93 150.31 80.51C150.31 80.09 150.217 79.7133 150.03 79.38C149.85 79.0467 149.6 78.79 149.28 78.61C148.967 78.4233 148.61 78.33 148.21 78.33H146.85V82.67H148.28ZM153.256 77H158.586V78.31H154.836V79.83H158.206V81.14H154.836V82.69H158.696V84H153.256V77ZM165.305 79.19C165.065 78.9033 164.782 78.68 164.455 78.52C164.135 78.3533 163.812 78.27 163.485 78.27C163.092 78.27 162.732 78.3667 162.405 78.56C162.079 78.7533 161.822 79.0167 161.635 79.35C161.449 79.6833 161.355 80.0533 161.355 80.46C161.355 80.8667 161.449 81.24 161.635 81.58C161.822 81.9133 162.079 82.18 162.405 82.38C162.732 82.5733 163.092 82.67 163.485 82.67C163.799 82.67 164.115 82.5967 164.435 82.45C164.762 82.2967 165.052 82.0933 165.305 81.84L166.235 82.85C165.862 83.2367 165.422 83.5433 164.915 83.77C164.415 83.9967 163.912 84.11 163.405 84.11C162.719 84.11 162.095 83.9533 161.535 83.64C160.975 83.32 160.535 82.8833 160.215 82.33C159.895 81.7767 159.735 81.16 159.735 80.48C159.735 79.8067 159.899 79.1967 160.225 78.65C160.552 78.1033 160.999 77.6733 161.565 77.36C162.139 77.0467 162.772 76.89 163.465 76.89C163.972 76.89 164.472 76.9967 164.965 77.21C165.459 77.4167 165.879 77.7 166.225 78.06L165.305 79.19ZM170.612 76.89C171.312 76.89 171.948 77.0467 172.522 77.36C173.095 77.6733 173.545 78.1067 173.872 78.66C174.205 79.2067 174.372 79.8167 174.372 80.49C174.372 81.1633 174.205 81.7767 173.872 82.33C173.545 82.8833 173.095 83.32 172.522 83.64C171.948 83.9533 171.312 84.11 170.612 84.11C169.912 84.11 169.275 83.9533 168.702 83.64C168.128 83.32 167.675 82.8867 167.342 82.34C167.015 81.7867 166.852 81.17 166.852 80.49C166.852 79.8167 167.015 79.2067 167.342 78.66C167.675 78.1067 168.125 77.6733 168.692 77.36C169.265 77.0467 169.905 76.89 170.612 76.89ZM170.632 78.27C170.245 78.27 169.885 78.37 169.552 78.57C169.218 78.7633 168.955 79.03 168.762 79.37C168.568 79.71 168.472 80.0833 168.472 80.49C168.472 80.9033 168.568 81.28 168.762 81.62C168.962 81.96 169.225 82.23 169.552 82.43C169.885 82.63 170.245 82.73 170.632 82.73C171.018 82.73 171.372 82.6333 171.692 82.44C172.018 82.24 172.275 81.97 172.462 81.63C172.655 81.2833 172.752 80.9033 172.752 80.49C172.752 80.0833 172.655 79.71 172.462 79.37C172.275 79.03 172.018 78.7633 171.692 78.57C171.372 78.37 171.018 78.27 170.632 78.27ZM180.008 84L178.898 82H178.748H177.288V84H175.708V77H178.748C179.662 77 180.368 77.2133 180.868 77.64C181.368 78.06 181.618 78.6567 181.618 79.43C181.618 79.97 181.505 80.4333 181.278 80.82C181.058 81.2 180.735 81.49 180.308 81.69L181.798 84H180.008ZM177.288 80.68H178.748C179.188 80.68 179.525 80.58 179.758 80.38C179.998 80.1733 180.118 79.8733 180.118 79.48C180.118 79.0933 179.998 78.8033 179.758 78.61C179.525 78.41 179.188 78.31 178.748 78.31H177.288V80.68ZM188.415 84L187.865 82.64H184.625L184.075 84H182.445L185.485 77H187.115L190.105 84H188.415ZM185.145 81.37H187.355L186.255 78.65L185.145 81.37ZM189.71 77H195.56V78.34H193.42V84H191.84V78.34H189.71V77ZM196.706 77H198.286V84H196.706V77ZM204.981 77H206.481V84H205.041L201.651 79.5V84H200.141V77H201.581L204.981 81.52V77ZM213.022 80.47H214.392V83.19C214.018 83.4633 213.572 83.6867 213.052 83.86C212.532 84.0267 212.032 84.11 211.552 84.11C210.852 84.11 210.218 83.9533 209.652 83.64C209.085 83.32 208.638 82.8867 208.312 82.34C207.985 81.7867 207.822 81.17 207.822 80.49C207.822 79.8167 207.988 79.2067 208.322 78.66C208.655 78.1067 209.112 77.6733 209.692 77.36C210.278 77.0467 210.928 76.89 211.642 76.89C212.162 76.89 212.668 76.9833 213.162 77.17C213.662 77.3567 214.092 77.61 214.452 77.93L213.562 79.06C213.302 78.8133 213.002 78.62 212.662 78.48C212.322 78.34 211.982 78.27 211.642 78.27C211.235 78.27 210.862 78.37 210.522 78.57C210.188 78.7633 209.925 79.03 209.732 79.37C209.538 79.7033 209.442 80.0767 209.442 80.49C209.442 80.9033 209.538 81.2833 209.732 81.63C209.932 81.97 210.198 82.24 210.532 82.44C210.872 82.6333 211.245 82.73 211.652 82.73C211.858 82.73 212.082 82.6967 212.322 82.63C212.562 82.5567 212.795 82.46 213.022 82.34V80.47Z" fill="#E1E9EF"/>
<path d="M239.5 80C239.5 72.268 245.768 66 253.5 66H309.5C317.232 66 323.5 72.268 323.5 80C323.5 87.732 317.232 94 309.5 94H253.5C245.768 94 239.5 87.732 239.5 80Z" fill="#789BB6"/>
<path d="M259.24 77C260.133 77 260.823 77.2133 261.31 77.64C261.797 78.06 262.04 78.6567 262.04 79.43C262.04 80.2433 261.793 80.8767 261.3 81.33C260.813 81.7767 260.127 82 259.24 82H257.85V84H256.27V77H259.24ZM259.16 80.68C259.607 80.68 259.947 80.58 260.18 80.38C260.42 80.1733 260.54 79.8733 260.54 79.48C260.54 79.0933 260.42 78.8033 260.18 78.61C259.947 78.41 259.607 78.31 259.16 78.31H257.85V80.68H259.16ZM268.019 84L267.469 82.64H264.229L263.679 84H262.049L265.089 77H266.719L269.709 84H268.019ZM264.749 81.37H266.959L265.859 78.65L264.749 81.37ZM270.737 77H272.317V84H270.737V77ZM279.012 77H280.512V84H279.072L275.682 79.5V84H274.172V77H275.612L279.012 81.52V77ZM281.663 77H287.513V78.34H285.373V84H283.793V78.34H281.663V77ZM288.659 77H290.239V84H288.659V77ZM296.933 77H298.433V84H296.993L293.603 79.5V84H292.093V77H293.533L296.933 81.52V77ZM304.974 80.47H306.344V83.19C305.971 83.4633 305.524 83.6867 305.004 83.86C304.484 84.0267 303.984 84.11 303.504 84.11C302.804 84.11 302.171 83.9533 301.604 83.64C301.038 83.32 300.591 82.8867 300.264 82.34C299.938 81.7867 299.774 81.17 299.774 80.49C299.774 79.8167 299.941 79.2067 300.274 78.66C300.608 78.1067 301.064 77.6733 301.644 77.36C302.231 77.0467 302.881 76.89 303.594 76.89C304.114 76.89 304.621 76.9833 305.114 77.17C305.614 77.3567 306.044 77.61 306.404 77.93L305.514 79.06C305.254 78.8133 304.954 78.62 304.614 78.48C304.274 78.34 303.934 78.27 303.594 78.27C303.188 78.27 302.814 78.37 302.474 78.57C302.141 78.7633 301.878 79.03 301.684 79.37C301.491 79.7033 301.394 80.0767 301.394 80.49C301.394 80.9033 301.491 81.2833 301.684 81.63C301.884 81.97 302.151 82.24 302.484 82.44C302.824 82.6333 303.198 82.73 303.604 82.73C303.811 82.73 304.034 82.6967 304.274 82.63C304.514 82.5567 304.748 82.46 304.974 82.34V80.47Z" fill="#E1E9EF"/>
<path d="M0.5 116C0.5 108.268 6.76801 102 14.5 102H83.5C91.232 102 97.5 108.268 97.5 116C97.5 123.732 91.232 130 83.5 130H14.5C6.76801 130 0.5 123.732 0.5 116Z" fill="#789BB6"/>
<path d="M21.57 120L20.46 118H20.31H18.85V120H17.27V113H20.31C21.2233 113 21.93 113.213 22.43 113.64C22.93 114.06 23.18 114.657 23.18 115.43C23.18 115.97 23.0667 116.433 22.84 116.82C22.62 117.2 22.2967 117.49 21.87 117.69L23.36 120H21.57ZM18.85 116.68H20.31C20.75 116.68 21.0867 116.58 21.32 116.38C21.56 116.173 21.68 115.873 21.68 115.48C21.68 115.093 21.56 114.803 21.32 114.61C21.0867 114.41 20.75 114.31 20.31 114.31H18.85V116.68ZM24.8063 113H30.1363V114.31H26.3863V115.83H29.7563V117.14H26.3863V118.69H30.2463V120H24.8063V113ZM36.626 113H38.126V120H36.686L33.296 115.5V120H31.786V113H33.226L36.626 117.52V113ZM42.9369 113C43.6502 113 44.2869 113.15 44.8469 113.45C45.4069 113.743 45.8402 114.157 46.1469 114.69C46.4602 115.217 46.6169 115.82 46.6169 116.5C46.6169 117.18 46.4569 117.787 46.1369 118.32C45.8235 118.847 45.3835 119.26 44.8169 119.56C44.2502 119.853 43.6035 120 42.8769 120H39.9669V113H42.9369ZM42.9769 118.67C43.3635 118.67 43.7102 118.58 44.0169 118.4C44.3302 118.213 44.5735 117.957 44.7469 117.63C44.9202 117.303 45.0069 116.93 45.0069 116.51C45.0069 116.09 44.9135 115.713 44.7269 115.38C44.5469 115.047 44.2969 114.79 43.9769 114.61C43.6635 114.423 43.3069 114.33 42.9069 114.33H41.5469V118.67H42.9769ZM47.9524 113H53.2824V114.31H49.5324V115.83H52.9024V117.14H49.5324V118.69H53.3924V120H47.9524V113ZM59.2321 120L58.1221 118H57.9721H56.5121V120H54.9321V113H57.9721C58.8854 113 59.5921 113.213 60.0921 113.64C60.5921 114.06 60.8421 114.657 60.8421 115.43C60.8421 115.97 60.7288 116.433 60.5021 116.82C60.2821 117.2 59.9588 117.49 59.5321 117.69L61.0221 120H59.2321ZM56.5121 116.68H57.9721C58.4121 116.68 58.7488 116.58 58.9821 116.38C59.2221 116.173 59.3421 115.873 59.3421 115.48C59.3421 115.093 59.2221 114.803 58.9821 114.61C58.7488 114.41 58.4121 114.31 57.9721 114.31H56.5121V116.68ZM62.4684 113H64.0484V120H62.4684V113ZM70.7432 113H72.2432V120H70.8032L67.4132 115.5V120H65.9032V113H67.3432L70.7432 117.52V113ZM78.7841 116.47H80.1541V119.19C79.7807 119.463 79.3341 119.687 78.8141 119.86C78.2941 120.027 77.7941 120.11 77.3141 120.11C76.6141 120.11 75.9807 119.953 75.4141 119.64C74.8474 119.32 74.4007 118.887 74.0741 118.34C73.7474 117.787 73.5841 117.17 73.5841 116.49C73.5841 115.817 73.7507 115.207 74.0841 114.66C74.4174 114.107 74.8741 113.673 75.4541 113.36C76.0407 113.047 76.6907 112.89 77.4041 112.89C77.9241 112.89 78.4307 112.983 78.9241 113.17C79.4241 113.357 79.8541 113.61 80.2141 113.93L79.3241 115.06C79.0641 114.813 78.7641 114.62 78.4241 114.48C78.0841 114.34 77.7441 114.27 77.4041 114.27C76.9974 114.27 76.6241 114.37 76.2841 114.57C75.9507 114.763 75.6874 115.03 75.4941 115.37C75.3007 115.703 75.2041 116.077 75.2041 116.49C75.2041 116.903 75.3007 117.283 75.4941 117.63C75.6941 117.97 75.9607 118.24 76.2941 118.44C76.6341 118.633 77.0074 118.73 77.4141 118.73C77.6207 118.73 77.8441 118.697 78.0841 118.63C78.3241 118.557 78.5574 118.46 78.7841 118.34V116.47Z" fill="#E1E9EF"/>
</svg>
