<svg width="17" height="17" viewBox="0 0 17 17" fill="none" xmlns="http://www.w3.org/2000/svg">
<path d="M14.625 12.75H8.0625L4.3125 15.5625V12.75H2.4375C2.18886 12.75 1.9504 12.6512 1.77459 12.4754C1.59877 12.2996 1.5 12.0611 1.5 11.8125V2.4375C1.5 2.18886 1.59877 1.9504 1.77459 1.77459C1.9504 1.59877 2.18886 1.5 2.4375 1.5H14.625C14.8736 1.5 15.1121 1.59877 15.2879 1.77459C15.4637 1.9504 15.5625 2.18886 15.5625 2.4375V11.8125C15.5625 12.0611 15.4637 12.2996 15.2879 12.4754C15.1121 12.6512 14.8736 12.75 14.625 12.75Z" stroke="white" stroke-width="1.25" stroke-linecap="round" stroke-linejoin="round"/>
</svg>
