<svg width="16" height="15" viewBox="0 0 16 15" fill="none" xmlns="http://www.w3.org/2000/svg">
<g clip-path="url(#clip0)">
<path d="M14.3688 1.13122C14.1558 0.919229 13.9031 0.751518 13.625 0.637778C13.3469 0.524038 13.049 0.466524 12.7486 0.468558C12.4481 0.470592 12.1511 0.532134 11.8745 0.649628C11.598 0.767122 11.3475 0.938241 11.1375 1.1531L2.075 10.2156L0.96875 14.5312L5.28438 13.4244L14.3469 4.36185C14.5618 4.15193 14.733 3.9015 14.8505 3.62502C14.968 3.34855 15.0296 3.05151 15.0316 2.7511C15.0337 2.45068 14.9761 2.15285 14.8623 1.8748C14.7486 1.59676 14.5808 1.34403 14.3688 1.13122V1.13122Z" stroke="#E1E9EF" stroke-width="1.25" stroke-linecap="round" stroke-linejoin="round"/>
<path d="M10.8787 1.41235L14.0875 4.6211" stroke="#E1E9EF" stroke-width="1.25" stroke-linecap="round" stroke-linejoin="round"/>
<path d="M2.07556 10.2151L5.28744 13.4213" stroke="#E1E9EF" stroke-width="1.25" stroke-linecap="round" stroke-linejoin="round"/>
</g>
<defs>
<clipPath id="clip0">
<rect width="15" height="15" fill="white" transform="translate(0.5)"/>
</clipPath>
</defs>
</svg>
