<svg width="20" height="20" viewBox="0 0 20 20" fill="none" xmlns="http://www.w3.org/2000/svg">
<path d="M2.8125 6.3125C2.8125 7.22418 3.17466 8.09852 3.81932 8.74318C4.46398 9.38784 5.33832 9.75 6.25 9.75C7.16168 9.75 8.03602 9.38784 8.68068 8.74318C9.32534 8.09852 9.6875 7.22418 9.6875 6.3125C9.6875 5.40082 9.32534 4.52648 8.68068 3.88182C8.03602 3.23716 7.16168 2.875 6.25 2.875C5.33832 2.875 4.46398 3.23716 3.81932 3.88182C3.17466 4.52648 2.8125 5.40082 2.8125 6.3125V6.3125Z" stroke="#E1E9EF" stroke-width="1.25" stroke-linecap="round" stroke-linejoin="round"/>
<path d="M0.625 16.625C0.625 15.1332 1.21763 13.7024 2.27252 12.6475C3.32742 11.5926 4.75816 11 6.25 11C7.74184 11 9.17258 11.5926 10.2275 12.6475C11.2824 13.7024 11.875 15.1332 11.875 16.625" stroke="#E1E9EF" stroke-width="1.25" stroke-linecap="round" stroke-linejoin="round"/>
<path d="M11.96 8.1875C11.96 8.93342 12.2563 9.64879 12.7837 10.1762C13.3112 10.7037 14.0265 11 14.7725 11C15.5184 11 16.2338 10.7037 16.7612 10.1762C17.2886 9.64879 17.585 8.93342 17.585 8.1875C17.585 7.44158 17.2886 6.72621 16.7612 6.19876C16.2338 5.67132 15.5184 5.375 14.7725 5.375C14.0265 5.375 13.3112 5.67132 12.7837 6.19876C12.2563 6.72621 11.96 7.44158 11.96 8.1875V8.1875Z" stroke="#E1E9EF" stroke-width="1.25" stroke-linecap="round" stroke-linejoin="round"/>
<path d="M13.1777 12.3067C13.8736 12.0502 14.6212 11.9656 15.3568 12.0601C16.0924 12.1546 16.7944 12.4253 17.4029 12.8493C18.0114 13.2733 18.5085 13.838 18.8519 14.4954C19.1953 15.1528 19.3748 15.8834 19.3752 16.625" stroke="#E1E9EF" stroke-width="1.25" stroke-linecap="round" stroke-linejoin="round"/>
</svg>
