<svg width="16" height="15" viewBox="0 0 16 15" fill="none" xmlns="http://www.w3.org/2000/svg">
<g clip-path="url(#clip0)">
<path d="M1.78123 6.49179C1.59006 6.43786 1.42119 6.3241 1.2994 6.16719C1.1776 6.01028 1.10928 5.81847 1.10446 5.6199C1.09964 5.42132 1.15856 5.22642 1.2726 5.06378C1.38663 4.90114 1.54978 4.77932 1.73811 4.71617L14.2825 0.624919C14.3647 0.598132 14.4526 0.594554 14.5367 0.614579C14.6208 0.634604 14.6977 0.677454 14.759 0.738407C14.8203 0.79936 14.8635 0.876048 14.884 0.960018C14.9044 1.04399 14.9013 1.13198 14.875 1.21429L10.7869 13.7649C10.724 13.9536 10.6022 14.1171 10.4395 14.2314C10.2768 14.3456 10.0817 14.4047 9.88286 14.3998C9.68407 14.3949 9.4921 14.3263 9.33519 14.2041C9.17828 14.082 9.06473 13.9127 9.01123 13.7212L7.60748 7.88929L1.78123 6.49179Z" stroke="#E1E9EF" stroke-width="1.25" stroke-linecap="round" stroke-linejoin="round"/>
<path d="M14.7594 0.737549L7.60751 7.88942" stroke="#E1E9EF" stroke-width="1.25" stroke-linecap="round" stroke-linejoin="round"/>
</g>
<defs>
<clipPath id="clip0">
<rect width="15" height="15" fill="white" transform="translate(0.5)"/>
</clipPath>
</defs>
</svg>
