<svg width="20" height="20" viewBox="0 0 20 20" fill="none" xmlns="http://www.w3.org/2000/svg">
<path d="M9.375 14.375C9.375 15.7011 9.90178 16.9729 10.8395 17.9105C11.7771 18.8482 13.0489 19.375 14.375 19.375C15.7011 19.375 16.9729 18.8482 17.9105 17.9105C18.8482 16.9729 19.375 15.7011 19.375 14.375C19.375 13.0489 18.8482 11.7771 17.9105 10.8395C16.9729 9.90178 15.7011 9.375 14.375 9.375C13.0489 9.375 11.7771 9.90178 10.8395 10.8395C9.90178 11.7771 9.375 13.0489 9.375 14.375Z" stroke="#E1E9EF" stroke-width="1.25" stroke-linecap="round" stroke-linejoin="round"/>
<path d="M14.375 11.875V16.875" stroke="#E1E9EF" stroke-width="1.25" stroke-linecap="round" stroke-linejoin="round"/>
<path d="M11.875 14.375H16.875" stroke="#E1E9EF" stroke-width="1.25" stroke-linecap="round" stroke-linejoin="round"/>
<path d="M0.625 14.375C0.625633 13.4451 0.856703 12.5298 1.29755 11.711C1.73839 10.8922 2.37527 10.1955 3.15124 9.68299C3.92721 9.17052 4.81808 8.85833 5.7442 8.77434C6.67033 8.69034 7.60283 8.83716 8.45833 9.20167" stroke="#E1E9EF" stroke-width="1.25" stroke-linecap="round" stroke-linejoin="round"/>
<path d="M2.8125 4.0625C2.8125 4.97418 3.17466 5.84852 3.81932 6.49318C4.46398 7.13784 5.33832 7.5 6.25 7.5C7.16168 7.5 8.03602 7.13784 8.68068 6.49318C9.32534 5.84852 9.6875 4.97418 9.6875 4.0625C9.6875 3.15082 9.32534 2.27648 8.68068 1.63182C8.03602 0.987164 7.16168 0.625 6.25 0.625C5.33832 0.625 4.46398 0.987164 3.81932 1.63182C3.17466 2.27648 2.8125 3.15082 2.8125 4.0625V4.0625Z" stroke="#E1E9EF" stroke-width="1.25" stroke-linecap="round" stroke-linejoin="round"/>
</svg>
