<svg width="20" height="20" viewBox="0 0 20 20" fill="none" xmlns="http://www.w3.org/2000/svg">
<g clip-path="url(#clip0_20818_9235)">
<path d="M20 1.25806C20 0.924405 19.8683 0.604411 19.6339 0.368479C19.3995 0.132546 19.0815 0 18.75 0L1.25 0C0.918479 0 0.600537 0.132546 0.366117 0.368479C0.131696 0.604411 0 0.924405 0 1.25806L0 12.7903C0 12.8459 0.0219493 12.8993 0.0610194 12.9386C0.100089 12.9779 0.15308 13 0.208333 13H19.7917C19.8469 13 19.8999 12.9779 19.939 12.9386C19.9781 12.8993 20 12.8459 20 12.7903V1.25806Z" fill="white"/>
<path d="M19.7917 14.1667H0.208333C0.15308 14.1667 0.100089 14.1886 0.0610194 14.2277C0.0219493 14.2668 0 14.3198 0 14.375L0 15.4167C0 15.7482 0.131696 16.0662 0.366117 16.3006C0.600537 16.535 0.918479 16.6667 1.25 16.6667H7.76667C7.80522 16.6664 7.84303 16.6773 7.87556 16.6979C7.90809 16.7186 7.93394 16.7483 7.95 16.7834C7.97009 16.8144 7.98078 16.8506 7.98078 16.8875C7.98078 16.9245 7.97009 16.9607 7.95 16.9917L6.28333 19.3417C6.24267 19.4066 6.22111 19.4817 6.22111 19.5584C6.22111 19.635 6.24267 19.7101 6.28333 19.775C6.31781 19.8462 6.37264 19.9056 6.44087 19.9457C6.5091 19.9857 6.58768 20.0046 6.66667 20H13.3333C13.4095 20.0013 13.4845 19.9809 13.5495 19.941C13.6144 19.9011 13.6667 19.8436 13.7 19.775C13.7407 19.7101 13.7622 19.635 13.7622 19.5584C13.7622 19.4817 13.7407 19.4066 13.7 19.3417L12.0333 16.9917C12.0132 16.9607 12.0026 16.9245 12.0026 16.8875C12.0026 16.8506 12.0132 16.8144 12.0333 16.7834C12.0494 16.7483 12.0752 16.7186 12.1078 16.6979C12.1403 16.6773 12.1781 16.6664 12.2167 16.6667H18.75C19.0815 16.6667 19.3995 16.535 19.6339 16.3006C19.8683 16.0662 20 15.7482 20 15.4167V14.375C20 14.3198 19.9781 14.2668 19.939 14.2277C19.8999 14.1886 19.8469 14.1667 19.7917 14.1667Z" fill="white"/>
</g>
<defs>
<clipPath id="clip0_20818_9235">
<rect width="20" height="20" fill="white"/>
</clipPath>
</defs>
</svg>
