<svg width="28" height="20" viewBox="0 0 28 20" fill="none" xmlns="http://www.w3.org/2000/svg">
<path d="M3.2085 4.375C4.24403 4.375 5.0835 3.53553 5.0835 2.5C5.0835 1.46447 4.24403 0.625 3.2085 0.625C2.17296 0.625 1.3335 1.46447 1.3335 2.5C1.3335 3.53553 2.17296 4.375 3.2085 4.375Z" fill="white"/>
<path d="M3.2085 11.875C4.24403 11.875 5.0835 11.0355 5.0835 10C5.0835 8.96447 4.24403 8.125 3.2085 8.125C2.17296 8.125 1.3335 8.96447 1.3335 10C1.3335 11.0355 2.17296 11.875 3.2085 11.875Z" fill="white"/>
<path d="M3.2085 19.375C4.24403 19.375 5.0835 18.5355 5.0835 17.5C5.0835 16.4645 4.24403 15.625 3.2085 15.625C2.17296 15.625 1.3335 16.4645 1.3335 17.5C1.3335 18.5355 2.17296 19.375 3.2085 19.375Z" fill="white"/>
<path d="M7.5835 2.5H20.0835" stroke="white" stroke-width="1.66667" stroke-linecap="round" stroke-linejoin="round"/>
<path d="M7.375 10H13.2083" stroke="white" stroke-width="1.66667" stroke-linecap="round" stroke-linejoin="round"/>
<path d="M7.375 17.5H10.7083" stroke="white" stroke-width="1.66667" stroke-linecap="round" stroke-linejoin="round"/>
<path d="M25.8266 13.1597C25.3696 14.235 24.5041 15.0848 23.4206 15.522C22.337 15.9593 21.1241 15.9482 20.0488 15.4912C18.9734 15.0341 18.1237 14.1687 17.6864 13.0851C17.2492 12.0015 17.2603 10.7887 17.7173 9.71332C18.1743 8.63796 19.0398 7.7882 20.1234 7.35096C21.2069 6.91373 22.4198 6.92484 23.4952 7.38186C24.5705 7.83887 25.4203 8.70436 25.8575 9.78791C26.2948 10.8715 26.2836 12.0843 25.8266 13.1597V13.1597Z" stroke="#E1E9EF" stroke-width="1.66667" stroke-linecap="round" stroke-linejoin="round"/>
<path d="M18.6562 14.5514L15.2394 17.9688" stroke="#E1E9EF" stroke-width="1.66667" stroke-linecap="round" stroke-linejoin="round"/>
</svg>
