<svg width="21" height="20" viewBox="0 0 21 20" fill="none" xmlns="http://www.w3.org/2000/svg">
<path d="M15.8992 14L10.9992 18.8995C10.9674 18.9313 10.9297 18.9566 10.8881 18.9738C10.8465 18.9911 10.802 18.9999 10.757 18.9999C10.712 18.9999 10.6674 18.9911 10.6258 18.9738C10.5843 18.9566 10.5465 18.9313 10.5147 18.8995L5.61475 14" stroke="#E1E9EF" stroke-width="0.998127" stroke-linecap="round" stroke-linejoin="round"/>
<path d="M15.8993 5.5L10.9993 0.600447C10.9675 0.568604 10.9297 0.543343 10.8881 0.526107C10.8466 0.508871 10.802 0.5 10.757 0.5C10.712 0.5 10.6675 0.508871 10.6259 0.526107C10.5843 0.543343 10.5466 0.568604 10.5148 0.600447L5.61475 5.5" stroke="#E1E9EF" stroke-width="0.898313" stroke-linecap="round" stroke-linejoin="round"/>
</svg>
