<?xml version="1.0" encoding="utf-8"?>
<!-- Generator: Adobe Illustrator 27.7.0, SVG Export Plug-In . SVG Version: 6.00 Build 0)  -->
<svg version="1.1" id="Layer_1" xmlns="http://www.w3.org/2000/svg" xmlns:xlink="http://www.w3.org/1999/xlink" x="0px" y="0px"
	 viewBox="0 0 24 24" style="enable-background:new 0 0 24 24;" xml:space="preserve">
<style type="text/css">
	.st0{fill-rule:evenodd;clip-rule:evenodd;fill:#FFFFFF;fill-opacity:0.6;}
	.st1{fill:#FFFFFF;fill-opacity:0.6;}
</style>
<path class="st0" d="M2,10.4c0.1,0,0.2,0,0.3,0.1l9.7,5.8l9.7-5.8c0.1-0.1,0.2-0.1,0.3-0.1V9L12,2L2,9V10.4z M22,11.7l-9.7,5.8
	L12,17.7l-0.3-0.2L2,11.7V20c0,1.1,0.9,2,2,2h16c1.1,0,2-0.9,2-2V11.7z"/>
<path class="st1" d="M2,10.4l10,5.9l10-5.9V9L12,2L2,9V10.4z"/>
</svg>
