<svg width="20" height="21" viewBox="0 0 20 21" fill="none" xmlns="http://www.w3.org/2000/svg">
<path d="M9.99961 5.26578C6.64045 5.20911 3.16628 7.55661 0.982112 9.96078C0.752848 10.2153 0.625977 10.5457 0.625977 10.8883C0.625977 11.2308 0.752848 11.5613 0.982112 11.8158C3.11878 14.1691 6.58295 16.5708 9.99961 16.5133C13.4163 16.5708 16.8813 14.1691 19.0196 11.8158C19.2489 11.5613 19.3757 11.2308 19.3757 10.8883C19.3757 10.5457 19.2489 10.2153 19.0196 9.96078C16.8329 7.55661 13.3588 5.20911 9.99961 5.26578Z" stroke="#E1E9EF" stroke-width="1.25" stroke-linecap="round" stroke-linejoin="round"/>
<path d="M13.125 10.89C13.1248 11.508 12.9414 12.1121 12.5979 12.6259C12.2545 13.1397 11.7663 13.5401 11.1953 13.7765C10.6243 14.0129 9.99597 14.0747 9.38983 13.954C8.7837 13.8333 8.22695 13.5356 7.79 13.0986C7.35304 12.6615 7.0555 12.1047 6.93499 11.4985C6.81448 10.8923 6.87641 10.2641 7.11296 9.69308C7.34951 9.12211 7.75005 8.6341 8.26393 8.29076C8.77782 7.94742 9.38197 7.76416 10 7.76416C10.4105 7.76405 10.817 7.84483 11.1962 8.00189C11.5755 8.15895 11.92 8.38921 12.2102 8.6795C12.5005 8.9698 12.7306 9.31443 12.8876 9.69372C13.0445 10.073 13.1252 10.4795 13.125 10.89Z" stroke="#E1E9EF" stroke-width="1.25" stroke-linecap="round" stroke-linejoin="round"/>
</svg>
