<?xml version="1.0" encoding="utf-8"?>
<!-- Generator: Adobe Illustrator 26.0.1, SVG Export Plug-In . SVG Version: 6.00 Build 0)  -->
<svg version="1.1" id="Regular" xmlns="http://www.w3.org/2000/svg" xmlns:xlink="http://www.w3.org/1999/xlink" x="0px" y="0px"
	 viewBox="0 0 48 48" style="enable-background:new 0 0 48 48;" xml:space="preserve">
<style type="text/css">
	.st0{fill:none;stroke:#FFFFFF;stroke-width:2;stroke-linecap:round;stroke-linejoin:round;stroke-miterlimit:8;}
</style>
<g transform="matrix(2,0,0,2,0,0)">
	<path class="st0" d="M12.1,23.2H1.8c-0.6,0-1-0.4-1-1V1.8c0-0.6,0.4-1,1-1h20.5c0.6,0,1,0.4,1,1v20.5c0,0.6-0.4,1-1,1h-6.1v-8.5
		h2.6c0.3,0,0.5-0.2,0.5-0.4l0.4-3c0-0.3-0.2-0.5-0.4-0.6c0,0,0,0-0.1,0h-2.9V9.7c0-0.9,0.8-1.7,1.7-1.7l0,0h1.8
		c0.3,0,0.5-0.2,0.5-0.5v-3c0-0.3-0.2-0.5-0.5-0.5h-1.8c-3.1,0-5.7,2.5-5.7,5.7l0,0v1.1H9.6c-0.3,0-0.5,0.2-0.5,0.5v3
		c0,0.3,0.2,0.5,0.5,0.5h2.5V23.2z"/>
</g>
</svg>
