<svg width="16" height="16" viewBox="0 0 16 16" fill="none" xmlns="http://www.w3.org/2000/svg">
<g clip-path="url(#clip0)">
<path d="M0.96933 0.96875H15.0318V15.0312H0.96933V0.96875Z" stroke="#E1E9EF" stroke-width="1.125" stroke-linecap="round" stroke-linejoin="round"/>
<path d="M8.46933 10.3438H12.2193" stroke="#E1E9EF" stroke-width="1.125" stroke-linecap="round" stroke-linejoin="round"/>
<path d="M3.78183 10.3438H5.65683" stroke="#E1E9EF" stroke-width="1.125" stroke-linecap="round" stroke-linejoin="round"/>
<path d="M8.46933 10.3438C8.46933 10.6219 8.38687 10.8937 8.23238 11.125C8.07788 11.3562 7.8583 11.5364 7.60137 11.6429C7.34445 11.7493 7.06173 11.7772 6.78896 11.723C6.5162 11.6688 6.26562 11.5349 6.06893 11.3383C5.87224 11.1417 5.73826 10.8912 5.68393 10.6185C5.6296 10.3457 5.65736 10.063 5.7637 9.80603C5.87004 9.54907 6.05018 9.3294 6.28136 9.1748C6.51253 9.0202 6.78435 8.93762 7.06246 8.9375C7.24718 8.93742 7.43011 8.97373 7.6008 9.04437C7.77148 9.115 7.92658 9.21857 8.05723 9.34916C8.18788 9.47975 8.29152 9.6348 8.36223 9.80546C8.43294 9.97611 8.46933 10.159 8.46933 10.3438V10.3438Z" stroke="#E1E9EF" stroke-width="1.125" stroke-linecap="round" stroke-linejoin="round"/>
<path d="M9.40683 5.65625H3.78183" stroke="#E1E9EF" stroke-width="1.125" stroke-linecap="round" stroke-linejoin="round"/>
<path d="M12.2193 5.65625C12.2193 5.37815 12.1369 5.10629 11.9824 4.87504C11.8279 4.6438 11.6083 4.46356 11.3514 4.3571C11.0945 4.25065 10.8117 4.22277 10.539 4.27698C10.2662 4.33119 10.0156 4.46506 9.81893 4.66166C9.62224 4.85827 9.48826 5.10878 9.43393 5.38152C9.3796 5.65427 9.40736 5.937 9.5137 6.19397C9.62004 6.45094 9.80018 6.6706 10.0314 6.8252C10.2625 6.9798 10.5344 7.06238 10.8125 7.0625C11.1855 7.0625 11.5432 6.91436 11.807 6.65066C12.0709 6.38695 12.2192 6.02927 12.2193 5.65625V5.65625Z" stroke="#E1E9EF" stroke-width="1.125" stroke-linecap="round" stroke-linejoin="round"/>
</g>
<defs>
<clipPath id="clip0">
<rect width="15" height="15" fill="white" transform="translate(0.5 0.5)"/>
</clipPath>
</defs>
</svg>
