<svg width="20" height="20" viewBox="0 0 20 20" fill="none" xmlns="http://www.w3.org/2000/svg">
<path d="M15.625 4.375V3.56C15.6262 3.33993 15.5841 3.12177 15.501 2.91798C15.4179 2.7142 15.2954 2.52878 15.1407 2.37231C14.9859 2.21585 14.8018 2.0914 14.599 2.00607C14.3961 1.92074 14.1784 1.8762 13.9584 1.875H2.29169C2.07162 1.8762 1.85393 1.92074 1.65107 2.00607C1.44821 2.0914 1.26414 2.21585 1.10938 2.37231C0.954611 2.52878 0.832181 2.7142 0.749076 2.91798C0.665971 3.12177 0.623818 3.33993 0.625025 3.56V11.44C0.623818 11.6601 0.665971 11.8782 0.749076 12.082C0.832181 12.2858 0.954611 12.4712 1.10938 12.6277C1.26414 12.7842 1.44821 12.9086 1.65107 12.9939C1.85393 13.0793 2.07162 13.1238 2.29169 13.125" stroke="white" stroke-width="1.25" stroke-linecap="round" stroke-linejoin="round"/>
<path d="M9.44922 18.125L13.1484 12.8692C13.2571 12.714 13.3996 12.5855 13.5653 12.4935C13.7309 12.4015 13.9153 12.3483 14.1045 12.338C14.2937 12.3277 14.4828 12.3606 14.6574 12.4342C14.8321 12.5077 14.9877 12.62 15.1126 12.7625L19.2276 17.465" stroke="white" stroke-width="1.25" stroke-linecap="round" stroke-linejoin="round"/>
<path d="M9.0625 10.625C9.12431 10.625 9.18473 10.6433 9.23612 10.6777C9.28751 10.712 9.32756 10.7608 9.35121 10.8179C9.37486 10.875 9.38105 10.9378 9.369 10.9985C9.35694 11.0591 9.32718 11.1148 9.28347 11.1585C9.23977 11.2022 9.18409 11.2319 9.12347 11.244C9.06285 11.2561 9.00001 11.2499 8.94291 11.2262C8.88581 11.2026 8.837 11.1625 8.80267 11.1111C8.76833 11.0597 8.75 10.9993 8.75 10.9375C8.75 10.8546 8.78292 10.7751 8.84153 10.7165C8.90013 10.6579 8.97962 10.625 9.0625 10.625" stroke="white" stroke-width="1.25" stroke-linecap="round" stroke-linejoin="round"/>
<path d="M18.5417 6.875H5.83333C5.3731 6.875 5 7.2481 5 7.70833V17.2917C5 17.7519 5.3731 18.125 5.83333 18.125H18.5417C19.0019 18.125 19.375 17.7519 19.375 17.2917V7.70833C19.375 7.2481 19.0019 6.875 18.5417 6.875Z" stroke="white" stroke-width="1.25" stroke-linecap="round" stroke-linejoin="round"/>
</svg>
