<svg width="20" height="20" viewBox="0 0 20 20" fill="none" xmlns="http://www.w3.org/2000/svg">
<path d="M0.625 10C0.625 12.4864 1.61272 14.871 3.37087 16.6291C5.12903 18.3873 7.5136 19.375 10 19.375C12.4864 19.375 14.871 18.3873 16.6291 16.6291C18.3873 14.871 19.375 12.4864 19.375 10C19.375 7.5136 18.3873 5.12903 16.6291 3.37087C14.871 1.61272 12.4864 0.625 10 0.625C7.5136 0.625 5.12903 1.61272 3.37087 3.37087C1.61272 5.12903 0.625 7.5136 0.625 10V10Z" stroke="white" stroke-width="1.25" stroke-miterlimit="10"/>
<path d="M10 6C10.1978 6 10.3911 5.94135 10.5556 5.83147C10.72 5.72159 10.8482 5.56541 10.9239 5.38269C10.9996 5.19996 11.0194 4.99889 10.9808 4.80491C10.9422 4.61093 10.847 4.43274 10.7071 4.29289C10.5673 4.15304 10.3891 4.0578 10.1951 4.01922C10.0011 3.98063 9.80004 4.00043 9.61732 4.07612C9.43459 4.15181 9.27841 4.27998 9.16853 4.44443C9.05865 4.60888 9 4.80222 9 5C9 5.26522 9.10536 5.51957 9.29289 5.70711C9.48043 5.89464 9.73478 6 10 6Z" fill="white"/>
<path d="M10 8.5L10 15.375" stroke="white" stroke-width="1.25" stroke-miterlimit="10" stroke-linecap="round"/>
</svg>
