<?xml version="1.0" encoding="utf-8"?>
<!-- Generator: Adobe Illustrator 26.0.1, SVG Export Plug-In . SVG Version: 6.00 Build 0)  -->
<svg version="1.1" id="Layer_1" xmlns="http://www.w3.org/2000/svg" xmlns:xlink="http://www.w3.org/1999/xlink" x="0px" y="0px"
	 viewBox="0 0 48 48" style="enable-background:new 0 0 48 48;" xml:space="preserve">
<style type="text/css">
	.st0{fill:none;stroke:#FFFFFF;stroke-width:2;stroke-linecap:round;stroke-linejoin:round;stroke-miterlimit:8;}
	.st1{fill:none;stroke:#FFFFFF;stroke-width:2;stroke-miterlimit:8;}
</style>
<g transform="matrix(2,0,0,2,0,0)">
	<path class="st0" d="M12,16.7c2.6,0,4.7-2.1,4.7-4.7S14.6,7.3,12,7.3S7.3,9.4,7.3,12S9.4,16.7,12,16.7z"/>
	<path class="st0" d="M17.4,1.2H6.6c-3,0-5.4,2.4-5.4,5.4v10.8c0,3,2.4,5.4,5.4,5.4h10.8c3,0,5.4-2.4,5.4-5.4V6.6
		C22.8,3.7,20.3,1.2,17.4,1.2z"/>
	<g>
		<path class="st1" d="M18.2,6.1c-0.2,0-0.3-0.2-0.3-0.3s0.2-0.3,0.3-0.3"/>
		<path class="st1" d="M18.2,6.1c0.2,0,0.3-0.2,0.3-0.3s-0.2-0.3-0.3-0.3"/>
	</g>
</g>
</svg>
