<svg width="20" height="20" viewBox="0 0 20 20" fill="none" xmlns="http://www.w3.org/2000/svg">
<path d="M15.625 8.125H4.375C3.68464 8.125 3.125 8.68467 3.125 9.375V18.125C3.125 18.8153 3.68464 19.375 4.375 19.375H15.625C16.3153 19.375 16.875 18.8153 16.875 18.125V9.375C16.875 8.68467 16.3153 8.125 15.625 8.125Z" stroke="#E1E9EF" stroke-width="1.25" stroke-linecap="round" stroke-linejoin="round"/>
<path d="M5.625 8.125V5C5.625 3.83967 6.08593 2.72688 6.90641 1.90641C7.72688 1.08593 8.83967 0.625 10 0.625C11.1603 0.625 12.2731 1.08593 13.0936 1.90641C13.9141 2.72688 14.375 3.83967 14.375 5V8.125" stroke="#E1E9EF" stroke-width="1.25" stroke-linecap="round" stroke-linejoin="round"/>
<path d="M10 13.75C9.82742 13.75 9.6875 13.6101 9.6875 13.4375C9.6875 13.2649 9.82742 13.125 10 13.125" stroke="#E1E9EF" stroke-width="1.25"/>
<path d="M10 13.75C10.1726 13.75 10.3125 13.6101 10.3125 13.4375C10.3125 13.2649 10.1726 13.125 10 13.125" stroke="#E1E9EF" stroke-width="1.25"/>
</svg>
