<svg width="20" height="21" viewBox="0 0 20 21" fill="none" xmlns="http://www.w3.org/2000/svg">
<path d="M5.75 5.875C5.75 7.03532 6.21094 8.14812 7.03141 8.96859C7.85188 9.78906 8.96468 10.25 10.125 10.25C11.2853 10.25 12.3981 9.78906 13.2186 8.96859C14.0391 8.14812 14.5 7.03532 14.5 5.875C14.5 4.71468 14.0391 3.60188 13.2186 2.78141C12.3981 1.96094 11.2853 1.5 10.125 1.5C8.96468 1.5 7.85188 1.96094 7.03141 2.78141C6.21094 3.60188 5.75 4.71468 5.75 5.875V5.875Z" stroke="white" stroke-width="1.25" stroke-linecap="round" stroke-linejoin="round"/>
<path d="M2 20.25C2 18.0951 2.85602 16.0285 4.37976 14.5048C5.90349 12.981 7.97012 12.125 10.125 12.125C12.2799 12.125 14.3465 12.981 15.8702 14.5048C17.394 16.0285 18.25 18.0951 18.25 20.25" stroke="white" stroke-width="1.25" stroke-linecap="round" stroke-linejoin="round"/>
</svg>
