<svg width="16" height="16" viewBox="0 0 16 16" fill="none" xmlns="http://www.w3.org/2000/svg">
<g clip-path="url(#clip0)">
<path d="M1.42008 8.84813C2.00768 10.2307 3.12044 11.3233 4.51358 11.8854C5.90672 12.4476 7.46612 12.4333 8.84872 11.8457C10.2313 11.2581 11.3239 10.1454 11.886 8.75223C12.4482 7.35909 12.4339 5.79969 11.8463 4.41708C11.2587 3.03448 10.146 1.94192 8.75282 1.37976C7.35968 0.817605 5.80028 0.831894 4.41768 1.41949C3.03507 2.00708 1.94252 3.11984 1.38036 4.51299C0.8182 5.90613 0.832489 7.46552 1.42008 8.84813V8.84813Z" stroke="#E1E9EF" stroke-width="1.25" stroke-linecap="round" stroke-linejoin="round"/>
<path d="M10.6382 10.6375L15.0314 15.0312" stroke="#E1E9EF" stroke-width="1.25" stroke-linecap="round" stroke-linejoin="round"/>
</g>
<defs>
<clipPath id="clip0">
<rect width="15" height="15" fill="white" transform="translate(0.5 0.5)"/>
</clipPath>
</defs>
</svg>
