<svg width="20" height="21" viewBox="0 0 20 21" fill="none" xmlns="http://www.w3.org/2000/svg">
<g clip-path="url(#clip0_853_26535)">
<path d="M14.375 7.76489H15.625C15.9565 7.76489 16.2745 7.89659 16.5089 8.13101C16.7433 8.36543 16.875 8.68337 16.875 9.01489V19.0149C16.875 19.3464 16.7433 19.6644 16.5089 19.8988C16.2745 20.1332 15.9565 20.2649 15.625 20.2649H4.375C4.04348 20.2649 3.72554 20.1332 3.49112 19.8988C3.2567 19.6644 3.125 19.3464 3.125 19.0149V9.01489C3.125 8.68337 3.2567 8.36543 3.49112 8.13101C3.72554 7.89659 4.04348 7.76489 4.375 7.76489H5.625" stroke="white" stroke-width="1.25" stroke-linecap="round" stroke-linejoin="round"/>
<path d="M10 1.51489V10.2649" stroke="white" stroke-width="1.25" stroke-linecap="round" stroke-linejoin="round"/>
<path d="M6.875 4.63989L10 1.51489L13.125 4.63989" stroke="white" stroke-width="1.25" stroke-linecap="round" stroke-linejoin="round"/>
</g>
<defs>
<clipPath id="clip0_853_26535">
<rect width="20" height="20" fill="white" transform="translate(0 0.889893)"/>
</clipPath>
</defs>
</svg>
