<svg width="20" height="20" viewBox="0 0 20 20" fill="none" xmlns="http://www.w3.org/2000/svg">
<g clip-path="url(#clip0_621_19943)">
<path d="M18.8558 12.3919L12.5 18.7502L9.375 19.3752L10 16.2502L16.3592 9.89189C16.5227 9.72804 16.717 9.59804 16.9308 9.50935C17.1447 9.42065 17.3739 9.375 17.6054 9.375C17.8369 9.375 18.0662 9.42065 18.28 9.50935C18.4939 9.59804 18.6881 9.72804 18.8517 9.89189L18.8592 9.89856C19.1893 10.2297 19.3744 10.6783 19.3738 11.1459C19.3731 11.6135 19.1868 12.0617 18.8558 12.3919Z" stroke="white" stroke-width="1.25" stroke-linecap="round" stroke-linejoin="round"/>
<path d="M6.87158 16.875H1.87158C1.54006 16.875 1.22212 16.7433 0.987699 16.5089C0.753278 16.2745 0.621582 15.9565 0.621582 15.625V1.875C0.621582 1.54348 0.753278 1.22554 0.987699 0.991117C1.22212 0.756696 1.54006 0.625 1.87158 0.625H14.3716C14.7031 0.625 15.021 0.756696 15.2555 0.991117C15.4899 1.22554 15.6216 1.54348 15.6216 1.875V7.5" stroke="white" stroke-width="1.25" stroke-linecap="round" stroke-linejoin="round"/>
</g>
<defs>
<clipPath id="clip0_621_19943">
<rect width="20" height="20" fill="white"/>
</clipPath>
</defs>
</svg>
