<svg width="20" height="21" viewBox="0 0 20 21" fill="none" xmlns="http://www.w3.org/2000/svg">
<g clip-path="url(#clip0_853_26532)">
<path d="M13.125 1.51245H6.875C6.18464 1.51245 5.625 2.0721 5.625 2.76245V19.0125C5.625 19.7028 6.18464 20.2625 6.875 20.2625H13.125C13.8154 20.2625 14.375 19.7028 14.375 19.0125V2.76245C14.375 2.0721 13.8154 1.51245 13.125 1.51245Z" stroke="white" stroke-width="1.25" stroke-linecap="round" stroke-linejoin="round"/>
<path d="M2.5 4.01245H1.25C0.904822 4.01245 0.625 4.29227 0.625 4.63745V17.1375C0.625 17.4826 0.904822 17.7625 1.25 17.7625H2.5C2.84518 17.7625 3.125 17.4826 3.125 17.1375V4.63745C3.125 4.29227 2.84518 4.01245 2.5 4.01245Z" stroke="white" stroke-width="1.25" stroke-linecap="round" stroke-linejoin="round"/>
<path d="M18.75 4.01245H17.5C17.1548 4.01245 16.875 4.29227 16.875 4.63745V17.1375C16.875 17.4826 17.1548 17.7625 17.5 17.7625H18.75C19.0952 17.7625 19.375 17.4826 19.375 17.1375V4.63745C19.375 4.29227 19.0952 4.01245 18.75 4.01245Z" stroke="white" stroke-width="1.25" stroke-linecap="round" stroke-linejoin="round"/>
</g>
<defs>
<clipPath id="clip0_853_26532">
<rect width="20" height="20" fill="white" transform="translate(0 0.889893)"/>
</clipPath>
</defs>
</svg>
