<svg width="20" height="21" viewBox="0 0 20 21" fill="none" xmlns="http://www.w3.org/2000/svg">
<g clip-path="url(#clip0_853_26542)">
<path d="M10.6071 1.89001L13.3954 7.41417L18.7621 7.94584C18.8898 7.95646 19.0119 8.00346 19.1138 8.08129C19.2156 8.15911 19.2931 8.2645 19.3369 8.38497C19.3808 8.50544 19.3892 8.63595 19.3611 8.76105C19.3331 8.88615 19.2698 9.0006 19.1788 9.09084L14.7621 13.4683L16.3996 19.4167C16.4331 19.5428 16.4294 19.676 16.389 19.8001C16.3487 19.9243 16.2733 20.0341 16.172 20.1164C16.0706 20.1987 15.9477 20.25 15.8179 20.2641C15.6881 20.2782 15.557 20.2545 15.4404 20.1958L9.99959 17.5017L4.56626 20.1925C4.44963 20.2512 4.31854 20.2749 4.18877 20.2608C4.05899 20.2467 3.93604 20.1954 3.83472 20.1131C3.7334 20.0308 3.65801 19.9209 3.61763 19.7968C3.57725 19.6727 3.57359 19.5395 3.60709 19.4133L5.24459 13.465L0.824589 9.08751C0.733532 8.99726 0.670241 8.88282 0.642209 8.75772C0.614178 8.63262 0.622579 8.50211 0.666419 8.38164C0.710259 8.26116 0.787701 8.15578 0.889577 8.07795C0.991453 8.00013 1.1135 7.95313 1.24126 7.94251L6.60792 7.41084L9.39209 1.89001C9.44935 1.77817 9.53637 1.68432 9.64356 1.61878C9.75075 1.55324 9.87395 1.51855 9.99959 1.51855C10.1252 1.51855 10.2484 1.55324 10.3556 1.61878C10.4628 1.68432 10.5498 1.77817 10.6071 1.89001V1.89001Z" stroke="#E1E9EF" stroke-width="1.25" stroke-linecap="round" stroke-linejoin="round"/>
</g>
<defs>
<clipPath id="clip0_853_26542">
<rect width="20" height="20" fill="white" transform="translate(0 0.889893)"/>
</clipPath>
</defs>
</svg>
