<?xml version="1.0" encoding="utf-8"?>
<!-- Generator: Adobe Illustrator 27.7.0, SVG Export Plug-In . SVG Version: 6.00 Build 0)  -->
<svg version="1.1" id="Layer_1" xmlns="http://www.w3.org/2000/svg" xmlns:xlink="http://www.w3.org/1999/xlink" x="0px" y="0px"
	 viewBox="0 0 24 24" style="enable-background:new 0 0 24 24;" xml:space="preserve">
<style type="text/css">
	.st0{fill-rule:evenodd;clip-rule:evenodd;fill:#153549;fill-opacity:0.3;}
	.st1{fill-rule:evenodd;clip-rule:evenodd;fill:#233D4D;}
</style>
<path class="st0" d="M9.3,6c0,1.5-1.2,2.7-2.7,2.7S3.8,7.5,3.8,6s1.2-2.7,2.7-2.7S9.3,4.5,9.3,6z M6.6,12c2.6,0,4.8,1.6,5.3,3.8
	c-0.5,0.4-0.9,0.8-1.2,1.3c-1.2,0.2-2.6,0.3-4.1,0.3c-1.4,0-3.3-0.1-5.4-0.6C1.1,14.2,3.6,12,6.6,12z"/>
<path class="st1" d="M19.6,7.6c0,1.8-1.5,3.3-3.3,3.3s-3.3-1.5-3.3-3.3s1.5-3.3,3.3-3.3S19.6,5.8,19.6,7.6z M16.4,20.7
	c-1.7,0-4-0.2-6.5-0.7c0-3.2,2.9-5.8,6.5-5.8s6.5,2.6,6.5,5.8C21.2,20.4,19,20.7,16.4,20.7z"/>
<g id="_x38_nCQgW_00000116199435883333800600000003187902248390182034_">
	
		<image style="overflow:visible;" width="182" height="160" id="_x38_nCQgW_00000069393188361250159160000006232265882881853094_" xlink:href="E824E912B448D8B3.png"  transform="matrix(0.5 0 0 0.5 -126.2575 0)">
	</image>
</g>
</svg>
