<svg width="20" height="20" viewBox="0 0 20 20" fill="none" xmlns="http://www.w3.org/2000/svg">
<g clip-path="url(#clip0_403_5709)">
<path d="M4.375 18.1258C4.81432 18.1324 5.25086 18.1968 5.67333 18.3175L8.70167 19.1825C9.14801 19.3101 9.60995 19.3749 10.0742 19.375H14.145C15.3845 19.375 16.5799 18.9146 17.4991 18.0831C18.4184 17.2516 18.996 16.1083 19.12 14.875L19.37 10.625C19.4142 9.75747 19.1559 8.9015 18.6391 8.20328C18.1224 7.50505 17.3792 7.00788 16.5367 6.79667L15.3242 6.53167C15.0532 6.46447 14.8125 6.30849 14.6405 6.08859C14.4684 5.86869 14.375 5.59753 14.375 5.31833V2.5C14.375 2.00272 14.1775 1.52581 13.8258 1.17417C13.4742 0.822544 12.9973 0.625 12.5 0.625C12.0027 0.625 11.5258 0.822544 11.1742 1.17417C10.8225 1.52581 10.625 2.00272 10.625 2.5V3.795C10.625 5.4526 9.96652 7.04231 8.79442 8.21442C7.62232 9.38652 6.0326 10.045 4.375 10.045V18.1258Z" stroke="white" stroke-width="1.25" stroke-linecap="round" stroke-linejoin="round"/>
<path d="M0.625 8.125H4.375V19.375H0.625V8.125Z" stroke="white" stroke-width="1.25" stroke-linecap="round" stroke-linejoin="round"/>
</g>
<defs>
<clipPath id="clip0_403_5709">
<rect width="20" height="20" fill="white"/>
</clipPath>
</defs>
</svg>
