<?xml version="1.0" encoding="utf-8"?>
<!-- Generator: Adobe Illustrator 27.7.0, SVG Export Plug-In . SVG Version: 6.00 Build 0)  -->
<svg version="1.1" id="Layer_1" xmlns="http://www.w3.org/2000/svg" xmlns:xlink="http://www.w3.org/1999/xlink" x="0px" y="0px"
	 viewBox="0 0 20 20" style="enable-background:new 0 0 20 20;" xml:space="preserve">
<style type="text/css">
	.st0{fill:#FFFFFF;}
	.st1{fill:#FFFFFF;fill-opacity:0.6;}
	.st2{fill:#04364B;fill-opacity:0.6;}
</style>
<g>
	<path class="st0" d="M8.3,16.9l1.1,0.3c0.4,0.1,0.9,0.2,1.3,0.2h3.1c1,0,1.9-0.4,2.6-1c0.7-0.7,1.2-1.6,1.3-2.5l0.2-3.4
		c0-0.7-0.2-1.4-0.6-1.9c-0.4-0.6-1-0.9-1.7-1.1l-1-0.2c-0.2-0.1-0.4-0.2-0.5-0.3C14.1,6.7,14,6.5,14,6.3V4.1c0-0.4-0.2-0.8-0.4-1
		c-0.3-0.3-0.7-0.4-1-0.4s-0.8,0.2-1,0.4c-0.3,0.3-0.4,0.7-0.4,1l0,0.7c0,1.5-0.6,2.9-1.6,4c-0.6,0.6-0.9,1-1.6,1.2
		c-0.4,0.1-0.7,0.5-0.7,0.9v4.5C7.1,16,7.6,16.7,8.3,16.9z"/>
	<path class="st1" d="M2.6,8.5h1.8C4.7,8.5,5,8.8,5,9.1v7.7c0,0.3-0.3,0.6-0.6,0.6H2.6c-0.3,0-0.6-0.3-0.6-0.6V9.1
		C2.1,8.8,2.3,8.5,2.6,8.5z"/>
</g>
<path class="st2" d="M-21.7,15.5l-3.3,2.7v-4h-1.3c-0.4,0-0.7-0.1-0.9-0.4c-0.3-0.2-0.4-0.6-0.4-0.9V6.2c0-0.4,0.1-0.7,0.4-0.9
	c0.3-0.3,0.6-0.4,0.9-0.4h9.3c0.4,0,0.7,0.1,0.9,0.4c0.3,0.3,0.4,0.6,0.4,0.9v2.7h-4c-1.1,0-2,0.9-2,2V15.5z"/>
</svg>
