<svg width="20" height="21" viewBox="0 0 20 21" fill="none" xmlns="http://www.w3.org/2000/svg">
<g clip-path="url(#clip0_852_26374)">
<path d="M16.375 1.51489L13.25 3.38989L15.125 6.51489" stroke="white" stroke-width="1.25" stroke-linecap="round" stroke-linejoin="round"/>
<path d="M19.3749 7.71484C18.9563 6.55654 18.1681 5.56824 17.1318 4.90253C16.0956 4.23683 14.8691 3.93073 13.6416 4.03151" stroke="white" stroke-width="1.25" stroke-linecap="round" stroke-linejoin="round"/>
<path d="M3.625 20.2649L6.75 18.3899L4.875 15.2649" stroke="white" stroke-width="1.25" stroke-linecap="round" stroke-linejoin="round"/>
<path d="M0.625 14.0649C1.04361 15.2232 1.83187 16.2115 2.86809 16.8772C3.9043 17.543 5.13084 17.849 6.35833 17.7483" stroke="white" stroke-width="1.25" stroke-linecap="round" stroke-linejoin="round"/>
<path d="M1.875 1.51489H9.375C9.375 1.51489 10.625 1.51489 10.625 2.76489V10.2649C10.625 10.2649 10.625 11.5149 9.375 11.5149H1.875C1.875 11.5149 0.625 11.5149 0.625 10.2649V2.76489C0.625 2.76489 0.625 1.51489 1.875 1.51489Z" stroke="white" stroke-width="1.25" stroke-linecap="round" stroke-linejoin="round"/>
<path d="M13.125 10.2649H18.125C18.4565 10.2649 18.7745 10.3966 19.0089 10.631C19.2433 10.8654 19.375 11.1834 19.375 11.5149V19.0149C19.375 19.3464 19.2433 19.6644 19.0089 19.8988C18.7745 20.1332 18.4565 20.2649 18.125 20.2649H10.625C10.2935 20.2649 9.97554 20.1332 9.74112 19.8988C9.5067 19.6644 9.375 19.3464 9.375 19.0149V14.0149" stroke="white" stroke-width="1.25" stroke-linecap="round" stroke-linejoin="round"/>
<path d="M12.9165 15.8899H15.8332" stroke="white" stroke-width="1.25" stroke-linecap="round" stroke-linejoin="round"/>
<path d="M5.625 4.01489V5.26489" stroke="white" stroke-width="1.25" stroke-linecap="round" stroke-linejoin="round"/>
<path d="M3.125 5.26489H8.125" stroke="white" stroke-width="1.25" stroke-linecap="round" stroke-linejoin="round"/>
<path d="M6.875 5.26489C6.875 5.26489 5.625 9.01489 3.125 9.01489" stroke="white" stroke-width="1.25" stroke-linecap="round" stroke-linejoin="round"/>
<path d="M5.625 7.55652C5.90347 7.97224 6.27371 8.31843 6.70717 8.56839C7.14062 8.81835 7.62571 8.9654 8.125 8.99819" stroke="white" stroke-width="1.25" stroke-linecap="round" stroke-linejoin="round"/>
<path d="M12.9165 17.7649V14.4316C12.9165 14.0448 13.0701 13.6739 13.3436 13.4004C13.6171 13.1269 13.9881 12.9733 14.3748 12.9733C14.7616 12.9733 15.1325 13.1269 15.406 13.4004C15.6795 13.6739 15.8332 14.0448 15.8332 14.4316V17.7649" stroke="white" stroke-width="1.25" stroke-linecap="round" stroke-linejoin="round"/>
</g>
<defs>
<clipPath id="clip0_852_26374">
<rect width="20" height="20" fill="white" transform="translate(0 0.889893)"/>
</clipPath>
</defs>
</svg>
