<svg width="20" height="21" viewBox="0 0 20 21" fill="none" xmlns="http://www.w3.org/2000/svg">
<rect x="4" y="4" width="12" height="13" fill="white"/>
<path d="M10 0.125C8.02219 0.125 6.08879 0.71149 4.4443 1.8103C2.79981 2.90912 1.51809 4.4709 0.761209 6.29817C0.00433292 8.12543 -0.193701 10.1361 0.192152 12.0759C0.578004 14.0157 1.53041 15.7975 2.92894 17.1961C4.32746 18.5946 6.10929 19.547 8.0491 19.9329C9.98891 20.3187 11.9996 20.1207 13.8268 19.3638C15.6541 18.6069 17.2159 17.3252 18.3147 15.6807C19.4135 14.0362 20 12.1028 20 10.125C19.997 7.47376 18.9424 4.93198 17.0677 3.05727C15.193 1.18256 12.6512 0.128025 10 0.125V0.125ZM15.1429 8.55357L9.46286 14.2307C9.33019 14.3635 9.17263 14.4689 8.99921 14.5408C8.82578 14.6127 8.63988 14.6497 8.45215 14.6497C8.26441 14.6497 8.07852 14.6127 7.90509 14.5408C7.73166 14.4689 7.57411 14.3635 7.44143 14.2307L4.85715 11.6507C4.58928 11.3821 4.43909 11.0181 4.43963 10.6387C4.44016 10.2593 4.59138 9.89573 4.86 9.62786C5.12863 9.35999 5.49267 9.2098 5.87203 9.21034C6.25138 9.21087 6.61499 9.36209 6.88286 9.63071L8.45429 11.2021L13.1171 6.535C13.3848 6.26637 13.7483 6.11508 14.1275 6.11441C14.5067 6.11375 14.8707 6.26375 15.1393 6.53143C15.4079 6.79911 15.5592 7.16254 15.5599 7.54176C15.5605 7.92099 15.4105 8.28495 15.1429 8.55357Z" fill="#54C5C0"/>
</svg>
