<svg width="20" height="21" viewBox="0 0 20 21" fill="none" xmlns="http://www.w3.org/2000/svg">
<path d="M9.375 15.5C9.375 15.9973 9.57254 16.4742 9.92417 16.8258C10.2758 17.1775 10.7527 17.375 11.25 17.375C11.7473 17.375 12.2242 17.1775 12.5758 16.8258C12.9275 16.4742 13.125 15.9973 13.125 15.5C13.125 15.0027 12.9275 14.5258 12.5758 14.1742C12.2242 13.8225 11.7473 13.625 11.25 13.625C10.7527 13.625 10.2758 13.8225 9.92417 14.1742C9.57254 14.5258 9.375 15.0027 9.375 15.5Z" stroke="#E1E9EF" stroke-width="1.25" stroke-linecap="round" stroke-linejoin="round"/>
<path d="M15.625 18C15.625 18.4973 15.8225 18.9742 16.1742 19.3258C16.5258 19.6775 17.0027 19.875 17.5 19.875C17.9973 19.875 18.4742 19.6775 18.8258 19.3258C19.1775 18.9742 19.375 18.4973 19.375 18C19.375 17.5027 19.1775 17.0258 18.8258 16.6742C18.4742 16.3225 17.9973 16.125 17.5 16.125C17.0027 16.125 16.5258 16.3225 16.1742 16.6742C15.8225 17.0258 15.625 17.5027 15.625 18V18Z" stroke="#E1E9EF" stroke-width="1.25" stroke-linecap="round" stroke-linejoin="round"/>
<path d="M15.625 11.75C15.625 12.2473 15.8225 12.7242 16.1742 13.0758C16.5258 13.4275 17.0027 13.625 17.5 13.625C17.9973 13.625 18.4742 13.4275 18.8258 13.0758C19.1775 12.7242 19.375 12.2473 19.375 11.75C19.375 11.2527 19.1775 10.7758 18.8258 10.4242C18.4742 10.0725 17.9973 9.875 17.5 9.875C17.0027 9.875 16.5258 10.0725 16.1742 10.4242C15.8225 10.7758 15.625 11.2527 15.625 11.75V11.75Z" stroke="#E1E9EF" stroke-width="1.25" stroke-linecap="round" stroke-linejoin="round"/>
<path d="M12.8545 14.5375L15.8962 12.7125" stroke="#E1E9EF" stroke-width="1.25" stroke-linecap="round" stroke-linejoin="round"/>
<path d="M12.9902 16.1958L15.7602 17.3041" stroke="#E1E9EF" stroke-width="1.25" stroke-linecap="round" stroke-linejoin="round"/>
<path d="M10.0001 19.875C8.28148 19.8745 6.59608 19.4016 5.12807 18.5079C3.66007 17.6142 2.46597 16.3343 1.67626 14.8078C0.88656 13.2814 0.531645 11.5672 0.650306 9.85271C0.768967 8.1382 1.35664 6.48929 2.3491 5.08619C3.34155 3.68309 4.7006 2.57981 6.27772 1.8969C7.85483 1.214 9.58932 0.977757 11.2916 1.214C12.9939 1.45024 14.5985 2.14987 15.9301 3.23644C17.2616 4.323 18.2689 5.75468 18.8418 7.375" stroke="#E1E9EF" stroke-width="1.25" stroke-linecap="round" stroke-linejoin="round"/>
<path d="M7.74083 19.6008C6.47333 17.7408 5.625 14.3608 5.625 10.5C5.625 6.63917 6.47333 3.26 7.74083 1.39917" stroke="#E1E9EF" stroke-width="1.25" stroke-linecap="round" stroke-linejoin="round"/>
<path d="M2.49951 4.875H17.5003" stroke="#E1E9EF" stroke-width="1.25" stroke-linecap="round" stroke-linejoin="round"/>
<path d="M1.70654 14.875H6.87488" stroke="#E1E9EF" stroke-width="1.25" stroke-linecap="round" stroke-linejoin="round"/>
<path d="M12.2593 1.39917C13.4568 3.15584 14.2793 6.26834 14.3677 9.86084V9.875H0.645996" stroke="#E1E9EF" stroke-width="1.25" stroke-linecap="round" stroke-linejoin="round"/>
</svg>
