<?xml version="1.0" encoding="utf-8"?>
<!-- Generator: Adobe Illustrator 24.1.0, SVG Export Plug-In . SVG Version: 6.00 Build 0)  -->
<svg version="1.1" id="Layer_1" xmlns="http://www.w3.org/2000/svg" xmlns:xlink="http://www.w3.org/1999/xlink" x="0px" y="0px"
	 viewBox="0 0 265 164" style="enable-background:new 0 0 265 164;" xml:space="preserve">
<style type="text/css">
	.st0{fill:#153549;fill-opacity:0.9;}
	.st1{fill:#FFFFFF;}
	.st2{fill:#789BB6;}
	.st3{fill:#54C5C0;}
	.st4{fill:#376E6B;}
	.st5{fill:#D5AE5F;}
</style>
<g>
	<path class="st0" d="M7.5,0h112.5c4.1,0,7.5,3.4,7.5,7.5v148.2c0,4.1-3.4,7.5-7.5,7.5H7.5c-4.1,0-7.5-3.4-7.5-7.5V7.5
		C0,3.4,3.4,0,7.5,0z"/>
	<path class="st1" d="M36.3,86.9l-0.6-1.4h-3.2l-0.6,1.4h-1.3l2.9-6.6h1.3l2.8,6.6H36.3z M33,84.5h2.3l-1.1-2.8L33,84.5z M43,80v7
		h-1.2v-0.8c-0.2,0.3-0.4,0.5-0.7,0.6c-0.3,0.1-0.6,0.2-1,0.2c-0.5,0-0.9-0.1-1.3-0.3c-0.4-0.2-0.6-0.5-0.8-0.9
		c-0.2-0.4-0.3-0.8-0.3-1.4c0-0.5,0.1-0.9,0.3-1.3c0.2-0.4,0.5-0.7,0.8-0.9c0.4-0.2,0.8-0.3,1.2-0.3c0.4,0,0.7,0.1,1,0.2
		c0.3,0.2,0.5,0.4,0.7,0.6V80H43z M40.4,86c0.4,0,0.8-0.1,1-0.4c0.3-0.3,0.4-0.7,0.4-1.1c0-0.5-0.1-0.8-0.4-1.1
		c-0.3-0.3-0.6-0.4-1-0.4c-0.4,0-0.8,0.1-1,0.4c-0.3,0.3-0.4,0.6-0.4,1.1c0,0.5,0.1,0.8,0.4,1.1C39.6,85.8,39.9,86,40.4,86z
		 M47.5,86.9v-0.6c-0.2,0.2-0.4,0.4-0.7,0.5c-0.3,0.1-0.6,0.2-0.9,0.2c-0.4,0-0.7-0.1-0.9-0.2c-0.3-0.1-0.5-0.3-0.6-0.6
		c-0.1-0.2-0.2-0.5-0.2-0.8c0-0.5,0.2-0.8,0.5-1.1c0.3-0.3,0.8-0.4,1.4-0.4h1.5v-0.1c0-0.3-0.1-0.5-0.3-0.7
		c-0.2-0.2-0.5-0.2-0.8-0.2c-0.5,0-1,0.2-1.5,0.5l-0.4-0.8c0.4-0.2,0.8-0.4,1.1-0.5c0.3-0.1,0.7-0.2,1.1-0.2c0.7,0,1.2,0.2,1.5,0.5
		c0.4,0.3,0.5,0.8,0.6,1.3l0,3.3H47.5z M46.2,86.1c0.4,0,0.7-0.1,0.9-0.2c0.3-0.2,0.4-0.4,0.4-0.6v-0.5h-1.3c-0.3,0-0.6,0.1-0.7,0.2
		c-0.2,0.1-0.2,0.3-0.2,0.5c0,0.2,0.1,0.4,0.2,0.5C45.7,86,45.9,86.1,46.2,86.1z M56.7,81.9c0.6,0,1,0.2,1.3,0.5
		c0.3,0.3,0.5,0.8,0.5,1.4v3.1h-1.2v-2.8c0-0.4-0.1-0.6-0.3-0.8c-0.2-0.2-0.5-0.3-0.8-0.3c-0.4,0-0.7,0.2-0.9,0.4
		c-0.2,0.3-0.3,0.6-0.3,1v2.5h-1.2v-2.8c0-0.4-0.1-0.6-0.3-0.8c-0.2-0.2-0.5-0.3-0.8-0.3c-0.4,0-0.7,0.2-0.9,0.4
		c-0.2,0.3-0.3,0.6-0.3,1v2.5h-1.2v-5h1.2v0.9c0.3-0.6,0.9-1,1.8-1c0.4,0,0.8,0.1,1.1,0.3c0.3,0.2,0.5,0.5,0.6,0.9
		C55.1,82.3,55.8,81.9,56.7,81.9z M62.2,80.4h4.5l0,1.1h-3.3v1.8h3v1.1h-3v2.6h-1.3V80.4z M70.6,86.9v-0.6c-0.2,0.2-0.4,0.4-0.7,0.5
		C69.7,86.9,69.3,87,69,87c-0.4,0-0.7-0.1-0.9-0.2c-0.3-0.1-0.5-0.3-0.6-0.6c-0.1-0.2-0.2-0.5-0.2-0.8c0-0.5,0.2-0.8,0.5-1.1
		c0.3-0.3,0.8-0.4,1.4-0.4h1.5v-0.1c0-0.3-0.1-0.5-0.3-0.7c-0.2-0.2-0.5-0.2-0.8-0.2c-0.5,0-1,0.2-1.5,0.5l-0.4-0.8
		c0.4-0.2,0.8-0.4,1.1-0.5c0.3-0.1,0.7-0.2,1.1-0.2c0.7,0,1.2,0.2,1.5,0.5c0.4,0.3,0.5,0.8,0.6,1.3l0,3.3H70.6z M69.3,86.1
		c0.4,0,0.7-0.1,0.9-0.2c0.3-0.2,0.4-0.4,0.4-0.6v-0.5h-1.3c-0.3,0-0.6,0.1-0.7,0.2c-0.2,0.1-0.2,0.3-0.2,0.5c0,0.2,0.1,0.4,0.2,0.5
		C68.8,86,69,86.1,69.3,86.1z M72.8,81.9H77v0.8l-2.8,3.2l2.8,0v1l-4.4,0v-0.8l2.8-3.2l-2.7,0V81.9z M77.9,81.9h4.2v0.8l-2.8,3.2
		l2.8,0v1l-4.4,0v-0.8l2.8-3.2l-2.7,0V81.9z M86.1,86.9v-0.6c-0.2,0.2-0.4,0.4-0.7,0.5c-0.3,0.1-0.6,0.2-0.9,0.2
		c-0.4,0-0.7-0.1-0.9-0.2c-0.3-0.1-0.5-0.3-0.6-0.6c-0.1-0.2-0.2-0.5-0.2-0.8c0-0.5,0.2-0.8,0.5-1.1c0.3-0.3,0.8-0.4,1.4-0.4h1.5
		v-0.1c0-0.3-0.1-0.5-0.3-0.7c-0.2-0.2-0.5-0.2-0.8-0.2c-0.5,0-1,0.2-1.5,0.5l-0.4-0.8c0.4-0.2,0.8-0.4,1.1-0.5
		c0.3-0.1,0.7-0.2,1.1-0.2c0.7,0,1.2,0.2,1.5,0.5c0.4,0.3,0.5,0.8,0.6,1.3l0,3.3H86.1z M84.8,86.1c0.4,0,0.7-0.1,0.9-0.2
		c0.3-0.2,0.4-0.4,0.4-0.6v-0.5h-1.3c-0.3,0-0.6,0.1-0.7,0.2c-0.2,0.1-0.2,0.3-0.2,0.5c0,0.2,0.1,0.4,0.2,0.5
		C84.3,86,84.5,86.1,84.8,86.1z M91.7,81.9c0.6,0,1,0.2,1.4,0.5c0.3,0.3,0.5,0.8,0.5,1.4v3.1h-1.2v-2.8c0-0.4-0.1-0.6-0.3-0.8
		c-0.2-0.2-0.5-0.3-0.8-0.3c-0.4,0-0.7,0.1-1,0.4c-0.2,0.3-0.3,0.6-0.3,1v2.5h-1.2v-5h1.2v0.9C90.3,82.2,90.9,81.9,91.7,81.9z
		 M95,81.9h1.2v5H95V81.9z M95.6,79.8c0.2,0,0.4,0.1,0.5,0.2c0.1,0.1,0.2,0.3,0.2,0.5c0,0.2-0.1,0.4-0.2,0.5
		c-0.1,0.1-0.3,0.2-0.5,0.2c-0.2,0-0.4-0.1-0.5-0.2c-0.1-0.1-0.2-0.3-0.2-0.5c0-0.2,0.1-0.4,0.2-0.5C95.2,79.8,95.4,79.8,95.6,79.8z
		"/>
	<path class="st2" d="M55,94h1.3l-2.2,6.6h-1.3l-1.5-5l-1.5,5h-1.3L46.3,94h1.4l1.5,5.2l1.5-5.2h1.2l1.5,5.2L55,94z M58.8,95.5
		c0.5,0,1,0.1,1.4,0.3c0.4,0.2,0.7,0.5,0.9,0.9c0.2,0.4,0.3,0.8,0.3,1.3c0,0.5-0.1,1-0.3,1.3c-0.2,0.4-0.5,0.7-0.9,0.9
		c-0.4,0.2-0.9,0.3-1.4,0.3c-0.5,0-1-0.1-1.4-0.3c-0.4-0.2-0.7-0.5-0.9-0.9c-0.2-0.4-0.3-0.8-0.3-1.3c0-0.5,0.1-0.9,0.3-1.3
		c0.2-0.4,0.5-0.7,0.9-0.9C57.8,95.6,58.2,95.5,58.8,95.5z M58.8,96.5c-0.4,0-0.8,0.1-1,0.4s-0.4,0.6-0.4,1.1s0.1,0.8,0.4,1.1
		s0.6,0.4,1,0.4c0.4,0,0.8-0.1,1-0.4c0.3-0.3,0.4-0.6,0.4-1.1s-0.1-0.8-0.4-1.1C59.5,96.6,59.2,96.5,58.8,96.5z M63.7,96.5
		c0.2-0.3,0.4-0.6,0.7-0.7c0.3-0.2,0.6-0.3,1-0.3v1.2c-0.5,0-0.9,0.1-1.2,0.4c-0.3,0.3-0.5,0.6-0.5,1.1v2.4h-1.2v-5h1.2V96.5z
		 M69.6,100.5l-1.4-2.2l-0.8,0.8v1.4h-1.2v-7h1.2v4l2.1-2.1H71l-1.9,1.9l2,3.1H69.6z M73.8,95.5c0.8,0,1.4,0.2,1.8,0.7
		c0.4,0.5,0.6,1.1,0.6,1.9c0,0.2,0,0.3,0,0.4h-3.7c0.1,0.4,0.2,0.6,0.5,0.8c0.3,0.2,0.6,0.3,0.9,0.3c0.3,0,0.5,0,0.7-0.1
		c0.2-0.1,0.4-0.2,0.6-0.4l0.7,0.7c-0.3,0.3-0.6,0.5-0.9,0.6c-0.4,0.1-0.8,0.2-1.2,0.2c-0.5,0-1-0.1-1.4-0.3
		c-0.4-0.2-0.7-0.5-0.9-0.9c-0.2-0.4-0.3-0.8-0.3-1.3s0.1-0.9,0.3-1.3c0.2-0.4,0.5-0.7,0.9-0.9C72.8,95.6,73.3,95.5,73.8,95.5z
		 M75.1,97.6c0-0.4-0.1-0.7-0.4-0.9c-0.2-0.2-0.5-0.3-0.9-0.3c-0.4,0-0.7,0.1-0.9,0.3c-0.2,0.2-0.4,0.5-0.4,0.9H75.1z M78.5,96.5
		c0.2-0.3,0.4-0.6,0.7-0.7c0.3-0.2,0.6-0.3,1-0.3v1.2c-0.5,0-0.9,0.1-1.2,0.4c-0.3,0.3-0.5,0.6-0.5,1.1v2.4h-1.2v-5h1.2V96.5z"/>
	<path class="st3" d="M31.8,124.6c0-7.2,5.8-13,13-13h38c7.2,0,13,5.8,13,13l0,0c0,7.2-5.8,13-13,13h-38
		C37.6,137.6,31.8,131.8,31.8,124.6L31.8,124.6z"/>
	<path class="st1" d="M47.5,121.5H49v6.6h-1.5V121.5z M55.3,121.5h1.4v6.6h-1.4l-3.2-4.2v4.2h-1.4v-6.6h1.4l3.2,4.2V121.5z
		 M57.7,121.5h1.6l1.8,5l1.8-5h1.5l-2.6,6.6h-1.5L57.7,121.5z M65.4,121.5h1.5v6.6h-1.5V121.5z M68,121.5h5.5v1.3h-2v5.3H70v-5.3h-2
		V121.5z M74.5,121.5h5v1.2H76v1.4h3.2v1.2H76v1.5h3.6v1.2h-5.1V121.5z"/>
</g>
<g>
	<path class="st0" d="M144.9,0h112.5c4.1,0,7.5,3.4,7.5,7.5v148.2c0,4.1-3.4,7.5-7.5,7.5H144.9c-4.1,0-7.5-3.4-7.5-7.5V7.5
		C137.4,3.4,140.8,0,144.9,0z"/>
	<path class="st1" d="M184.1,80.4h1.3l-2.2,6.6h-1.3l-1.5-5l-1.5,5h-1.3l-2.2-6.6h1.4l1.5,5.2l1.5-5.2h1.2l1.5,5.2L184.1,80.4z
		 M186.2,81.9h1.2v5h-1.2V81.9z M186.8,79.8c0.2,0,0.4,0.1,0.5,0.2c0.1,0.1,0.2,0.3,0.2,0.5c0,0.2-0.1,0.4-0.2,0.5
		c-0.1,0.1-0.3,0.2-0.5,0.2s-0.4-0.1-0.5-0.2c-0.1-0.1-0.2-0.3-0.2-0.5c0-0.2,0.1-0.4,0.2-0.5C186.4,79.8,186.6,79.8,186.8,79.8z
		 M189,80h1.2v7H189V80z M191.8,80h1.2v7h-1.2V80z M199.9,80.4c0.7,0,1.3,0.1,1.7,0.4c0.4,0.3,0.6,0.7,0.6,1.2
		c0,0.4-0.1,0.7-0.3,0.9c-0.2,0.3-0.5,0.4-0.8,0.5c0.4,0.1,0.8,0.3,1,0.6c0.2,0.3,0.4,0.7,0.4,1.1c0,0.6-0.2,1-0.7,1.3
		c-0.4,0.3-1,0.5-1.8,0.5h-3v-6.6H199.9z M199.8,83.1c0.3,0,0.6-0.1,0.8-0.2c0.2-0.1,0.3-0.3,0.3-0.6c0-0.3-0.1-0.4-0.3-0.6
		c-0.2-0.1-0.4-0.2-0.8-0.2h-1.6v1.6H199.8z M199.8,85.9c0.4,0,0.7-0.1,0.9-0.2c0.2-0.2,0.3-0.4,0.3-0.7c0-0.3-0.1-0.5-0.3-0.6
		c-0.2-0.2-0.5-0.2-0.9-0.2h-1.6v1.7H199.8z M204.8,82.9c0.2-0.3,0.4-0.6,0.7-0.7c0.3-0.2,0.6-0.3,1-0.3v1.2c-0.5,0-0.9,0.1-1.2,0.4
		c-0.3,0.3-0.5,0.6-0.5,1.1v2.4h-1.2v-5h1.2V82.9z M209.5,81.9c0.5,0,1,0.1,1.4,0.3c0.4,0.2,0.7,0.5,0.9,0.9
		c0.2,0.4,0.3,0.8,0.3,1.3c0,0.5-0.1,1-0.3,1.3c-0.2,0.4-0.5,0.7-0.9,0.9c-0.4,0.2-0.9,0.3-1.4,0.3c-0.5,0-1-0.1-1.4-0.3
		c-0.4-0.2-0.7-0.5-0.9-0.9c-0.2-0.4-0.3-0.8-0.3-1.3c0-0.5,0.1-0.9,0.3-1.3c0.2-0.4,0.5-0.7,0.9-0.9C208.5,82,209,81.9,209.5,81.9z
		 M209.5,82.9c-0.4,0-0.8,0.1-1,0.4c-0.3,0.3-0.4,0.6-0.4,1.1c0,0.5,0.1,0.8,0.4,1.1c0.3,0.3,0.6,0.4,1,0.4c0.4,0,0.8-0.1,1-0.4
		c0.3-0.3,0.4-0.6,0.4-1.1c0-0.5-0.1-0.8-0.4-1.1C210.3,83.1,209.9,82.9,209.5,82.9z M212.3,81.9l1.3,0l1.2,3.8l1.2-3.8h1.2l1.2,3.8
		l1.2-3.8h1.2l-1.8,5h-1.2l-1.2-3.5l-1.2,3.5h-1.2L212.3,81.9z M224.6,81.9c0.6,0,1,0.2,1.4,0.5c0.3,0.3,0.5,0.8,0.5,1.4v3.1h-1.2
		v-2.8c0-0.4-0.1-0.6-0.3-0.8c-0.2-0.2-0.5-0.3-0.8-0.3c-0.4,0-0.7,0.1-1,0.4c-0.2,0.3-0.3,0.6-0.3,1v2.5h-1.2v-5h1.2v0.9
		C223.2,82.2,223.8,81.9,224.6,81.9z"/>
	<path class="st2" d="M180.5,94h4.5l0,1.1h-3.3v1.8h3v1.1h-3v2.6h-1.3V94z M188.1,95.5c0.5,0,1,0.1,1.4,0.3c0.4,0.2,0.7,0.5,0.9,0.9
		c0.2,0.4,0.3,0.8,0.3,1.3c0,0.5-0.1,1-0.3,1.3c-0.2,0.4-0.5,0.7-0.9,0.9c-0.4,0.2-0.9,0.3-1.4,0.3c-0.5,0-1-0.1-1.4-0.3
		c-0.4-0.2-0.7-0.5-0.9-0.9c-0.2-0.4-0.3-0.8-0.3-1.3c0-0.5,0.1-0.9,0.3-1.3c0.2-0.4,0.5-0.7,0.9-0.9
		C187.2,95.6,187.6,95.5,188.1,95.5z M188.1,96.5c-0.4,0-0.8,0.1-1,0.4c-0.3,0.3-0.4,0.6-0.4,1.1s0.1,0.8,0.4,1.1
		c0.3,0.3,0.6,0.4,1,0.4c0.4,0,0.8-0.1,1-0.4s0.4-0.6,0.4-1.1s-0.1-0.8-0.4-1.1S188.6,96.5,188.1,96.5z M193.1,96.5
		c0.2-0.3,0.4-0.6,0.7-0.7c0.3-0.2,0.6-0.3,1-0.3v1.2c-0.5,0-0.9,0.1-1.2,0.4c-0.3,0.3-0.5,0.6-0.5,1.1v2.4h-1.2v-5h1.2V96.5z
		 M197.7,95.5c0.8,0,1.4,0.2,1.8,0.7c0.4,0.5,0.6,1.1,0.6,1.9c0,0.2,0,0.3,0,0.4h-3.7c0.1,0.4,0.2,0.6,0.5,0.8
		c0.3,0.2,0.6,0.3,0.9,0.3c0.3,0,0.5,0,0.7-0.1c0.2-0.1,0.4-0.2,0.6-0.4l0.7,0.7c-0.3,0.3-0.6,0.5-0.9,0.6c-0.4,0.1-0.8,0.2-1.2,0.2
		c-0.5,0-1-0.1-1.4-0.3c-0.4-0.2-0.7-0.5-0.9-0.9c-0.2-0.4-0.3-0.8-0.3-1.3s0.1-0.9,0.3-1.3c0.2-0.4,0.5-0.7,0.9-0.9
		C196.8,95.6,197.2,95.5,197.7,95.5z M199,97.6c0-0.4-0.1-0.7-0.4-0.9c-0.2-0.2-0.5-0.3-0.9-0.3c-0.4,0-0.7,0.1-0.9,0.3
		c-0.2,0.2-0.4,0.5-0.4,0.9H199z M207.8,95.5c0.6,0,1,0.2,1.3,0.5c0.3,0.3,0.5,0.8,0.5,1.4v3.1h-1.2v-2.8c0-0.4-0.1-0.6-0.3-0.8
		c-0.2-0.2-0.5-0.3-0.8-0.3c-0.4,0-0.7,0.2-0.9,0.4c-0.2,0.3-0.3,0.6-0.3,1v2.5h-1.2v-2.8c0-0.4-0.1-0.6-0.3-0.8
		c-0.2-0.2-0.5-0.3-0.8-0.3c-0.4,0-0.7,0.2-0.9,0.4c-0.2,0.3-0.3,0.6-0.3,1v2.5h-1.2v-5h1.2v0.9c0.3-0.6,0.9-1,1.8-1
		c0.4,0,0.8,0.1,1.1,0.3c0.3,0.2,0.5,0.5,0.6,0.9C206.2,95.9,206.8,95.5,207.8,95.5z M213.9,100.5v-0.6c-0.2,0.2-0.4,0.4-0.7,0.5
		c-0.3,0.1-0.6,0.2-0.9,0.2c-0.4,0-0.7-0.1-0.9-0.2c-0.3-0.1-0.5-0.3-0.6-0.6s-0.2-0.5-0.2-0.8c0-0.5,0.2-0.8,0.5-1.1
		c0.3-0.3,0.8-0.4,1.4-0.4h1.5v-0.1c0-0.3-0.1-0.5-0.3-0.7c-0.2-0.2-0.5-0.2-0.8-0.2c-0.5,0-1,0.2-1.5,0.5l-0.4-0.8
		c0.4-0.2,0.8-0.4,1.1-0.5c0.3-0.1,0.7-0.2,1.1-0.2c0.7,0,1.2,0.2,1.5,0.5c0.4,0.3,0.5,0.8,0.6,1.3l0,3.3H213.9z M212.6,99.6
		c0.3,0,0.7-0.1,0.9-0.2c0.2-0.2,0.4-0.4,0.4-0.6v-0.5h-1.3c-0.3,0-0.6,0.1-0.7,0.2c-0.2,0.1-0.2,0.3-0.2,0.5c0,0.2,0.1,0.4,0.2,0.5
		C212.1,99.6,212.3,99.6,212.6,99.6z M219.5,95.5c0.6,0,1,0.2,1.4,0.5c0.3,0.3,0.5,0.8,0.5,1.4v3.1h-1.2v-2.8c0-0.4-0.1-0.6-0.3-0.8
		c-0.2-0.2-0.5-0.3-0.8-0.3c-0.4,0-0.7,0.1-1,0.4c-0.2,0.3-0.3,0.6-0.3,1v2.5h-1.2v-5h1.2v0.9C218,95.8,218.6,95.5,219.5,95.5z"/>
	<path class="st3" d="M169.2,124.6c0-7.2,5.8-13,13-13h38c7.2,0,13,5.8,13,13l0,0c0,7.2-5.8,13-13,13h-38
		C175,137.6,169.2,131.8,169.2,124.6L169.2,124.6z"/>
	<path class="st1" d="M184.9,121.5h1.5v6.6h-1.5V121.5z M192.7,121.5h1.4v6.6h-1.4l-3.2-4.2v4.2h-1.4v-6.6h1.4l3.2,4.2V121.5z
		 M195.1,121.5h1.6l1.8,5l1.8-5h1.5l-2.6,6.6h-1.5L195.1,121.5z M202.8,121.5h1.5v6.6h-1.5V121.5z M205.4,121.5h5.5v1.3h-2v5.3h-1.5
		v-5.3h-2V121.5z M212,121.5h5v1.2h-3.5v1.4h3.2v1.2h-3.2v1.5h3.6v1.2H212V121.5z"/>
</g>
<path class="st4" d="M177.2,38.4c0-13.3,10.8-24,24-24l0,0c13.3,0,24,10.8,24,24l0,0c0,13.3-10.8,24-24,24l0,0
	C187.9,62.4,177.2,51.6,177.2,38.4L177.2,38.4z"/>
<path class="st1" d="M210.5,30.4h3.9l-5.7,16.8h-3.9l-3.5-12.1l-3.6,12.1h-3.9l-5.7-16.8h4.1l3.7,12.8l3.6-12.8h3.7l3.7,12.8
	L210.5,30.4z"/>
<g>
	<path class="st5" d="M39.7,38.4c0-13.3,10.8-24,24-24l0,0c13.3,0,24,10.8,24,24l0,0c0,13.3-10.8,24-24,24l0,0
		C50.5,62.4,39.7,51.6,39.7,38.4L39.7,38.4z"/>
	<path class="st1" d="M68.9,47.3L67.6,44h-7.8l-1.3,3.3h-3.9l7.3-16.8h3.9L73,47.3H68.9z M61.1,40.9h5.3l-2.6-6.5L61.1,40.9z"/>
</g>
</svg>
