<svg width="441" height="70" viewBox="0 0 441 70" fill="none" xmlns="http://www.w3.org/2000/svg">
<g clip-path="url(#clip0)">
<path d="M39.2701 17.4852C35.2571 16.1953 31.9607 15.4787 29.2376 15.4787C27.0877 15.4787 25.3679 15.9087 24.2213 16.6253C22.9314 17.4852 22.3581 18.6318 22.3581 20.065C22.3581 21.4982 22.9314 22.7881 23.9347 23.648C24.9379 24.6513 26.3711 25.3679 27.9477 26.0845C29.5242 26.6578 31.8174 27.5177 34.9704 28.3776C39.5567 29.6675 43.4264 30.9574 46.4361 32.3906C49.4459 33.6805 52.0257 35.687 54.1755 38.5535C56.3253 41.2766 57.3286 44.8596 57.3286 49.3026C57.3286 53.7455 56.182 57.4719 53.8888 60.625C51.5957 63.778 48.2993 66.0712 44.2863 67.6477C40.2733 69.2242 35.687 70.0842 30.6708 70.0842C25.2246 70.0842 19.635 69.0809 14.1888 67.2177C8.74261 65.3546 4.013 62.6315 0 59.3351L6.73611 45.8628C10.0325 48.8726 14.0455 51.3091 18.6318 53.1722C23.2181 55.0354 27.2311 56.0387 30.8141 56.0387C33.3939 56.0387 35.4004 55.6087 36.9769 54.6055C38.4101 53.6022 39.2701 52.3123 39.2701 50.4491C39.2701 48.8726 38.6968 47.726 37.5502 46.7228C36.4036 45.7195 35.1137 44.8596 33.3939 44.2863C31.674 43.713 29.3809 42.9964 26.3711 42.1365C21.7849 40.8466 18.0585 39.5567 15.0487 38.2668C12.039 36.9769 9.60253 34.9704 7.45271 32.3906C5.30289 29.8109 4.29964 26.2278 4.29964 21.9282C4.29964 17.7719 5.44621 14.1888 7.59603 11.1791C9.74586 8.026 12.8989 5.73285 16.9119 4.013C20.9249 2.29314 25.5112 1.43321 30.8141 1.43321C35.5437 1.43321 40.2733 2.14982 45.0029 3.43971C49.7325 4.7296 53.7455 6.59278 57.3286 8.88593L50.7358 22.6448C47.1527 20.495 43.2831 18.7751 39.2701 17.4852Z" fill="white"/>
<path d="M200.65 68.9376L191.047 50.5925H190.617H178.149V68.9376H160.807V2.5798H190.617C199.36 2.5798 206.24 4.5863 210.969 8.74262C215.699 12.8989 218.279 18.4885 218.279 25.9412C218.279 30.9574 217.275 35.2571 215.269 38.8401C213.262 42.4231 210.253 45.2896 206.526 47.2961L220.285 68.9376H200.65ZM178.149 36.6903H190.761C194.344 36.6903 197.067 35.8304 198.93 34.1105C200.793 32.3906 201.797 29.8109 201.797 26.5145C201.797 23.3614 200.793 20.7816 198.93 19.0618C197.067 17.3419 194.344 16.482 190.761 16.482H178.149V36.6903Z" fill="white"/>
<path d="M232.181 2.5798H289.079V16.9119H269.158V68.9376H251.816V16.9119H232.181V2.5798Z" fill="white"/>
<path d="M304.701 2.5798H357.014V16.3387H322.043V28.8076H353.717V42.5665L322.043 42.7098V55.1788H358.017V68.9376H304.701V2.5798V2.5798Z" fill="white"/>
<path d="M424.088 6.73612C429.391 9.45922 433.547 13.4722 436.557 18.4885C439.567 23.5047 441 29.2376 441 35.8304C441 42.2798 439.567 48.156 436.557 53.1723C433.547 58.1885 429.391 62.2015 423.945 64.9246C418.499 67.6477 412.192 69.0809 405.17 69.0809H377.222V2.5798H405.743C412.622 2.5798 418.785 4.01301 424.088 6.73612ZM415.059 52.599C417.639 51.0224 419.645 48.7293 421.078 45.8629C422.512 42.9964 423.228 39.7 423.228 35.9737C423.228 32.2473 422.512 28.8076 420.935 25.9412C419.358 23.0748 417.209 20.7816 414.486 19.2051C411.762 17.6285 408.609 16.7686 405.17 16.7686H394.277V55.0354H406.03C409.469 54.8921 412.479 54.1755 415.059 52.599Z" fill="white"/>
<path d="M126.409 14.4755H88.5726V54.7488H126.409V14.4755Z" fill="white"/>
<path d="M107.634 0.143333C100.898 0.143333 94.1622 2.14983 88.5727 5.87619C82.9832 9.60255 78.5402 15.0488 75.9604 21.3549C73.3806 27.661 72.664 34.5405 73.9539 41.2766C75.2438 48.0127 78.5402 54.0322 83.4131 58.9051C88.286 63.778 94.3055 66.9311 101.042 68.3643C107.778 69.6542 114.657 69.0809 120.963 66.3578C127.269 63.778 132.572 59.3351 136.442 53.7455C140.168 48.156 142.175 41.4199 142.175 34.6838C142.175 25.5112 138.592 16.7686 132.142 10.3192C125.406 3.72637 116.664 0.143333 107.634 0.143333Z" fill="#55BCB8"/>
<path d="M127.843 60.4816C127.843 60.4816 128.989 63.9213 132.286 66.3578C133.289 67.0744 132.716 68.651 131.426 68.651C127.413 68.651 121.823 68.0777 117.524 65.4979L127.843 60.4816Z" fill="#55BCB8"/>
<path d="M130.279 14.0455C134.158 14.0455 137.302 10.9013 137.302 7.02275C137.302 3.14419 134.158 0 130.279 0C126.401 0 123.256 3.14419 123.256 7.02275C123.256 10.9013 126.401 14.0455 130.279 14.0455Z" fill="#B61F24"/>
</g>
<defs>
<clipPath id="clip0">
<rect width="441" height="69.9408" fill="white"/>
</clipPath>
</defs>
</svg>
