<?xml version="1.0" encoding="utf-8"?>
<!-- Generator: Adobe Illustrator 27.2.0, SVG Export Plug-In . SVG Version: 6.00 Build 0)  -->
<svg version="1.2" baseProfile="tiny-ps" id="Layer_1" xmlns="http://www.w3.org/2000/svg" xmlns:xlink="http://www.w3.org/1999/xlink"
	viewBox="0 0 512 512" overflow="visible" xml:space="preserve">
	<title>GoTradie</title>
	<g>
<path fill="#0F2028" d="M241.6,389.3h36.1c2,0,3.7-1.7,3.7-3.7V207h-43.9v178.6C237.9,387.6,239.5,389.3,241.6,389.3z"/>
<path fill="#54C5C0" d="M360.7,123.1C360.7,122.7,360.7,122.7,360.7,123.1l19.2-0.3c3.7,0,7.1,3.7,7.1,8.1v32.8c0,4.4-3,8.1-7.1,8.1
	h-19.2c0,0-0.3,0-0.3-0.3v-48.4H360.7z"/>
<path fill="#54C5C0" d="M281.7,127.1c-126.5,1-152.5,46-156.6,55.5c0,0-0.3,0.3,0,0.7s0.7,0.3,0.7,0.3c7.1-3.4,38.5-16.6,107.6-16.9
	c2,0,4,1.7,4,4.1v27.4c0,0,0,0.3,0.3,0.3H281c0,0,0.3,0,0.3-0.3v-27.4c0-2,1.7-3.7,3.7-3.7h65.8c0.3,0,0.3,0,0.3-0.3v-40.2
	c0-0.3,0-0.3-0.3-0.3C347.5,126.1,295.6,127.1,281.7,127.1z"/>
<path fill="#54C5C0" d="M265-81.7"/>
<g>
</svg>
