<?xml version="1.0" encoding="UTF-8" standalone="yes"?>
<svg width="512" height="512" viewBox="0 0 512 512" style="background: #0F2028" version="1.2" baseProfile="tiny-ps" xmlns="http://www.w3.org/2000/svg">
  <title>GoTradie</title>
  <path d="M241.566 389.255H277.671C279.696 389.255 281.383 387.564 281.383 385.535V206.96H237.516V385.535C237.854 387.564 239.541 389.255 241.566 389.255Z" fill="white"/>
  <path d="M360.68 123.083C360.68 122.745 360.68 122.745 360.68 123.083L379.914 122.745C383.626 122.745 387 126.465 387 130.862V163.668C387 168.065 383.963 171.785 379.914 171.785H360.68C360.68 171.785 360.342 171.785 360.342 171.447V123.083H360.68Z" fill="#54C5C0"/>
  <path d="M281.72 127.142C155.182 128.157 129.199 173.139 125.15 182.609C125.15 182.609 124.813 182.947 125.15 183.285C125.487 183.623 125.825 183.623 125.825 183.623C132.911 180.241 164.292 167.051 233.467 166.713C235.491 166.713 237.516 168.404 237.516 170.771V198.166C237.516 198.166 237.516 198.504 237.853 198.504H281.045C281.045 198.504 281.382 198.505 281.382 198.166V170.771C281.382 168.742 283.07 167.051 285.094 167.051H350.894C351.232 167.051 351.232 167.051 351.232 166.713V126.466C351.232 126.127 351.232 126.127 350.894 126.127C347.52 126.127 295.555 127.142 281.72 127.142Z" fill="#54C5C0"/>
</svg>