<svg width="175" height="20" viewBox="0 0 175 20" fill="none" xmlns="http://www.w3.org/2000/svg">
<path d="M55.4806 19.7767H58.1296C58.2781 19.7767 58.4019 19.6526 58.4019 19.5037V6.40198H55.1835V19.5037C55.2082 19.6526 55.332 19.7767 55.4806 19.7767Z" fill="white"/>
<path d="M64.2198 0.248111C64.2198 0.223297 64.2198 0.223297 64.2198 0.248111L65.6309 0.223297C65.9032 0.223297 66.1508 0.49625 66.1508 0.818831V3.22578C66.1508 3.54836 65.928 3.82131 65.6309 3.82131H64.2198C64.2198 3.82131 64.195 3.82131 64.195 3.7965V0.248111H64.2198Z" fill="#54C5C0"/>
<path d="M58.4266 0.545908C49.1427 0.620349 47.2364 3.9206 46.9393 4.61539C46.9393 4.61539 46.9146 4.6402 46.9393 4.66501C46.9641 4.68983 46.9889 4.68983 46.9889 4.68983C47.5088 4.44169 49.8112 3.47395 54.8864 3.44913C55.0349 3.44913 55.1834 3.5732 55.1834 3.7469V5.75683C55.1834 5.75683 55.1834 5.78164 55.2082 5.78164H58.3771C58.3771 5.78164 58.4018 5.78164 58.4018 5.75683V3.7469C58.4018 3.59802 58.5256 3.47395 58.6742 3.47395H63.5018C63.5266 3.47395 63.5266 3.47395 63.5266 3.44913V0.49628C63.5266 0.471466 63.5266 0.471466 63.5018 0.471466C63.2542 0.471466 59.4416 0.545908 58.4266 0.545908Z" fill="#54C5C0"/>
<path fill-rule="evenodd" clip-rule="evenodd" d="M84.5205 9.47888C85.1642 8.90816 85.5108 7.99005 85.5108 6.72454C85.5108 5.45903 85.1642 4.59054 84.4957 4.11908C83.8273 3.64761 82.6389 3.42429 80.906 3.42429H77.1181C76.9696 3.42429 76.8458 3.54836 76.8458 3.69724V10.0496C76.8458 10.1985 76.9696 10.3226 77.1181 10.3226H80.8317C82.639 10.3474 83.8768 10.0496 84.5205 9.47888ZM88.7787 6.74935C88.7787 9.80146 87.5408 11.7618 85.0404 12.6551C84.8671 12.7295 84.7928 12.928 84.8918 13.0769L89.3233 19.33C89.4471 19.5285 89.3233 19.7766 89.1005 19.7766H85.7088C85.6098 19.7766 85.5355 19.727 85.486 19.6526L81.1288 13.3995C81.0793 13.325 80.9802 13.2754 80.906 13.2754H77.1181C76.9696 13.2754 76.8458 13.3995 76.8458 13.5484V19.4789C76.8458 19.6278 76.722 19.7518 76.5735 19.7518H73.9245C73.7759 19.7518 73.6522 19.6278 73.6522 19.4789V0.744388C73.6522 0.595505 73.7759 0.471436 73.9245 0.471436H80.7079C83.6045 0.471436 85.6841 0.967713 86.9219 1.96027C88.1598 2.95282 88.7787 4.54091 88.7787 6.74935Z" fill="white"/>
<path fill-rule="evenodd" clip-rule="evenodd" d="M106.53 5.01238L109.55 11.9851C109.624 12.1836 109.5 12.3821 109.302 12.3821H103.262C103.064 12.3821 102.915 12.1836 103.014 11.9851L106.034 5.01238C106.133 4.78905 106.455 4.78905 106.53 5.01238ZM104.499 0.645133L96.3792 19.4044C96.3049 19.6029 96.4287 19.8015 96.6267 19.8015H99.4491C99.5481 19.8015 99.6471 19.727 99.6966 19.6278L101.454 15.5831C101.504 15.4838 101.603 15.4094 101.702 15.4094H110.837C110.936 15.4094 111.035 15.4838 111.085 15.5831L112.843 19.6278C112.892 19.727 112.991 19.8015 113.09 19.8015H115.913C116.111 19.8015 116.259 19.6029 116.16 19.4044L108.065 0.645133C108.015 0.545877 107.916 0.471436 107.817 0.471436H104.747C104.648 0.471436 104.549 0.545877 104.499 0.645133Z" fill="white"/>
<path fill-rule="evenodd" clip-rule="evenodd" d="M137.228 10.124C137.228 5.70717 134.728 3.49873 129.752 3.49873H126.83C126.682 3.49873 126.558 3.6228 126.558 3.77168V16.4516C126.558 16.6005 126.682 16.7245 126.83 16.7245H130.123C132.425 16.7245 134.183 16.1786 135.396 15.062C136.609 13.9206 137.228 12.2828 137.228 10.124ZM137.723 3.00245C139.555 4.6898 140.471 7.0223 140.471 10.0248C140.471 13.0273 139.58 15.4094 137.798 17.1464C136.015 18.9082 133.317 19.7766 129.653 19.7766H123.637C123.488 19.7766 123.364 19.6526 123.364 19.5037V0.744388C123.364 0.595505 123.488 0.471436 123.637 0.471436H129.875C133.267 0.471436 135.891 1.31511 137.723 3.00245Z" fill="white"/>
<path fill-rule="evenodd" clip-rule="evenodd" d="M148.666 19.7766H151.315C151.464 19.7766 151.587 19.6526 151.587 19.5037V0.744388C151.587 0.595505 151.464 0.471436 151.315 0.471436H148.666C148.518 0.471436 148.394 0.595505 148.394 0.744388V19.5037C148.394 19.6526 148.518 19.7766 148.666 19.7766Z" fill="white"/>
<path fill-rule="evenodd" clip-rule="evenodd" d="M161.218 0.744388V19.5037C161.218 19.6526 161.342 19.7766 161.49 19.7766H174.611C174.76 19.7766 174.884 19.6526 174.884 19.5037V16.9975C174.884 16.8486 174.76 16.7245 174.611 16.7245H164.709C164.56 16.7245 164.436 16.6005 164.436 16.4516V11.8362C164.436 11.6873 164.56 11.5632 164.709 11.5632H173.25C173.398 11.5632 173.522 11.4392 173.522 11.2903V8.93297C173.522 8.78409 173.398 8.66002 173.25 8.66002H164.709C164.56 8.66002 164.436 8.53595 164.436 8.38707V3.82131C164.436 3.67243 164.56 3.54836 164.709 3.54836H174.29C174.438 3.54836 174.562 3.42429 174.562 3.27541V0.744388C174.562 0.595505 174.438 0.471436 174.29 0.471436H161.515C161.342 0.471436 161.218 0.595505 161.218 0.744388Z" fill="white"/>
<path fill-rule="evenodd" clip-rule="evenodd" d="M38.0516 5.03722C36.7643 3.67246 35.155 3.00248 33.2735 3.00248C31.392 3.00248 29.8075 3.67246 28.4954 5.03722C27.208 6.40199 26.5644 8.06452 26.5644 10C26.5644 11.9355 27.208 13.598 28.4954 14.9628C29.7828 16.3275 31.3672 16.9975 33.2735 16.9975C35.155 16.9975 36.7395 16.3275 38.0516 14.9628C39.339 13.598 39.9827 11.9355 39.9827 10C39.9827 8.0397 39.339 6.40199 38.0516 5.03722ZM40.4035 17.1216C38.4725 19.0323 36.1206 19.9752 33.2735 19.9752C30.4512 19.9752 28.0745 19.0323 26.1435 17.1216C24.2124 15.2109 23.2717 12.8288 23.2717 10C23.2717 7.1464 24.2372 4.78908 26.1435 2.87841C28.0745 0.942928 30.4512 0 33.2735 0C36.0958 0 38.4725 0.942928 40.4035 2.8536C42.3346 4.76427 43.2754 7.1464 43.2754 9.97519C43.2754 12.8288 42.3098 15.2109 40.4035 17.1216Z" fill="white"/>
<path fill-rule="evenodd" clip-rule="evenodd" d="M14.6562 10.397H17.3052C17.4537 10.397 17.5775 10.5211 17.5775 10.67V16.8734C17.5775 16.9479 17.5527 17.0223 17.5032 17.072C15.7207 19.0323 13.1707 20 9.90282 20C7.10527 20 4.75335 19.0571 2.84706 17.1712C0.940767 15.3102 0 12.928 0 10.0496C0 7.17122 0.965524 4.78908 2.89657 2.8536C4.82762 0.967742 7.15478 0 9.87806 0C12.5271 0 14.7304 0.744417 16.4882 2.25806C16.612 2.35732 16.612 2.53102 16.5377 2.65509L15.1513 4.68983C15.0523 4.8139 14.879 4.83871 14.7552 4.73945C14.0868 4.19355 13.4183 3.82134 12.7499 3.59801C12.0072 3.34988 11.1159 3.22581 10.1256 3.22581C8.19458 3.22581 6.58537 3.84615 5.29801 5.11166C3.98588 6.37717 3.3422 8.0397 3.3422 10.0744C3.3422 12.134 3.98588 13.7717 5.24849 15.0124C6.5111 16.2531 8.04604 16.8734 9.8533 16.8734C11.5863 16.8734 13.047 16.5012 14.2353 15.7816C14.3096 15.732 14.3591 15.6328 14.3591 15.5335V10.67C14.3838 10.5211 14.5076 10.397 14.6562 10.397Z" fill="white"/>
</svg>
