<svg width="20" height="20" viewBox="0 0 20 20" fill="none" xmlns="http://www.w3.org/2000/svg">
<path d="M1.875 10.625C1.54348 10.625 1.22554 10.4933 0.991117 10.2589C0.756696 10.0245 0.625 9.70652 0.625 9.375V3.125C0.625 2.46196 0.888392 1.82607 1.35723 1.35723C1.82607 0.888392 2.46196 0.625 3.125 0.625H16.875C17.538 0.625 18.1739 0.888392 18.6428 1.35723C19.1116 1.82607 19.375 2.46196 19.375 3.125V9.375C19.375 9.70652 19.2433 10.0245 19.0089 10.2589C18.7745 10.4933 18.4565 10.625 18.125 10.625" stroke="#153549" stroke-width="1.25" stroke-linecap="round" stroke-linejoin="round"/>
<path d="M0.625 8.125H19.375" stroke="#153549" stroke-width="1.25" stroke-linecap="round" stroke-linejoin="round"/>
<path d="M16.25 3.4375C16.3118 3.4375 16.3722 3.45583 16.4236 3.49017C16.475 3.5245 16.5151 3.57331 16.5387 3.63041C16.5624 3.68751 16.5686 3.75035 16.5565 3.81097C16.5444 3.87158 16.5147 3.92727 16.471 3.97097C16.4273 4.01467 16.3716 4.04444 16.311 4.0565C16.2503 4.06855 16.1875 4.06236 16.1304 4.03871C16.0733 4.01506 16.0245 3.97501 15.9902 3.92362C15.9558 3.87223 15.9375 3.81181 15.9375 3.75C15.9375 3.66712 15.9704 3.58763 16.029 3.52903C16.0876 3.47042 16.1671 3.4375 16.25 3.4375Z" stroke="#153549" stroke-width="1.25" stroke-linecap="round" stroke-linejoin="round"/>
<path d="M4.375 11.875V14.375C4.375 15.038 4.11161 15.6739 3.64277 16.1428C3.17393 16.6116 2.53804 16.875 1.875 16.875" stroke="#153549" stroke-width="1.25" stroke-linecap="round" stroke-linejoin="round"/>
<path d="M8.125 11.875V18.125C8.125 18.4565 7.9933 18.7745 7.75888 19.0089C7.52446 19.2433 7.20652 19.375 6.875 19.375" stroke="#153549" stroke-width="1.25" stroke-linecap="round" stroke-linejoin="round"/>
<path d="M15.625 11.875V14.375C15.625 15.038 15.8884 15.6739 16.3572 16.1428C16.8261 16.6116 17.462 16.875 18.125 16.875" stroke="#153549" stroke-width="1.25" stroke-linecap="round" stroke-linejoin="round"/>
<path d="M11.875 11.875V18.125C11.875 18.4565 12.0067 18.7745 12.2411 19.0089C12.4755 19.2433 12.7935 19.375 13.125 19.375" stroke="#153549" stroke-width="1.25" stroke-linecap="round" stroke-linejoin="round"/>
</svg>
