<svg width="20" height="20" viewBox="0 0 20 20" fill="none" xmlns="http://www.w3.org/2000/svg">
<path d="M0.656738 17.1425H19.3751" stroke="#0F2028" stroke-width="1.25" stroke-linecap="round" stroke-linejoin="round"/>
<path d="M8.14395 17.1425H1.90479V9.03166L8.14395 7.78416V17.1425Z" stroke="#0F2028" stroke-width="1.25" stroke-linecap="round" stroke-linejoin="round"/>
<path d="M18.1273 17.1425H8.14404V3.4175L18.1273 7.78417V17.1425Z" stroke="#0F2028" stroke-width="1.25" stroke-linecap="round" stroke-linejoin="round"/>
<path d="M15.6318 17.1425H10.6401V13.3992C10.6401 13.0677 10.7719 12.7497 11.0063 12.5152C11.2407 12.2808 11.5586 12.1492 11.8901 12.1492H14.3901C14.7217 12.1492 15.0396 12.2808 15.2741 12.5152C15.5085 12.7497 15.6401 13.0677 15.6401 13.3992L15.6318 17.1425Z" stroke="#0F2028" stroke-width="1.25" stroke-linecap="round" stroke-linejoin="round"/>
<path d="M0.625 9.28833L8.14417 7.78416" stroke="#0F2028" stroke-width="1.25" stroke-linecap="round" stroke-linejoin="round"/>
<path d="M6.86523 2.8575L19.3719 8.32833" stroke="#0F2028" stroke-width="1.25" stroke-linecap="round" stroke-linejoin="round"/>
<path d="M15.6318 6.685V3.4175H18.1277V7.78417" stroke="#0F2028" stroke-width="1.25" stroke-linecap="round" stroke-linejoin="round"/>
<path d="M10.6392 8.0975C10.4666 8.0975 10.3267 7.95759 10.3267 7.785C10.3267 7.61242 10.4666 7.4725 10.6392 7.4725" stroke="#0F2028" stroke-width="1.25"/>
<path d="M10.6392 8.0975C10.8117 8.0975 10.9517 7.95759 10.9517 7.785C10.9517 7.61242 10.8117 7.4725 10.6392 7.4725" stroke="#0F2028" stroke-width="1.25"/>
</svg>
