<svg width="20" height="21" viewBox="0 0 20 21" fill="none" xmlns="http://www.w3.org/2000/svg">
<path d="M3.125 13.37V16.495C3.125 16.9923 3.32254 17.4692 3.67417 17.8208C4.02581 18.1724 4.50272 18.37 5 18.37C5.49728 18.37 5.97419 18.1724 6.32582 17.8208C6.67746 17.4692 6.875 16.9923 6.875 16.495V15.87H13.125C13.5131 15.87 13.8959 15.7796 14.243 15.6061C14.5902 15.4325 14.8921 15.1805 15.125 14.87L16.25 13.37" stroke="#153549" stroke-width="1.25" stroke-linecap="round" stroke-linejoin="round"/>
<path d="M13.1576 6.76166C12.5516 5.90796 11.7503 5.21145 10.8206 4.7302C9.89081 4.24894 8.8595 3.99687 7.81258 3.995C6.15566 3.99995 4.56154 4.62952 3.34836 5.75806C2.13518 6.88659 1.39215 8.43109 1.26758 10.0833" stroke="#153549" stroke-width="1.25" stroke-linecap="round" stroke-linejoin="round"/>
<path d="M5.84668 4.29834L8.39335 2.38834C8.62448 2.21202 8.90947 2.12105 9.20001 2.13084C11.246 2.1675 13.196 3.00519 14.6311 4.46396C16.0662 5.92273 16.8719 7.88618 16.875 9.93251V13.37" stroke="#153549" stroke-width="1.25" stroke-linecap="round" stroke-linejoin="round"/>
<path d="M10 9.62H2.5C2.00272 9.62 1.52581 9.81754 1.17417 10.1692C0.822544 10.5208 0.625 10.9977 0.625 11.495C0.625 11.9923 0.822544 12.4692 1.17417 12.8208C1.52581 13.1725 2.00272 13.37 2.5 13.37H19.375" stroke="#153549" stroke-width="1.25" stroke-linecap="round" stroke-linejoin="round"/>
</svg>
