<svg width="20" height="20" viewBox="0 0 20 20" fill="none" xmlns="http://www.w3.org/2000/svg">
<path d="M1.875 1.875C1.54348 1.875 1.22554 2.0067 0.991117 2.24112C0.756696 2.47554 0.625 2.79348 0.625 3.125V18.125C0.625 18.4565 0.756696 18.7745 0.991117 19.0089C1.22554 19.2433 1.54348 19.375 1.875 19.375H18.125C18.4565 19.375 18.7745 19.2433 19.0089 19.0089C19.2433 18.7745 19.375 18.4565 19.375 18.125V15.625C19.375 15.2935 19.2433 14.9755 19.0089 14.7411C18.7745 14.5067 18.4565 14.375 18.125 14.375H12.3925C12.0612 14.3749 11.7435 14.2433 11.5092 14.0092L8.49083 10.9908C8.25665 10.7565 8.12507 10.4388 8.125 10.1075V8.125C8.125 7.79348 7.9933 7.47554 7.75888 7.24112C7.52446 7.0067 7.20652 6.875 6.875 6.875H5.625C5.29348 6.875 4.97554 6.7433 4.74112 6.50888C4.5067 6.27446 4.375 5.95652 4.375 5.625V3.125C4.375 2.79348 4.2433 2.47554 4.00888 2.24112C3.77446 2.0067 3.45652 1.875 3.125 1.875H1.875Z" stroke="#153549" stroke-width="1.25" stroke-linecap="round" stroke-linejoin="round"/>
<path d="M4.375 3.125H19.375" stroke="#153549" stroke-width="1.25" stroke-linecap="round" stroke-linejoin="round"/>
<path d="M10.625 6.875H19.375" stroke="#153549" stroke-width="1.25" stroke-linecap="round" stroke-linejoin="round"/>
<path d="M11.25 10.625H19.375" stroke="#153549" stroke-width="1.25" stroke-linecap="round" stroke-linejoin="round"/>
<path d="M8.125 0.625V4.375" stroke="#153549" stroke-width="1.25" stroke-linecap="round" stroke-linejoin="round"/>
<path d="M11.875 0.625V10.625" stroke="#153549" stroke-width="1.25" stroke-linecap="round" stroke-linejoin="round"/>
<path d="M15.625 0.625V14.375" stroke="#153549" stroke-width="1.25" stroke-linecap="round" stroke-linejoin="round"/>
</svg>
