<svg width="20" height="20" viewBox="0 0 20 20" fill="none" xmlns="http://www.w3.org/2000/svg">
<path d="M9.375 14.375V16.875C9.375 17.2065 9.5067 17.5245 9.74112 17.7589C9.97554 17.9933 10.2935 18.125 10.625 18.125H15.625C15.9565 18.125 16.2745 17.9933 16.5089 17.7589C16.7433 17.5245 16.875 17.2065 16.875 16.875V14.375" stroke="#0F2028" stroke-width="1.25" stroke-linecap="round" stroke-linejoin="round"/>
<path d="M19.375 13.125L13.9608 8.25C13.7313 8.04363 13.4336 7.92945 13.125 7.92945C12.8164 7.92945 12.5187 8.04363 12.2892 8.25L6.875 13.125" stroke="#0F2028" stroke-width="1.25" stroke-linecap="round" stroke-linejoin="round"/>
<path d="M18.125 12V8.75" stroke="#0F2028" stroke-width="1.25" stroke-linecap="round" stroke-linejoin="round"/>
<path d="M19.375 1.25C19.375 1.08424 19.3092 0.925269 19.1919 0.808058C19.0747 0.690848 18.9158 0.625 18.75 0.625H1.25C1.08424 0.625 0.925269 0.690848 0.808058 0.808058C0.690848 0.925269 0.625 1.08424 0.625 1.25V18.75C0.625 18.9158 0.690848 19.0747 0.808058 19.1919C0.925269 19.3092 1.08424 19.375 1.25 19.375H3.75C3.91576 19.375 4.07473 19.3092 4.19194 19.1919C4.30915 19.0747 4.375 18.9158 4.375 18.75V4.375H18.75C18.9158 4.375 19.0747 4.30915 19.1919 4.19194C19.3092 4.07473 19.375 3.91576 19.375 3.75V1.25Z" stroke="#0F2028" stroke-width="1.25" stroke-linecap="round" stroke-linejoin="round"/>
<path d="M3.125 9.375H4.375" stroke="#0F2028" stroke-width="1.25" stroke-linecap="round" stroke-linejoin="round"/>
<path d="M3.125 14.375H4.375" stroke="#0F2028" stroke-width="1.25" stroke-linecap="round" stroke-linejoin="round"/>
<path d="M9.375 4.375V3.125" stroke="#0F2028" stroke-width="1.25" stroke-linecap="round" stroke-linejoin="round"/>
<path d="M14.375 4.375V3.125" stroke="#0F2028" stroke-width="1.25" stroke-linecap="round" stroke-linejoin="round"/>
<path d="M0.625 4.375H4.375V0.625" stroke="#0F2028" stroke-width="1.25" stroke-linecap="round" stroke-linejoin="round"/>
</svg>
