<svg width="20" height="20" viewBox="0 0 20 20" fill="none" xmlns="http://www.w3.org/2000/svg">
<path d="M3.32335 16.9092L2.90918 19.375" stroke="#0F2028" stroke-width="1.25" stroke-linecap="round" stroke-linejoin="round"/>
<path d="M9.99561 16.9092L10.4089 19.375" stroke="#0F2028" stroke-width="1.25" stroke-linecap="round" stroke-linejoin="round"/>
<path d="M4.20415 5.35833L2.09082 16.7025L4.55582 17.1167L6.38249 7.485" stroke="#0F2028" stroke-width="1.25" stroke-linecap="round" stroke-linejoin="round"/>
<path d="M6.93652 7.48417L8.76236 17.1167L11.2282 16.7025L9.12486 5.41667" stroke="#0F2028" stroke-width="1.25" stroke-linecap="round" stroke-linejoin="round"/>
<path d="M9.1593 5C9.15942 5.36363 9.08021 5.72291 8.92719 6.05279C8.77418 6.38266 8.55104 6.67518 8.27335 6.90995C7.99566 7.14472 7.6701 7.31608 7.31937 7.41209C6.96864 7.5081 6.60118 7.52644 6.24264 7.46583C5.64545 7.3462 5.10941 7.0202 4.72849 6.54496C4.34757 6.06972 4.14607 5.47558 4.1593 4.86667V3.75C4.1593 3.58424 4.22515 3.42527 4.34236 3.30806C4.45957 3.19085 4.61854 3.125 4.7843 3.125H8.5343C8.70006 3.125 8.85904 3.19085 8.97625 3.30806C9.09346 3.42527 9.1593 3.58424 9.1593 3.75V5Z" stroke="#0F2028" stroke-width="1.25" stroke-linecap="round" stroke-linejoin="round"/>
<path d="M6.65918 3.125V0.625" stroke="#0F2028" stroke-width="1.25" stroke-linecap="round" stroke-linejoin="round"/>
<path d="M12.9092 19.375H16.6592C16.9907 19.375 17.3086 19.2433 17.5431 19.0089C17.7775 18.7745 17.9092 18.4565 17.9092 18.125V1.875C17.9092 1.54348 17.7775 1.22554 17.5431 0.991117C17.3086 0.756696 16.9907 0.625 16.6592 0.625H12.9092C12.5777 0.625 12.2597 0.756696 12.0253 0.991117C11.7909 1.22554 11.6592 1.54348 11.6592 1.875V6.25" stroke="#0F2028" stroke-width="1.25" stroke-linecap="round" stroke-linejoin="round"/>
<path d="M15.4092 4.375H17.9092" stroke="#0F2028" stroke-width="1.25" stroke-linecap="round" stroke-linejoin="round"/>
<path d="M15.4092 8.125H17.9092" stroke="#0F2028" stroke-width="1.25" stroke-linecap="round" stroke-linejoin="round"/>
<path d="M15.4092 11.875H17.9092" stroke="#0F2028" stroke-width="1.25" stroke-linecap="round" stroke-linejoin="round"/>
<path d="M15.4092 15.625H17.9092" stroke="#0F2028" stroke-width="1.25" stroke-linecap="round" stroke-linejoin="round"/>
</svg>
