<svg width="20" height="20" viewBox="0 0 20 20" fill="none" xmlns="http://www.w3.org/2000/svg">
<path d="M6.875 14.375H19.375V19.375H6.875V14.375Z" stroke="#153549" stroke-width="1.25" stroke-linecap="round" stroke-linejoin="round"/>
<path d="M10 16.5625C10.0829 16.5625 10.1624 16.5954 10.221 16.654C10.2796 16.7126 10.3125 16.7921 10.3125 16.875" stroke="#153549" stroke-width="1.25" stroke-linecap="round" stroke-linejoin="round"/>
<path d="M9.6875 16.875C9.6875 16.7921 9.72042 16.7126 9.77903 16.654C9.83763 16.5954 9.91712 16.5625 10 16.5625" stroke="#153549" stroke-width="1.25" stroke-linecap="round" stroke-linejoin="round"/>
<path d="M10 17.1875C9.91712 17.1875 9.83763 17.1546 9.77903 17.096C9.72042 17.0374 9.6875 16.9579 9.6875 16.875" stroke="#153549" stroke-width="1.25" stroke-linecap="round" stroke-linejoin="round"/>
<path d="M10.3125 16.875C10.3125 16.9579 10.2796 17.0374 10.221 17.096C10.1624 17.1546 10.0829 17.1875 10 17.1875" stroke="#153549" stroke-width="1.25" stroke-linecap="round" stroke-linejoin="round"/>
<path d="M13.125 16.5625C13.2079 16.5625 13.2874 16.5954 13.346 16.654C13.4046 16.7126 13.4375 16.7921 13.4375 16.875" stroke="#153549" stroke-width="1.25" stroke-linecap="round" stroke-linejoin="round"/>
<path d="M12.8125 16.875C12.8125 16.7921 12.8454 16.7126 12.904 16.654C12.9626 16.5954 13.0421 16.5625 13.125 16.5625" stroke="#153549" stroke-width="1.25" stroke-linecap="round" stroke-linejoin="round"/>
<path d="M13.125 17.1875C13.0421 17.1875 12.9626 17.1546 12.904 17.096C12.8454 17.0374 12.8125 16.9579 12.8125 16.875" stroke="#153549" stroke-width="1.25" stroke-linecap="round" stroke-linejoin="round"/>
<path d="M13.4375 16.875C13.4375 16.9579 13.4046 17.0374 13.346 17.096C13.2874 17.1546 13.2079 17.1875 13.125 17.1875" stroke="#153549" stroke-width="1.25" stroke-linecap="round" stroke-linejoin="round"/>
<path d="M16.25 16.5625C16.3329 16.5625 16.4124 16.5954 16.471 16.654C16.5296 16.7126 16.5625 16.7921 16.5625 16.875" stroke="#153549" stroke-width="1.25" stroke-linecap="round" stroke-linejoin="round"/>
<path d="M15.9375 16.875C15.9375 16.7921 15.9704 16.7126 16.029 16.654C16.0876 16.5954 16.1671 16.5625 16.25 16.5625" stroke="#153549" stroke-width="1.25" stroke-linecap="round" stroke-linejoin="round"/>
<path d="M16.25 17.1875C16.1671 17.1875 16.0876 17.1546 16.029 17.096C15.9704 17.0374 15.9375 16.9579 15.9375 16.875" stroke="#153549" stroke-width="1.25" stroke-linecap="round" stroke-linejoin="round"/>
<path d="M16.5625 16.875C16.5625 16.9579 16.5296 17.0374 16.471 17.096C16.4124 17.1546 16.3329 17.1875 16.25 17.1875" stroke="#153549" stroke-width="1.25" stroke-linecap="round" stroke-linejoin="round"/>
<path d="M18.125 14.1667V10.625C18.125 10.2935 17.9933 9.97554 17.7589 9.74112C17.5245 9.5067 17.2065 9.375 16.875 9.375H15.625C15.2935 9.375 14.9755 9.2433 14.7411 9.00888C14.5067 8.77446 14.375 8.45652 14.375 8.125V6.875C14.375 6.54348 14.2433 6.22554 14.0089 5.99112C13.7745 5.7567 13.4565 5.625 13.125 5.625H9.375C9.04348 5.625 8.72554 5.7567 8.49112 5.99112C8.2567 6.22554 8.125 6.54348 8.125 6.875V14.1667" stroke="#153549" stroke-width="1.25" stroke-linecap="round" stroke-linejoin="round"/>
<path d="M5.91643 9.23417L1.13226 3.92334C0.793675 3.54716 0.612352 3.0554 0.625687 2.54946C0.639021 2.04352 0.845996 1.56199 1.20393 1.20417V1.20417C1.56175 0.84624 2.04328 0.639265 2.54922 0.625931C3.05515 0.612596 3.54692 0.793919 3.9231 1.13251L8.98393 5.68751" stroke="#153549" stroke-width="1.25" stroke-linecap="round" stroke-linejoin="round"/>
<path d="M5 13.125C5.16576 13.125 5.32473 13.1908 5.44194 13.3081C5.55915 13.4253 5.625 13.5842 5.625 13.75C5.62302 14.4124 5.35899 15.0472 4.89058 15.5156C4.42217 15.984 3.78743 16.248 3.125 16.25V16.25C2.46257 16.248 1.82783 15.984 1.35942 15.5156C0.891006 15.0472 0.626978 14.4124 0.625 13.75V13.125H5Z" stroke="#153549" stroke-width="1.25" stroke-linecap="round" stroke-linejoin="round"/>
<path d="M0.625 2.66168V13.125" stroke="#153549" stroke-width="1.25" stroke-linecap="round" stroke-linejoin="round"/>
<path d="M3.75417 6.83585L3.125 13.125" stroke="#153549" stroke-width="1.25" stroke-linecap="round" stroke-linejoin="round"/>
<path d="M8.125 10.625H11.3575C11.6888 10.6249 12.0065 10.4933 12.2408 10.2592L14.375 8.125" stroke="#153549" stroke-width="1.25" stroke-linecap="round" stroke-linejoin="round"/>
</svg>
