<svg width="20" height="20" viewBox="0 0 20 20" fill="none" xmlns="http://www.w3.org/2000/svg">
<path d="M9.27508 18.9417C5.93591 15.1858 4.82175 11.345 5.61758 8.49999L1.35925 4.89499C0.890368 4.42611 0.626953 3.79017 0.626953 3.12707C0.626953 2.46398 0.890368 1.82804 1.35925 1.35916C1.82813 0.890276 2.46407 0.626862 3.12716 0.626862C3.79026 0.626862 4.4262 0.890276 4.89508 1.35916L8.50008 5.61749C11.3476 4.82166 15.1876 5.93582 18.9442 9.27499C19.0734 9.38824 19.178 9.52667 19.2518 9.68179C19.3255 9.83692 19.3668 10.0055 19.3731 10.1771C19.3795 10.3488 19.3507 10.5199 19.2885 10.68C19.2264 10.8401 19.1322 10.9859 19.0117 11.1083L11.1126 19.0075C10.9902 19.1287 10.8443 19.2236 10.6838 19.2863C10.5233 19.3489 10.3517 19.3781 10.1796 19.3719C10.0074 19.3657 9.83837 19.3244 9.68281 19.2504C9.52725 19.1764 9.38849 19.0713 9.27508 18.9417V18.9417Z" stroke="#153549" stroke-width="1.25" stroke-linecap="round" stroke-linejoin="round"/>
<path d="M8.49768 5.61749L5.61768 8.49749" stroke="#153549" stroke-width="1.25" stroke-linecap="round" stroke-linejoin="round"/>
<path d="M6.92008 3.75333L3.75342 6.92083" stroke="#153549" stroke-width="1.25" stroke-linecap="round" stroke-linejoin="round"/>
</svg>
