<svg width="20" height="20" viewBox="0 0 20 20" fill="none" xmlns="http://www.w3.org/2000/svg">
<path d="M0.625 13.125H3.125V19.375H0.625V13.125Z" stroke="#153549" stroke-width="1.25" stroke-linecap="round" stroke-linejoin="round"/>
<path d="M6.875 8.125H13.125V11.875H6.875V8.125Z" stroke="#153549" stroke-width="1.25" stroke-linecap="round" stroke-linejoin="round"/>
<path d="M16.875 0.625H19.375V6.875H16.875V0.625Z" stroke="#153549" stroke-width="1.25" stroke-linecap="round" stroke-linejoin="round"/>
<path d="M7.91167 11.875C7.65395 12.6069 7.17519 13.2405 6.5416 13.6884C5.90801 14.1363 5.1509 14.3762 4.375 14.375H3.125V18.125H4.375C6.14657 18.1187 7.85937 17.4889 9.21306 16.3461C10.5668 15.2033 11.4749 13.6204 11.7783 11.875H7.91167Z" stroke="#153549" stroke-width="1.25" stroke-linecap="round" stroke-linejoin="round"/>
<path d="M15.625 1.875C13.8535 1.88148 12.1408 2.51132 10.7871 3.6541C9.43346 4.79688 8.52524 6.37967 8.22168 8.125H12.0883C12.3461 7.39314 12.8248 6.75946 13.4584 6.31158C14.092 5.86371 14.8491 5.62379 15.625 5.625H16.875V1.875H15.625Z" stroke="#153549" stroke-width="1.25" stroke-linecap="round" stroke-linejoin="round"/>
</svg>
