<svg width="20" height="20" viewBox="0 0 20 20" fill="none" xmlns="http://www.w3.org/2000/svg">
<g clip-path="url(#clip0)">
<path d="M5.09155 4.61833C5.24741 4.67506 5.413 4.7002 5.57867 4.69229C5.74434 4.68438 5.90678 4.64358 6.05653 4.57227C6.20628 4.50095 6.34034 4.40055 6.45089 4.27691C6.56145 4.15327 6.64629 4.00886 6.70048 3.8521C6.75467 3.69534 6.77712 3.52936 6.76652 3.36384C6.75592 3.19832 6.71249 3.03656 6.63875 2.88799C6.56501 2.73942 6.46244 2.60702 6.33702 2.49848C6.2116 2.38995 6.06583 2.30746 5.90822 2.25583L2.36405 1.03083C2.20819 0.974101 2.0426 0.948958 1.87693 0.956866C1.71126 0.964774 1.54881 1.00557 1.39907 1.07689C1.24932 1.1482 1.11526 1.24861 1.00471 1.37225C0.89415 1.49589 0.809306 1.6403 0.755118 1.79706C0.700929 1.95382 0.67848 2.11979 0.689078 2.28532C0.699676 2.45084 0.743109 2.6126 0.816847 2.76116C0.890585 2.90973 0.993153 3.04214 1.11857 3.15067C1.244 3.25921 1.38976 3.34169 1.54738 3.39333L5.09155 4.61833Z" stroke="#153549" stroke-width="1.25" stroke-linecap="round" stroke-linejoin="round"/>
<path d="M6.68164 3.845L11.4075 5.47833C11.5627 5.53193 11.7058 5.61558 11.8286 5.7245C11.9515 5.83342 12.0517 5.96548 12.1235 6.11313C12.1953 6.26078 12.2374 6.42114 12.2472 6.58503C12.257 6.74893 12.2345 6.91316 12.1808 7.06833L10.5475 11.7942C10.4394 12.1075 10.4601 12.4509 10.6051 12.7489C10.7501 13.0469 11.0076 13.2751 11.3208 13.3833L14.865 14.6083" stroke="#153549" stroke-width="1.25" stroke-linecap="round" stroke-linejoin="round"/>
<path d="M4.18848 14.8858L6.63803 7.79707L19.634 12.2879L17.1844 19.3766L4.18848 14.8858Z" stroke="#153549" stroke-width="1.25" stroke-linecap="round" stroke-linejoin="round"/>
</g>
<defs>
<clipPath id="clip0">
<rect width="20" height="20" fill="white"/>
</clipPath>
</defs>
</svg>
