<svg width="20" height="20" viewBox="0 0 20 20" fill="none" xmlns="http://www.w3.org/2000/svg">
<path d="M18.7775 19.375C18.8566 19.3751 18.9349 19.3587 19.0073 19.3267C19.0797 19.2948 19.1446 19.248 19.1978 19.1895C19.251 19.1309 19.2914 19.0618 19.3163 18.9867C19.3412 18.9116 19.3501 18.8321 19.3425 18.7533L17.6366 1.75C17.6056 1.44174 17.4613 1.15597 17.2316 0.94811C17.0018 0.740246 16.7031 0.625099 16.3933 0.625H3.60663C3.29682 0.625099 2.99808 0.740246 2.76835 0.94811C2.53863 1.15597 2.39428 1.44174 2.36329 1.75L0.657461 18.75C0.649779 18.8288 0.658682 18.9083 0.683594 18.9834C0.708506 19.0585 0.748875 19.1276 0.802102 19.1861C0.855328 19.2447 0.920232 19.2915 0.992632 19.3234C1.06503 19.3554 1.14332 19.3718 1.22246 19.3717" stroke="#0F2028" stroke-width="1.25" stroke-linecap="round" stroke-linejoin="round"/>
<path d="M1.22266 19.375C1.22425 18.7544 1.45587 18.1564 1.87275 17.6966C2.28962 17.2368 2.86215 16.9479 3.47965 16.8857C4.09716 16.8235 4.71579 16.9925 5.21597 17.3599C5.71614 17.7273 6.06235 18.2672 6.18766 18.875C6.21685 19.0164 6.294 19.1435 6.40607 19.2346C6.51813 19.3257 6.65823 19.3753 6.80266 19.375H6.92849C7.07277 19.3751 7.21267 19.3254 7.32457 19.2343C7.43646 19.1432 7.51349 19.0163 7.54266 18.875C7.65927 18.3092 7.96751 17.8009 8.41537 17.4359C8.86322 17.071 9.42326 16.8717 10.001 16.8717C10.5787 16.8717 11.1388 17.071 11.5866 17.4359C12.0345 17.8009 12.3427 18.3092 12.4593 18.875C12.4884 19.0165 12.5655 19.1436 12.6776 19.2348C12.7897 19.3259 12.9299 19.3754 13.0743 19.375H13.2002C13.3444 19.3751 13.4843 19.3254 13.5962 19.2343C13.7081 19.1432 13.7852 19.0163 13.8143 18.875C13.9396 18.2672 14.2858 17.7273 14.786 17.3599C15.2862 16.9925 15.9048 16.8235 16.5223 16.8857C17.1398 16.9479 17.7124 17.2368 18.1292 17.6966C18.5461 18.1564 18.7777 18.7544 18.7793 19.375" stroke="#0F2028" stroke-width="1.25" stroke-linecap="round" stroke-linejoin="round"/>
<path d="M6.86475 19.375L7.49141 0.625" stroke="#0F2028" stroke-width="1.25" stroke-linecap="round" stroke-linejoin="round"/>
<path d="M13.135 19.375L12.5083 0.625" stroke="#0F2028" stroke-width="1.25" stroke-linecap="round" stroke-linejoin="round"/>
<path d="M7.10742 12.1208C7.41747 11.6411 7.84746 11.2508 8.35481 10.9884C8.86216 10.726 9.42926 10.6007 9.99992 10.625C10.5609 10.6055 11.1181 10.7246 11.6222 10.9717C12.1262 11.2188 12.5617 11.5863 12.8899 12.0417" stroke="#0F2028" stroke-width="1.25" stroke-linecap="round" stroke-linejoin="round"/>
<path d="M12.8901 12.045C13.1886 11.5929 13.5983 11.2251 14.0799 10.977C14.5615 10.729 15.0988 10.6089 15.6401 10.6283C16.2654 10.5941 16.8872 10.7418 17.4302 11.0536C17.9733 11.3654 18.4144 11.8278 18.7001 12.385" stroke="#0F2028" stroke-width="1.25" stroke-linecap="round" stroke-linejoin="round"/>
<path d="M7.1098 12.045C6.81135 11.5929 6.40165 11.2251 5.92007 10.977C5.43848 10.729 4.90119 10.6089 4.3598 10.6283C3.73455 10.5941 3.11277 10.7418 2.56971 11.0536C2.02664 11.3654 1.58555 11.8278 1.2998 12.385" stroke="#0F2028" stroke-width="1.25" stroke-linecap="round" stroke-linejoin="round"/>
<path d="M7.29102 6.5C7.56554 6.02908 7.96222 5.64109 8.4391 5.37705C8.91599 5.11301 9.45536 4.98273 10.0002 5C10.5347 4.98571 11.064 5.10837 11.5378 5.35633C12.0115 5.60429 12.414 5.9693 12.7068 6.41667" stroke="#0F2028" stroke-width="1.25" stroke-linecap="round" stroke-linejoin="round"/>
<path d="M12.7065 6.41667C12.9722 5.97323 13.351 5.60837 13.804 5.35944C14.2571 5.11052 14.7681 4.98647 15.2849 5C15.8815 4.97488 16.4721 5.12871 16.9807 5.44174C17.4893 5.75476 17.8927 6.21267 18.139 6.75667" stroke="#0F2028" stroke-width="1.25" stroke-linecap="round" stroke-linejoin="round"/>
<path d="M7.29334 6.41667C7.02767 5.97323 6.64892 5.60837 6.19587 5.35944C5.74282 5.11052 5.23176 4.98647 4.71501 5C4.11834 4.97488 3.52779 5.12871 3.01921 5.44174C2.51062 5.75476 2.10723 6.21267 1.86084 6.75667" stroke="#0F2028" stroke-width="1.25" stroke-linecap="round" stroke-linejoin="round"/>
</svg>
