<svg width="20" height="20" viewBox="0 0 20 20" fill="none" xmlns="http://www.w3.org/2000/svg">
<g clip-path="url(#clip0_15524_514045)">
<path d="M10.0044 14.2917H5.62939C5.46363 14.2917 5.30466 14.3575 5.18745 14.4747C5.07024 14.5919 5.00439 14.7509 5.00439 14.9167V18.6667C5.00439 18.8324 5.07024 18.9914 5.18745 19.1086C5.30466 19.2258 5.46363 19.2917 5.62939 19.2917H9.37939C9.54515 19.2917 9.70413 19.2258 9.82134 19.1086C9.93855 18.9914 10.0044 18.8324 10.0044 18.6667V14.2917Z" stroke="black" stroke-width="1.25" stroke-linecap="round" stroke-linejoin="round"/>
<path d="M14.3794 14.2917H10.0044V18.6667C10.0044 18.8324 10.0702 18.9914 10.1875 19.1086C10.3047 19.2258 10.4636 19.2917 10.6294 19.2917H14.3794C14.5452 19.2917 14.7041 19.2258 14.8213 19.1086C14.9385 18.9914 15.0044 18.8324 15.0044 18.6667V14.9167C15.0044 14.7509 14.9385 14.5919 14.8213 14.4747C14.7041 14.3575 14.5452 14.2917 14.3794 14.2917Z" stroke="black" stroke-width="1.25" stroke-linecap="round" stroke-linejoin="round"/>
<path d="M11.8794 9.29167H8.12939C7.96363 9.29167 7.80466 9.35751 7.68745 9.47472C7.57024 9.59193 7.50439 9.75091 7.50439 9.91667V14.2917H12.5044V9.91667C12.5044 9.75091 12.4385 9.59193 12.3213 9.47472C12.2041 9.35751 12.0452 9.29167 11.8794 9.29167Z" stroke="black" stroke-width="1.25" stroke-linecap="round" stroke-linejoin="round"/>
<path d="M19.3794 19.2917V6.29167C19.3795 6.06505 19.318 5.84268 19.2014 5.64834C19.0849 5.454 18.9177 5.29499 18.7177 5.18833L10.5927 0.855C10.4118 0.758556 10.2099 0.708111 10.0048 0.708111C9.79976 0.708111 9.59785 0.758556 9.41689 0.855L1.29189 5.18833C1.0918 5.29488 0.924442 5.45384 0.807743 5.64819C0.691044 5.84254 0.629394 6.06497 0.629395 6.29167V19.2917" stroke="black" stroke-width="1.25" stroke-linecap="round" stroke-linejoin="round"/>
</g>
<defs>
<clipPath id="clip0_15524_514045">
<rect width="20" height="20" fill="white"/>
</clipPath>
</defs>
</svg>
