<svg width="20" height="20" viewBox="0 0 20 20" fill="none" xmlns="http://www.w3.org/2000/svg">
<path d="M8.48404 6.9325C9.22078 7.53274 10.1328 7.87704 11.0824 7.91342C12.032 7.9498 12.9677 7.67629 13.7482 7.13417C14.0122 6.96486 14.3286 6.8969 14.6388 6.94286C14.949 6.98882 15.2321 7.14559 15.4357 7.38417L18.4274 10.75C19.0377 11.4365 19.3749 12.3231 19.3749 13.2417V17.9167C19.3749 18.2482 19.2432 18.5661 19.0088 18.8006C18.7743 19.035 18.4564 19.1667 18.1249 19.1667C17.7933 19.1667 17.4754 19.035 17.241 18.8006C17.0066 18.5661 16.8749 18.2482 16.8749 17.9167V13.2417C16.8756 12.9345 16.7631 12.6379 16.559 12.4083L14.1965 9.75167C13.0227 10.3076 11.7156 10.5203 10.426 10.3654C9.13643 10.2104 7.91694 9.69403 6.9082 8.87583" stroke="black" stroke-width="1.25" stroke-linecap="round" stroke-linejoin="round"/>
<path d="M3.125 1.66667H0.625V6.66667H3.125V1.66667Z" stroke="black" stroke-width="1.25" stroke-linecap="round" stroke-linejoin="round"/>
<path d="M7.5 4.79167L3.125 6.04167V2.29167L7.5 3.54167V4.79167Z" stroke="black" stroke-width="1.25" stroke-linecap="round" stroke-linejoin="round"/>
<path d="M4.375 5.68417V16.0417L1.25 19.1667" stroke="black" stroke-width="1.25" stroke-linecap="round" stroke-linejoin="round"/>
<path d="M4.375 19.1667V16.0417L7.5 19.1667" stroke="black" stroke-width="1.25" stroke-linecap="round" stroke-linejoin="round"/>
<path d="M11.5625 5.41667C12.7706 5.41667 13.75 4.43729 13.75 3.22917C13.75 2.02105 12.7706 1.04167 11.5625 1.04167C10.3544 1.04167 9.375 2.02105 9.375 3.22917C9.375 4.43729 10.3544 5.41667 11.5625 5.41667Z" stroke="black" stroke-width="1.25" stroke-linecap="round" stroke-linejoin="round"/>
</svg>
